<svg class="marks" width="306" height="236" viewBox="0 0 306 236" version="1.1" xmlns="http://www.w3.org/2000/svg" xmlns:xlink="http://www.w3.org/1999/xlink"><g transform="translate(50,5)"><g class="mark-group role-frame root"><g transform="translate(0,0)"><path class="background" d="M0.5,0.5h140v140h-140Z" style="fill: none; stroke: #ddd;"></path><g><g class="mark-symbol role-mark marks"><path transform="translate(30,10)" d="M4.321158848399749,0A4.321158848399749,4.321158848399749,0,1,1,-4.321158848399749,0A4.321158848399749,4.321158848399749,0,1,1,4.321158848399749,0" style="fill: #4c78a8; stroke-width: 2;"></path><path transform="translate(130,70)" d="M1.2474111121673643,0A1.2474111121673643,1.2474111121673643,0,1,1,-1.2474111121673643,0A1.2474111121673643,1.2474111121673643,0,1,1,1.2474111121673643,0" style="fill: #4c78a8; stroke-width: 2;"></path><path transform="translate(30,90)" d="M7.689558527303605,0A7.689558527303605,7.689558527303605,0,1,1,-7.689558527303605,0A7.689558527303605,7.689558527303605,0,1,1,7.689558527303605,0" style="fill: #4c78a8; stroke-width: 2;"></path><path transform="translate(50,130)" d="M5.1432077740352415,0A5.1432077740352415,5.1432077740352415,0,1,1,-5.1432077740352415,0A5.1432077740352415,5.1432077740352415,0,1,1,5.1432077740352415,0" style="fill: #4c78a8; stroke-width: 2;"></path><path transform="translate(30,110)" d="M8.642317696799498,0A8.642317696799498,8.642317696799498,0,1,1,-8.642317696799498,0A8.642317696799498,8.642317696799498,0,1,1,8.642317696799498,0" style="fill: #4c78a8; stroke-width: 2;"></path><path transform="translate(110,10)" d="M1.2474111121673643,0A1.2474111121673643,1.2474111121673643,0,1,1,-1.2474111121673643,0A1.2474111121673643,1.2474111121673643,0,1,1,1.2474111121673643,0" style="fill: #4c78a8; stroke-width: 2;"></path><path transform="translate(110,70)" d="M2.1605794241998746,0A2.1605794241998746,2.1605794241998746,0,1,1,-2.1605794241998746,0A2.1605794241998746,2.1605794241998746,0,1,1,2.1605794241998746,0" style="fill: #4c78a8; stroke-width: 2;"></path><path transform="translate(130,90)" d="M2.1605794241998746,0A2.1605794241998746,2.1605794241998746,0,1,1,-2.1605794241998746,0A2.1605794241998746,2.1605794241998746,0,1,1,2.1605794241998746,0" style="fill: #4c78a8; stroke-width: 2;"></path><path transform="translate(130,130)" d="M2.7892960426948417,0A2.7892960426948417,2.7892960426948417,0,1,1,-2.7892960426948417,0A2.7892960426948417,2.7892960426948417,0,1,1,2.7892960426948417,0" style="fill: #4c78a8; stroke-width: 2;"></path><path transform="translate(110,110)" d="M1.7641057126819928,0A1.7641057126819928,1.7641057126819928,0,1,1,-1.7641057126819928,0A1.7641057126819928,1.7641057126819928,0,1,1,1.7641057126819928,0" style="fill: #4c78a8; stroke-width: 2;"></path><path transform="translate(10,130)" d="M4.13719461837908,0A4.13719461837908,4.13719461837908,0,1,1,-4.13719461837908,0A4.13719461837908,4.13719461837908,0,1,1,4.13719461837908,0" style="fill: #4c78a8; stroke-width: 2;"></path><path transform="translate(30,70)" d="M6.237055560836821,0A6.237055560836821,6.237055560836821,0,1,1,-6.237055560836821,0A6.237055560836821,6.237055560836821,0,1,1,6.237055560836821,0" style="fill: #4c78a8; stroke-width: 2;"></path><path transform="translate(30,50)" d="M6.481738272599624,0A6.481738272599624,6.481738272599624,0,1,1,-6.481738272599624,0A6.481738272599624,6.481738272599624,0,1,1,6.481738272599624,0" style="fill: #4c78a8; stroke-width: 2;"></path><path transform="translate(70,130)" d="M2.7892960426948417,0A2.7892960426948417,2.7892960426948417,0,1,1,-2.7892960426948417,0A2.7892960426948417,2.7892960426948417,0,1,1,2.7892960426948417,0" style="fill: #4c78a8; stroke-width: 2;"></path><path transform="translate(50,90)" d="M4.321158848399749,0A4.321158848399749,4.321158848399749,0,1,1,-4.321158848399749,0A4.321158848399749,4.321158848399749,0,1,1,4.321158848399749,0" style="fill: #4c78a8; stroke-width: 2;"></path><path transform="translate(30,130)" d="M9.5,0A9.5,9.5,0,1,1,-9.5,0A9.5,9.5,0,1,1,9.5,0" style="fill: #4c78a8; stroke-width: 2;"></path><path transform="translate(10,110)" d="M3.3003395854533433,0A3.3003395854533433,3.3003395854533433,0,1,1,-3.3003395854533433,0A3.3003395854533433,3.3003395854533433,0,1,1,3.3003395854533433,0" style="fill: #4c78a8; stroke-width: 2;"></path><path transform="translate(50,110)" d="M5.437338978987221,0A5.437338978987221,5.437338978987221,0,1,1,-5.437338978987221,0A5.437338978987221,5.437338978987221,0,1,1,5.437338978987221,0" style="fill: #4c78a8; stroke-width: 2;"></path><path transform="translate(10,90)" d="M3.9446602930526486,0A3.9446602930526486,3.9446602930526486,0,1,1,-3.9446602930526486,0A3.9446602930526486,3.9446602930526486,0,1,1,3.9446602930526486,0" style="fill: #4c78a8; stroke-width: 2;"></path><path transform="translate(90,50)" d="M2.4948222243347287,0A2.4948222243347287,2.4948222243347287,0,1,1,-2.4948222243347287,0A2.4948222243347287,2.4948222243347287,0,1,1,2.4948222243347287,0" style="fill: #4c78a8; stroke-width: 2;"></path><path transform="translate(10,10)" d="M2.4948222243347287,0A2.4948222243347287,2.4948222243347287,0,1,1,-2.4948222243347287,0A2.4948222243347287,2.4948222243347287,0,1,1,2.4948222243347287,0" style="fill: #4c78a8; stroke-width: 2;"></path><path transform="translate(90,70)" d="M4.13719461837908,0A4.13719461837908,4.13719461837908,0,1,1,-4.13719461837908,0A4.13719461837908,4.13719461837908,0,1,1,4.13719461837908,0" style="fill: #4c78a8; stroke-width: 2;"></path><path transform="translate(70,50)" d="M1.2474111121673643,0A1.2474111121673643,1.2474111121673643,0,1,1,-1.2474111121673643,0A1.2474111121673643,1.2474111121673643,0,1,1,1.2474111121673643,0" style="fill: #4c78a8; stroke-width: 2;"></path><path transform="translate(70,110)" d="M1.7641057126819928,0A1.7641057126819928,1.7641057126819928,0,1,1,-1.7641057126819928,0A1.7641057126819928,1.7641057126819928,0,1,1,1.7641057126819928,0" style="fill: #4c78a8; stroke-width: 2;"></path><path transform="translate(30,30)" d="M5.437338978987221,0A5.437338978987221,5.437338978987221,0,1,1,-5.437338978987221,0A5.437338978987221,5.437338978987221,0,1,1,5.437338978987221,0" style="fill: #4c78a8; stroke-width: 2;"></path><path transform="translate(10,70)" d="M3.3003395854533433,0A3.3003395854533433,3.3003395854533433,0,1,1,-3.3003395854533433,0A3.3003395854533433,3.3003395854533433,0,1,1,3.3003395854533433,0" style="fill: #4c78a8; stroke-width: 2;"></path><path transform="translate(130,10)" d="M1.7641057126819928,0A1.7641057126819928,1.7641057126819928,0,1,1,-1.7641057126819928,0A1.7641057126819928,1.7641057126819928,0,1,1,1.7641057126819928,0" style="fill: #4c78a8; stroke-width: 2;"></path><path transform="translate(90,30)" d="M2.1605794241998746,0A2.1605794241998746,2.1605794241998746,0,1,1,-2.1605794241998746,0A2.1605794241998746,2.1605794241998746,0,1,1,2.1605794241998746,0" style="fill: #4c78a8; stroke-width: 2;"></path><path transform="translate(130,110)" d="M2.4948222243347287,0A2.4948222243347287,2.4948222243347287,0,1,1,-2.4948222243347287,0A2.4948222243347287,2.4948222243347287,0,1,1,2.4948222243347287,0" style="fill: #4c78a8; stroke-width: 2;"></path><path transform="translate(50,70)" d="M3.055520724287715,0A3.055520724287715,3.055520724287715,0,1,1,-3.055520724287715,0A3.055520724287715,3.055520724287715,0,1,1,3.055520724287715,0" style="fill: #4c78a8; stroke-width: 2;"></path><path transform="translate(70,90)" d="M1.2474111121673643,0A1.2474111121673643,1.2474111121673643,0,1,1,-1.2474111121673643,0A1.2474111121673643,1.2474111121673643,0,1,1,1.2474111121673643,0" style="fill: #4c78a8; stroke-width: 2;"></path><path transform="translate(10,30)" d="M1.7641057126819928,0A1.7641057126819928,1.7641057126819928,0,1,1,-1.7641057126819928,0A1.7641057126819928,1.7641057126819928,0,1,1,1.7641057126819928,0" style="fill: #4c78a8; stroke-width: 2;"></path><path transform="translate(110,50)" d="M1.2474111121673643,0A1.2474111121673643,1.2474111121673643,0,1,1,-1.2474111121673643,0A1.2474111121673643,1.2474111121673643,0,1,1,1.2474111121673643,0" style="fill: #4c78a8; stroke-width: 2;"></path><path transform="translate(90,130)" d="M2.7892960426948417,0A2.7892960426948417,2.7892960426948417,0,1,1,-2.7892960426948417,0A2.7892960426948417,2.7892960426948417,0,1,1,2.7892960426948417,0" style="fill: #4c78a8; stroke-width: 2;"></path><path transform="translate(90,90)" d="M3.742233336502093,0A3.742233336502093,3.742233336502093,0,1,1,-3.742233336502093,0A3.742233336502093,3.742233336502093,0,1,1,3.742233336502093,0" style="fill: #4c78a8; stroke-width: 2;"></path><path transform="translate(110,130)" d="M1.7641057126819928,0A1.7641057126819928,1.7641057126819928,0,1,1,-1.7641057126819928,0A1.7641057126819928,1.7641057126819928,0,1,1,1.7641057126819928,0" style="fill: #4c78a8; stroke-width: 2;"></path><path transform="translate(50,30)" d="M1.2474111121673643,0A1.2474111121673643,1.2474111121673643,0,1,1,-1.2474111121673643,0A1.2474111121673643,1.2474111121673643,0,1,1,1.2474111121673643,0" style="fill: #4c78a8; stroke-width: 2;"></path><path transform="translate(50,50)" d="M1.7641057126819928,0A1.7641057126819928,1.7641057126819928,0,1,1,-1.7641057126819928,0A1.7641057126819928,1.7641057126819928,0,1,1,1.7641057126819928,0" style="fill: #4c78a8; stroke-width: 2;"></path><path transform="translate(90,10)" d="M2.1605794241998746,0A2.1605794241998746,2.1605794241998746,0,1,1,-2.1605794241998746,0A2.1605794241998746,2.1605794241998746,0,1,1,2.1605794241998746,0" style="fill: #4c78a8; stroke-width: 2;"></path><path transform="translate(90,110)" d="M3.055520724287715,0A3.055520724287715,3.055520724287715,0,1,1,-3.055520724287715,0A3.055520724287715,3.055520724287715,0,1,1,3.055520724287715,0" style="fill: #4c78a8; stroke-width: 2;"></path><path transform="translate(70,70)" d="M1.2474111121673643,0A1.2474111121673643,1.2474111121673643,0,1,1,-1.2474111121673643,0A1.2474111121673643,1.2474111121673643,0,1,1,1.2474111121673643,0" style="fill: #4c78a8; stroke-width: 2;"></path><path transform="translate(10,50)" d="M2.7892960426948417,0A2.7892960426948417,2.7892960426948417,0,1,1,-2.7892960426948417,0A2.7892960426948417,2.7892960426948417,0,1,1,2.7892960426948417,0" style="fill: #4c78a8; stroke-width: 2;"></path><path transform="translate(130,30)" d="M1.2474111121673643,0A1.2474111121673643,1.2474111121673643,0,1,1,-1.2474111121673643,0A1.2474111121673643,1.2474111121673643,0,1,1,1.2474111121673643,0" style="fill: #4c78a8; stroke-width: 2;"></path><path transform="translate(130,50)" d="M2.1605794241998746,0A2.1605794241998746,2.1605794241998746,0,1,1,-2.1605794241998746,0A2.1605794241998746,2.1605794241998746,0,1,1,2.1605794241998746,0" style="fill: #4c78a8; stroke-width: 2;"></path></g><g class="mark-group role-legend"><g transform="translate(158,0)"><path class="background" d="M0,0h93v110h-93Z" style="pointer-events: none; fill: none;"></path><g><g class="mark-group role-legend-entry"><g transform="translate(0,16)"><path class="background" d="M0,0h0v0h0Z" style="pointer-events: none; fill: none;"></path><g><g class="mark-group role-scope"><g transform="translate(0,0)"><path class="background" d="M0,0h35.123046875v10.44466029305265h-35.123046875Z" style="pointer-events: none; fill: none; opacity: 1;"></path><g><g class="mark-symbol role-legend-symbol" style="pointer-events: none;"><path transform="translate(10,5)" d="M3.9446602930526486,0A3.9446602930526486,3.9446602930526486,0,1,1,-3.9446602930526486,0A3.9446602930526486,3.9446602930526486,0,1,1,3.9446602930526486,0" style="fill: #4c78a8; stroke: none; stroke-width: 1.5; opacity: 1;"></path></g><g class="mark-text role-legend-label" style="pointer-events: none;"><text text-anchor="start" transform="translate(24,8)" style="font-family: sans-serif; font-size: 10px; fill: #000; opacity: 1;">10</text></g></g></g><g transform="translate(0,14)"><path class="background" d="M0,0h35.123046875v13.578592085389683h-35.123046875Z" style="pointer-events: none; fill: none; opacity: 1;"></path><g><g class="mark-symbol role-legend-symbol" style="pointer-events: none;"><path transform="translate(10,6.5)" d="M5.578592085389683,0A5.578592085389683,5.578592085389683,0,1,1,-5.578592085389683,0A5.578592085389683,5.578592085389683,0,1,1,5.578592085389683,0" style="fill: #4c78a8; stroke: none; stroke-width: 1.5; opacity: 1;"></path></g><g class="mark-text role-legend-label" style="pointer-events: none;"><text text-anchor="start" transform="translate(24,9.5)" style="font-family: sans-serif; font-size: 10px; fill: #000; opacity: 1;">20</text></g></g></g><g transform="translate(0,31)"><path class="background" d="M0,0h35.123046875v16.332352046166726h-35.123046875Z" style="pointer-events: none; fill: none; opacity: 1;"></path><g><g class="mark-symbol role-legend-symbol" style="pointer-events: none;"><path transform="translate(10,8)" d="M6.832352046166725,0A6.832352046166725,6.832352046166725,0,1,1,-6.832352046166725,0A6.832352046166725,6.832352046166725,0,1,1,6.832352046166725,0" style="fill: #4c78a8; stroke: none; stroke-width: 1.5; opacity: 1;"></path></g><g class="mark-text role-legend-label" style="pointer-events: none;"><text text-anchor="start" transform="translate(24,11)" style="font-family: sans-serif; font-size: 10px; fill: #000; opacity: 1;">30</text></g></g></g><g transform="translate(0,51)"><path class="background" d="M0,0h35.123046875v18.3893205861053h-35.123046875Z" style="pointer-events: none; fill: none; opacity: 1;"></path><g><g class="mark-symbol role-legend-symbol" style="pointer-events: none;"><path transform="translate(10,9)" d="M7.889320586105297,0A7.889320586105297,7.889320586105297,0,1,1,-7.889320586105297,0A7.889320586105297,7.889320586105297,0,1,1,7.889320586105297,0" style="fill: #4c78a8; stroke: none; stroke-width: 1.5; opacity: 1;"></path></g><g class="mark-text role-legend-label" style="pointer-events: none;"><text text-anchor="start" transform="translate(24,12)" style="font-family: sans-serif; font-size: 10px; fill: #000; opacity: 1;">40</text></g></g></g><g transform="translate(0,73)"><path class="background" d="M0,0h35.123046875v20.320528563409965h-35.123046875Z" style="pointer-events: none; fill: none; opacity: 1;"></path><g><g class="mark-symbol role-legend-symbol" style="pointer-events: none;"><path transform="translate(10,10)" d="M8.820528563409963,0A8.820528563409963,8.820528563409963,0,1,1,-8.820528563409963,0A8.820528563409963,8.820528563409963,0,1,1,8.820528563409963,0" style="fill: #4c78a8; stroke: none; stroke-width: 1.5; opacity: 1;"></path></g><g class="mark-text role-legend-label" style="pointer-events: none;"><text text-anchor="start" transform="translate(24,13)" style="font-family: sans-serif; font-size: 10px; fill: #000; opacity: 1;">50</text></g></g></g></g></g></g></g><g class="mark-text role-legend-title" style="pointer-events: none;"><text text-anchor="start" transform="translate(0,9)" style="font-family: sans-serif; font-size: 11px; font-weight: bold; fill: #000; opacity: 1;">Count of Records</text></g></g></g></g><g class="mark-group role-axis"><g transform="translate(0.5,140.5)"><path class="background" d="M0,0h0v0h0Z" style="pointer-events: none; fill: none;"></path><g><g class="mark-rule role-axis-tick" style="pointer-events: none;"><line transform="translate(10,0)" x2="0" y2="5" style="fill: none; stroke: #888; stroke-width: 1; opacity: 1;"></line><line transform="translate(30,0)" x2="0" y2="5" style="fill: none; stroke: #888; stroke-width: 1; opacity: 1;"></line><line transform="translate(50,0)" x2="0" y2="5" style="fill: none; stroke: #888; stroke-width: 1; opacity: 1;"></line><line transform="translate(70,0)" x2="0" y2="5" style="fill: none; stroke: #888; stroke-width: 1; opacity: 1;"></line><line transform="translate(90,0)" x2="0" y2="5" style="fill: none; stroke: #888; stroke-width: 1; opacity: 1;"></line><line transform="translate(110,0)" x2="0" y2="5" style="fill: none; stroke: #888; stroke-width: 1; opacity: 1;"></line><line transform="translate(130,0)" x2="0" y2="5" style="fill: none; stroke: #888; stroke-width: 1; opacity: 1;"></line></g><g class="mark-text role-axis-label" style="pointer-events: none;"><text text-anchor="end" transform="translate(10,7) rotate(270) translate(0,3)" style="font-family: sans-serif; font-size: 10px; fill: #000; opacity: 1;">Automobile</text><text text-anchor="end" transform="translate(30,7) rotate(270) translate(0,3)" style="font-family: sans-serif; font-size: 10px; fill: #000; opacity: 1;">Hotel or Motel</text><text text-anchor="end" transform="translate(50,7) rotate(270) translate(0,3)" style="font-family: sans-serif; font-size: 10px; fill: #000; opacity: 1;">In Vehicle</text><text text-anchor="end" transform="translate(70,7) rotate(270) translate(0,3)" style="font-family: sans-serif; font-size: 10px; fill: #000; opacity: 1;">Nursing Home</text><text text-anchor="end" transform="translate(90,7) rotate(270) translate(0,3)" style="font-family: sans-serif; font-size: 10px; fill: #000; opacity: 1;">Parking Lot</text><text text-anchor="end" transform="translate(110,7) rotate(270) translate(0,3)" style="font-family: sans-serif; font-size: 10px; fill: #000; opacity: 1;">Public Park</text><text text-anchor="end" transform="translate(130,7) rotate(270) translate(0,3)" style="font-family: sans-serif; font-size: 10px; fill: #000; opacity: 1;">Restaurant</text></g><g class="mark-rule role-axis-domain" style="pointer-events: none;"><line transform="translate(0,0)" x2="140" y2="0" style="fill: none; stroke: #888; stroke-width: 1; opacity: 1;"></line></g><g class="mark-text role-axis-title" style="pointer-events: none;"><text text-anchor="middle" transform="translate(70,83.9111328125)" style="font-family: sans-serif; font-size: 11px; font-weight: bold; fill: #000; opacity: 1;">InjuryPlace</text></g></g></g></g><g class="mark-group role-axis"><g transform="translate(0.5,0.5)"><path class="background" d="M0,0h0v0h0Z" style="pointer-events: none; fill: none;"></path><g><g class="mark-rule role-axis-tick" style="pointer-events: none;"><line transform="translate(0,10)" x2="-5" y2="0" style="fill: none; stroke: #888; stroke-width: 1; opacity: 1;"></line><line transform="translate(0,30)" x2="-5" y2="0" style="fill: none; stroke: #888; stroke-width: 1; opacity: 1;"></line><line transform="translate(0,50)" x2="-5" y2="0" style="fill: none; stroke: #888; stroke-width: 1; opacity: 1;"></line><line transform="translate(0,70)" x2="-5" y2="0" style="fill: none; stroke: #888; stroke-width: 1; opacity: 1;"></line><line transform="translate(0,90)" x2="-5" y2="0" style="fill: none; stroke: #888; stroke-width: 1; opacity: 1;"></line><line transform="translate(0,110)" x2="-5" y2="0" style="fill: none; stroke: #888; stroke-width: 1; opacity: 1;"></line><line transform="translate(0,130)" x2="-5" y2="0" style="fill: none; stroke: #888; stroke-width: 1; opacity: 1;"></line></g><g class="mark-text role-axis-label" style="pointer-events: none;"><text text-anchor="end" transform="translate(-7,13)" style="font-family: sans-serif; font-size: 10px; fill: #000; opacity: 1;">2012</text><text text-anchor="end" transform="translate(-7,33)" style="font-family: sans-serif; font-size: 10px; fill: #000; opacity: 1;">2013</text><text text-anchor="end" transform="translate(-7,53)" style="font-family: sans-serif; font-size: 10px; fill: #000; opacity: 1;">2014</text><text text-anchor="end" transform="translate(-7,73)" style="font-family: sans-serif; font-size: 10px; fill: #000; opacity: 1;">2015</text><text text-anchor="end" transform="translate(-7,93)" style="font-family: sans-serif; font-size: 10px; fill: #000; opacity: 1;">2016</text><text text-anchor="end" transform="translate(-7,113)" style="font-family: sans-serif; font-size: 10px; fill: #000; opacity: 1;">2017</text><text text-anchor="end" transform="translate(-7,133)" style="font-family: sans-serif; font-size: 10px; fill: #000; opacity: 1;">2018</text></g><g class="mark-rule role-axis-domain" style="pointer-events: none;"><line transform="translate(0,0)" x2="0" y2="140" style="fill: none; stroke: #888; stroke-width: 1; opacity: 1;"></line></g><g class="mark-text role-axis-title" style="pointer-events: none;"><text text-anchor="middle" transform="translate(-33.24609375,70) rotate(-90) translate(0,-2)" style="font-family: sans-serif; font-size: 11px; font-weight: bold; fill: #000; opacity: 1;">Date</text></g></g></g></g></g></g></g></g></svg>