<?xml version="1.0" encoding="utf-8"?>
<!-- Generator: Adobe Illustrator 23.0.6, SVG Export Plug-In . SVG Version: 6.00 Build 0)  -->
<svg version="1.1" id="Layer_1" xmlns="http://www.w3.org/2000/svg" xmlns:xlink="http://www.w3.org/1999/xlink" x="0px" y="0px"
	 viewBox="0 0 817 869.1" style="enable-background:new 0 0 817 869.1;" xml:space="preserve">
<style type="text/css">
	.st0{fill:#009EA6;stroke:#DDDDDD;stroke-opacity:0;}
	.st1{font-family:'Avenir-Light';}
	.st2{font-size:16px;}
	.st3{font-size:23px;}
	.st4{font-size:13px;}
	.st5{font-size:20px;}
	.st6{font-size:18px;}
	.st7{font-size:12px;}
	.st8{font-size:15px;}
	.st9{font-size:14px;}
	.st10{enable-background:new    ;}
	.st11{fill:none;stroke:#000000;stroke-width:0.8;stroke-miterlimit:10;}
	.st12{fill:#575757;}
</style>
<circle class="st0" cx="217.1" cy="476.4" r="54.8"/>
<circle class="st0" cx="473.4" cy="476.4" r="185"/>
<circle class="st0" cx="269.7" cy="541.2" r="12.3"/>
<circle class="st0" cx="212.5" cy="280.2" r="125"/>
<circle class="st0" cx="265" cy="623.2" r="53.4"/>
<circle class="st0" cx="353" cy="679.5" r="34.7"/>
<circle class="st0" cx="423" cy="192.7" r="86.6"/>
<circle class="st0" cx="194.2" cy="565.9" r="21.2"/>
<circle class="st0" cx="460.4" cy="761.5" r="84"/>
<circle class="st0" cx="532.5" cy="258.3" r="24.5"/>
<circle class="st0" cx="571.5" cy="688.7" r="32.4"/>
<circle class="st0" cx="272.6" cy="746.2" r="53.4"/>
<circle class="st0" cx="101.9" cy="437.1" r="50.5"/>
<circle class="st0" cx="144.8" cy="533.9" r="21.2"/>
<circle class="st0" cx="602.2" cy="281.2" r="32.4"/>
<circle class="st0" cx="180.5" cy="609.4" r="17.3"/>
<circle class="st0" cx="683.8" cy="648.5" r="70.4"/>
<circle class="st0" cx="342.5" cy="817.5" r="30"/>
<circle class="st0" cx="658.1" cy="336.8" r="30"/>
<circle class="st0" cx="700.9" cy="530.5" r="32.4"/>
<circle class="st0" cx="83" cy="526.6" r="24.5"/>
<circle class="st0" cx="703.8" cy="408.7" r="38.7"/>
<circle class="st0" cx="184.4" cy="661.4" r="17.3"/>
<circle class="st0" cx="189.7" cy="719.2" r="17.3"/>
<circle class="st0" cx="73.9" cy="594.1" r="12.3"/>
<circle class="st0" cx="537.7" cy="205.3" r="12.3"/>
<ellipse transform="matrix(0.9806 -0.1961 0.1961 0.9806 -119.5292 36.2139)" class="st0" cx="123.1" cy="621.7" rx="12.3" ry="12.3"/>
<circle class="st0" cx="766.7" cy="475.8" r="36.8"/>
<circle class="st0" cx="575.1" cy="226.4" r="12.3"/>
<circle class="st0" cx="308.9" cy="154.2" r="17.3"/>
<circle class="st0" cx="577.9" cy="754.6" r="17.3"/>
<circle class="st0" cx="663.2" cy="278.4" r="12.3"/>
<circle class="st0" cx="132.1" cy="586.8" r="17.3"/>
<circle class="st0" cx="586.7" cy="162" r="36.8"/>
<ellipse transform="matrix(6.652056e-02 -0.9978 0.9978 6.652056e-02 -554.954 762.188)" class="st0" cx="129.9" cy="677.7" rx="27.4" ry="27.4"/>
<circle class="st0" cx="631.8" cy="743.2" r="21.2"/>
<ellipse transform="matrix(6.652050e-02 -0.9978 0.9978 6.652050e-02 -287.8214 407.5175)" class="st0" cx="73.9" cy="357.6" rx="17.3" ry="17.3"/>
<circle class="st0" cx="721.8" cy="338.4" r="17.3"/>
<circle class="st0" cx="627.1" cy="219.8" r="17.3"/>
<circle class="st0" cx="525.3" cy="139.4" r="12.3"/>
<text transform="matrix(1 0 0 1 196.4406 479.7545)" class="st1 st2">Street</text>
<text transform="matrix(1 0 0 1 396.6991 487.9803)" class="st1 st3">Hotel or Motel</text>
<text transform="matrix(1 0 0 1 245.5121 562.38)" class="st1 st4">School</text>
<text transform="matrix(1 0 0 1 160.6992 280.6125)" class="st1 st5">In Vehicle</text>
<text transform="matrix(1 0 0 1 231.116 623.5479)" class="st1 st2">Restaurant</text>
<text transform="matrix(1 0 0 1 337.4435 679.9032)" class="st1 st4">Forest</text>
<text transform="matrix(1 0 0 1 379.2082 194.0819)" class="st1 st6">Parking Lot</text>
<text transform="matrix(1 0 0 1 175.9671 563.0233)" class="st1 st7">Train</text>
<text transform="matrix(1 0 0 1 175.9671 573.8233)" class="st1 st7">Station</text>
<text transform="matrix(1 0 0 1 416.6686 761.9247)" class="st1 st6">Outdoor Area</text>
<text transform="matrix(1 0 0 1 521.9218 261.6544)" class="st1 st8">Bar</text>
<text transform="matrix(1 0 0 1 543.783 693.0613)" class="st1 st8">Alleyway</text>
<text transform="matrix(1 0 0 1 238.7384 746.5782)" class="st1 st2">Public Park</text>
<text transform="matrix(1 0 0 1 57.0396 438.4693)" class="st1 st4">Public Buildings</text>
<text transform="matrix(1 0 0 1 125.6294 537.3071)" class="st1 st4">Casino</text>
<text transform="matrix(1 0 0 1 587.0377 284.542)" class="st1 st8">Store</text>
<text transform="matrix(1 0 0 1 160.3991 633.8807)" class="st1 st4">Beach</text>
<text transform="matrix(1 0 0 1 630.7812 653.908)" class="st1 st6">Halfway House</text>
<text transform="matrix(1 0 0 1 319.6462 821.8399)" class="st1 st9">Hospital</text>
<text transform="matrix(1 0 0 1 638.3987 333.1798)" class="st1 st4">Office</text>
<text transform="matrix(1 0 0 1 638.3987 346.3799)" class="st1 st4">Building</text>
<text transform="matrix(1 0 0 1 683.533 533.897)" class="st1 st8">Porch</text>
<text transform="matrix(1 0 0 1 70.6865 531.5531)" class="st1 st4">Boat</text>
<text transform="matrix(1 0 0 1 680.1611 405.5801)" class="st10"><tspan x="0" y="0" class="st1 st9">Nursing</tspan><tspan x="0" y="16.8" class="st1 st9">Home</tspan></text>
<text transform="matrix(1 0 0 1 189.6987 686.1246)" class="st1 st7">Detox</text>
<text transform="matrix(1 0 0 1 189.6989 695.0732)" class="st1 st7">Center</text>
<text transform="matrix(1 0 0 1 154.2959 746.5786)" class="st1 st4">Cemetery</text>
<text transform="matrix(1 0 0 1 2.4449 579.1796)" class="st1 st7">Convenience</text>
<text transform="matrix(1 0 0 1 3.4449 590.7797)" class="st1 st7">Store</text>
<text transform="matrix(1 0 0 1 516.0449 180.7102)" class="st1 st7">Rehab </text>
<text transform="matrix(1 0 0 1 516.0449 191.5103)" class="st1 st7">House</text>
<text transform="matrix(1 0 0 1 56.5852 634.3608)" class="st10"><tspan x="0" y="0" class="st1 st7">Homeless</tspan><tspan x="0" y="14.4" class="st1 st7">Shelter</tspan></text>
<text transform="matrix(1 0 0 1 744.3803 479.1472)" class="st1 st8">Garage</text>
<text transform="matrix(1 0 0 1 564.2371 211.7755)" class="st1 st4">Farm</text>
<text transform="matrix(1 0 0 1 259.4759 132.5009)" class="st1 st9">Railroad Track</text>
<text transform="matrix(1 0 0 1 560.6196 787.8258)" class="st1 st4">College</text>
<text transform="matrix(1 0 0 1 560.6196 801.0259)" class="st1 st4">Campus</text>
<text transform="matrix(1 0 0 1 654.8328 262.2491)" class="st1 st9">Church</text>
<text transform="matrix(1 0 0 1 82.9991 566.3228)" class="st1 st7">Warehouse</text>
<text transform="matrix(1 0 0 1 561.7921 162.369)" class="st1 st9">Backyard</text>
<text transform="matrix(1 0 0 1 113.4993 673.9037)" class="st10"><tspan x="0" y="0" class="st1 st7">Gas </tspan><tspan x="0" y="14.4" class="st1 st7">Station</tspan></text>
<text transform="matrix(1 0 0 1 616.7042 746.6212)" class="st1 st9">Stairs</text>
<text transform="matrix(1 0 0 1 18.8909 338.6424)" class="st1 st4">Health Care</text>
<text transform="matrix(1 0 0 1 18.8909 349.4424)" class="st1 st4">Facility</text>
<text transform="matrix(1 0 0 1 742.5961 333.1798)" class="st1 st4">Penal</text>
<text transform="matrix(1 0 0 1 742.5961 346.3799)" class="st1 st4">Institution</text>
<text transform="matrix(1 0 0 1 646.3784 196.5222)" class="st1 st4">Movie</text>
<text transform="matrix(1 0 0 1 646.3784 207.3223)" class="st1 st4">Theatre</text>
<text transform="matrix(1 0 0 1 513.9736 122.6084)" class="st1 st4">River</text>
<g>
	<g>
		<path class="st11" d="M38.1,594.5c9.8,12.9,23.5,3.9,23.5,3.9"/>
		<g>
			<path d="M35.2,590.6c0.7,2.3,1.2,5.4,1.1,7.7l2.2-3.4l3.9-1.2C40.1,593.3,37.3,591.9,35.2,590.6z"/>
		</g>
	</g>
</g>
<g>
	<g>
		<path d="M22.7,27.1c0-3.6,0-7.3,0.1-9.3h-0.1c-0.8,3.2-4,11.5-6.2,17.6h-2.3c-1.7-5-5-14.4-5.8-17.7H8.2c0.1,2.2,0.2,6.6,0.2,9.9
			v7.8H6V15.9h3.9c2.2,6,4.9,13.8,5.6,16.3h0c0.5-1.9,3.7-10.4,5.9-16.3h3.7v19.5h-2.5V27.1z"/>
		<path d="M42,28.3c0,4.1-2.3,7.5-6.7,7.5c-4.1,0-6.5-3.1-6.5-7.4c0-4.2,2.4-7.5,6.7-7.5C39.5,20.9,42,23.8,42,28.3z M31.4,28.3
			c0,3.1,1.6,5.4,4.1,5.4c2.6,0,4.1-2.2,4.1-5.4c0-3.2-1.5-5.4-4.1-5.4C32.8,22.9,31.4,25.1,31.4,28.3z"/>
		<path d="M46.4,31.4c0.4,1.6,1.6,2.5,3.5,2.5c2.1,0,2.9-0.9,2.9-2.2c0-1.3-0.7-1.9-3.4-2.6c-4.1-1-4.9-2.2-4.9-4.2c0-2,1.5-4,5.1-4
			c3.7,0,5.2,2.1,5.3,4.1h-2.4c-0.2-0.9-0.9-2.2-3.1-2.2c-2,0-2.6,1-2.6,1.9c0,1.1,0.6,1.6,3.2,2.2c4.3,1,5.2,2.5,5.2,4.6
			c0,2.5-2,4.3-5.5,4.3c-3.7,0-5.5-1.9-5.8-4.4H46.4z"/>
		<path d="M56.7,21.2h2.5V17h2.5v4.2h3.1v2h-3.1v8.3c0,1.4,0.3,2.1,1.6,2.1c0.3,0,0.8,0,1.2-0.1v1.8c-0.6,0.2-1.4,0.3-2.1,0.3
			c-2.2,0-3.2-1.1-3.2-3.5v-8.9h-2.5V21.2z"/>
		<path d="M90.4,29.9c-0.9,3.3-3.3,5.8-7.8,5.8c-5.8,0-8.8-4.4-8.8-9.9c0-5.3,2.9-10.1,8.9-10.1c4.6,0,7.1,2.6,7.7,5.9h-2.6
			c-0.7-2.1-2.1-3.7-5.2-3.7c-4.3,0-6.1,3.9-6.1,7.8c0,3.8,1.7,7.9,6.2,7.9c3,0,4.3-1.7,5.1-3.6H90.4z"/>
		<path d="M105.9,28.3c0,4.1-2.3,7.5-6.7,7.5c-4.1,0-6.5-3.1-6.5-7.4c0-4.2,2.4-7.5,6.7-7.5C103.3,20.9,105.9,23.8,105.9,28.3z
			 M95.2,28.3c0,3.1,1.6,5.4,4.1,5.4c2.6,0,4.1-2.2,4.1-5.4c0-3.2-1.5-5.4-4.1-5.4C96.6,22.9,95.2,25.1,95.2,28.3z"/>
		<path d="M109.1,24.9c0-1.2,0-2.5,0-3.7h2.4c0,0.4,0.1,1.5,0.1,2.2c0.6-1.3,1.9-2.5,4.1-2.5c2,0,3.4,1,3.9,2.5
			c0.8-1.3,2.1-2.5,4.5-2.5c2.3,0,4.5,1.4,4.5,5.2v9.3h-2.4v-9c0-1.6-0.6-3.4-2.8-3.4c-2.3,0-3.3,1.7-3.3,4.3v8.2h-2.4v-9
			c0-1.8-0.5-3.5-2.7-3.5c-2.3,0-3.4,1.8-3.4,4.6v7.9h-2.4V24.9z"/>
		<path d="M132.8,24.9c0-1.2,0-2.5,0-3.7h2.4c0,0.4,0.1,1.5,0.1,2.2c0.6-1.3,1.9-2.5,4.1-2.5c2,0,3.4,1,3.9,2.5
			c0.8-1.3,2.1-2.5,4.5-2.5c2.3,0,4.5,1.4,4.5,5.2v9.3h-2.4v-9c0-1.6-0.6-3.4-2.8-3.4c-2.3,0-3.3,1.7-3.3,4.3v8.2h-2.4v-9
			c0-1.8-0.5-3.5-2.7-3.5c-2.3,0-3.4,1.8-3.4,4.6v7.9h-2.4V24.9z"/>
		<path d="M168.7,28.3c0,4.1-2.3,7.5-6.7,7.5c-4.1,0-6.5-3.1-6.5-7.4c0-4.2,2.4-7.5,6.7-7.5C166.1,20.9,168.7,23.8,168.7,28.3z
			 M158,28.3c0,3.1,1.6,5.4,4.1,5.4c2.6,0,4.1-2.2,4.1-5.4c0-3.2-1.5-5.4-4.1-5.4C159.4,22.9,158,25.1,158,28.3z"/>
		<path d="M171.9,24.8c0-1.2,0-2.5,0-3.6h2.4c0.1,0.4,0.1,1.9,0.1,2.3c0.6-1.2,1.7-2.7,4.5-2.7c2.7,0,4.7,1.6,4.7,5.4v9.1h-2.5v-8.8
			c0-2.1-0.8-3.6-3-3.6c-2.7,0-3.8,2-3.8,4.9v7.5h-2.5V24.8z"/>
		<path d="M195.3,15.9h7.4c3.8,0,6.4,2.1,6.4,5.7c0,3.8-2.7,5.8-6.5,5.8h-4.6v8h-2.6V15.9z M197.9,25.2h4.5c2.7,0,4-1.3,4-3.6
			c0-2.4-1.6-3.6-3.9-3.6h-4.6V25.2z"/>
		<path d="M212.4,35.4V14.9h2.5v20.6H212.4z"/>
		<path d="M229.6,32.3c0,1.3,0.1,2.7,0.2,3.1h-2.3c-0.1-0.3-0.2-1-0.2-1.9c-0.5,0.9-1.6,2.2-4.4,2.2c-3.3,0-4.8-2.2-4.8-4.3
			c0-3.2,2.5-4.6,6.7-4.6c1,0,1.9,0,2.4,0v-1.2c0-1.3-0.4-2.8-3.1-2.8c-2.4,0-2.8,1.2-3,2.3h-2.4c0.2-2,1.4-4.2,5.5-4.2
			c3.5,0,5.4,1.4,5.4,4.7V32.3z M227.3,28.5c-0.5,0-1.5,0-2.3,0c-2.8,0-4.3,0.8-4.3,2.8c0,1.5,1,2.6,2.8,2.6c3.4,0,3.9-2.3,3.9-4.9
			V28.5z"/>
		<path d="M245.1,31.1c-0.6,2.4-2.3,4.7-5.9,4.7c-3.9,0-6.3-2.8-6.3-7.4c0-4,2.3-7.5,6.5-7.5c4.1,0,5.5,2.9,5.7,4.7h-2.4
			c-0.4-1.4-1.3-2.7-3.3-2.7c-2.5,0-3.9,2.2-3.9,5.4c0,3.2,1.4,5.4,3.8,5.4c1.8,0,2.8-0.9,3.4-2.6H245.1z"/>
		<path d="M249.5,28.8c0,2.9,1.5,4.9,3.9,4.9c2.2,0,3-1.2,3.4-2.2h2.5c-0.6,1.8-2.1,4.2-6,4.2c-4.5,0-6.3-3.6-6.3-7.3
			c0-4.2,2.1-7.6,6.4-7.6c4.6,0,6.1,3.7,6.1,6.7c0,0.4,0,0.8,0,1.2H249.5z M257.1,27c0-2.3-1.2-4.2-3.6-4.2c-2.5,0-3.6,1.7-3.8,4.2
			H257.1z"/>
		<path d="M263.9,31.4c0.4,1.6,1.6,2.5,3.5,2.5c2.1,0,2.9-0.9,2.9-2.2c0-1.3-0.7-1.9-3.4-2.6c-4.1-1-4.9-2.2-4.9-4.2
			c0-2,1.5-4,5.1-4c3.7,0,5.2,2.1,5.3,4.1h-2.4c-0.2-0.9-0.9-2.2-3.1-2.2c-2,0-2.6,1-2.6,1.9c0,1.1,0.6,1.6,3.2,2.2
			c4.3,1,5.2,2.5,5.2,4.6c0,2.5-2,4.3-5.5,4.3c-3.7,0-5.5-1.9-5.8-4.4H263.9z"/>
		<path d="M283.5,35.4V23.2h-2.3v-2h2.3v-1.7c0-2.6,1-4.9,4.1-4.9c0.5,0,1.2,0.1,1.6,0.2v2.1c-0.3-0.1-0.9-0.1-1.2-0.1
			c-1.5,0-2,0.9-2,3v1.5h2.8v2h-2.8v12.2H283.5z"/>
		<path d="M303.1,28.3c0,4.1-2.3,7.5-6.7,7.5c-4.1,0-6.5-3.1-6.5-7.4c0-4.2,2.4-7.5,6.7-7.5C300.6,20.9,303.1,23.8,303.1,28.3z
			 M292.5,28.3c0,3.1,1.6,5.4,4.1,5.4c2.6,0,4.1-2.2,4.1-5.4c0-3.2-1.5-5.4-4.1-5.4C293.8,22.9,292.5,25.1,292.5,28.3z"/>
		<path d="M306.3,25.1c0-2,0-3.1,0-3.9h2.4c0,0.4,0.1,1.5,0.1,2.9c0.7-1.9,2.4-3.2,4.8-3.2v2.4c-2.9,0.1-4.8,1.6-4.8,5.2v6.9h-2.5
			V25.1z"/>
		<path d="M340.7,25.6c0,5.4-3,10.1-9.1,10.1c-5.7,0-8.9-4.4-8.9-10c0-5.6,3.3-10,9.2-10C337.3,15.7,340.7,19.8,340.7,25.6z
			 M325.4,25.6c0,4.2,2.2,7.9,6.3,7.9c4.5,0,6.3-3.7,6.3-7.9c0-4.2-2-7.7-6.3-7.7C327.3,17.9,325.4,21.4,325.4,25.6z"/>
		<path d="M345.2,21.2c1.9,5.8,3.3,10.1,3.7,11.9h0c0.3-1.6,1.9-5.8,4-11.9h2.5l-5.2,14.2h-2.7l-5-14.2H345.2z"/>
		<path d="M359.3,28.8c0,2.9,1.5,4.9,3.9,4.9c2.2,0,3-1.2,3.4-2.2h2.5c-0.6,1.8-2.1,4.2-6,4.2c-4.5,0-6.3-3.6-6.3-7.3
			c0-4.2,2.1-7.6,6.4-7.6c4.6,0,6.1,3.7,6.1,6.7c0,0.4,0,0.8,0,1.2H359.3z M366.9,27c0-2.3-1.2-4.2-3.6-4.2c-2.5,0-3.6,1.7-3.8,4.2
			H366.9z"/>
		<path d="M372.5,25.1c0-2,0-3.1,0-3.9h2.4c0,0.4,0.1,1.5,0.1,2.9c0.7-1.9,2.4-3.2,4.8-3.2v2.4c-2.9,0.1-4.8,1.6-4.8,5.2v6.9h-2.5
			V25.1z"/>
		<path d="M394.2,14.9v16.5c0,1.3,0,2.6,0,4h-2.4c-0.1-0.4-0.1-1.5-0.1-2c-0.7,1.5-2.1,2.4-4.5,2.4c-3.6,0-5.9-3-5.9-7.3
			c0-4.4,2.4-7.6,6.3-7.6c2.5,0,3.6,1,4,1.8v-7.8H394.2z M383.9,28.4c0,3.4,1.6,5.3,3.9,5.3c3.3,0,4-2.4,4-5.6
			c0-3.2-0.7-5.1-3.9-5.1C385.5,23,383.9,24.9,383.9,28.4z"/>
		<path d="M410.6,28.3c0,4.1-2.3,7.5-6.7,7.5c-4.1,0-6.5-3.1-6.5-7.4c0-4.2,2.4-7.5,6.7-7.5C408,20.9,410.6,23.8,410.6,28.3z
			 M399.9,28.3c0,3.1,1.6,5.4,4.1,5.4c2.6,0,4.1-2.2,4.1-5.4c0-3.2-1.5-5.4-4.1-5.4C401.3,22.9,399.9,25.1,399.9,28.3z"/>
		<path d="M414.9,31.4c0.4,1.6,1.6,2.5,3.5,2.5c2.1,0,2.9-0.9,2.9-2.2c0-1.3-0.7-1.9-3.4-2.6c-4.1-1-4.9-2.2-4.9-4.2
			c0-2,1.5-4,5.1-4c3.7,0,5.2,2.1,5.3,4.1h-2.4c-0.2-0.9-0.9-2.2-3.1-2.2c-2,0-2.6,1-2.6,1.9c0,1.1,0.6,1.6,3.2,2.2
			c4.3,1,5.2,2.5,5.2,4.6c0,2.5-2,4.3-5.5,4.3c-3.7,0-5.5-1.9-5.8-4.4H414.9z"/>
		<path d="M428.5,28.8c0,2.9,1.5,4.9,3.9,4.9c2.2,0,3-1.2,3.4-2.2h2.5c-0.6,1.8-2.1,4.2-6,4.2c-4.5,0-6.3-3.6-6.3-7.3
			c0-4.2,2.1-7.6,6.4-7.6c4.6,0,6.1,3.7,6.1,6.7c0,0.4,0,0.8,0,1.2H428.5z M436,27c0-2.3-1.2-4.2-3.6-4.2c-2.5,0-3.6,1.7-3.8,4.2
			H436z"/>
		<path d="M449.2,15.9h7c5.5,0,9.2,3.7,9.2,9.5c0,5.8-3.6,9.9-9.3,9.9h-6.9V15.9z M451.8,33.2h4.1c4.6,0,6.8-3.3,6.8-7.7
			c0-3.8-2-7.4-6.8-7.4h-4.1V33.2z"/>
		<path d="M470.4,28.8c0,2.9,1.5,4.9,3.9,4.9c2.2,0,3-1.2,3.4-2.2h2.5c-0.6,1.8-2.1,4.2-6,4.2c-4.5,0-6.3-3.6-6.3-7.3
			c0-4.2,2.1-7.6,6.4-7.6c4.6,0,6.1,3.7,6.1,6.7c0,0.4,0,0.8,0,1.2H470.4z M477.9,27c0-2.3-1.2-4.2-3.6-4.2c-2.5,0-3.6,1.7-3.8,4.2
			H477.9z"/>
		<path d="M494.1,32.3c0,1.3,0.1,2.7,0.2,3.1H492c-0.1-0.3-0.2-1-0.2-1.9c-0.5,0.9-1.6,2.2-4.4,2.2c-3.3,0-4.8-2.2-4.8-4.3
			c0-3.2,2.5-4.6,6.7-4.6c1,0,1.9,0,2.4,0v-1.2c0-1.3-0.4-2.8-3.1-2.8c-2.4,0-2.8,1.2-3,2.3h-2.4c0.2-2,1.4-4.2,5.5-4.2
			c3.5,0,5.4,1.4,5.4,4.7V32.3z M491.7,28.5c-0.5,0-1.5,0-2.3,0c-2.8,0-4.3,0.8-4.3,2.8c0,1.5,1,2.6,2.8,2.6c3.4,0,3.9-2.3,3.9-4.9
			V28.5z"/>
		<path d="M496.5,21.2h2.5V17h2.5v4.2h3.1v2h-3.1v8.3c0,1.4,0.3,2.1,1.6,2.1c0.3,0,0.8,0,1.2-0.1v1.8c-0.6,0.2-1.4,0.3-2.1,0.3
			c-2.2,0-3.2-1.1-3.2-3.5v-8.9h-2.5V21.2z"/>
		<path d="M509.7,14.9v8.5c0.7-1.2,2-2.4,4.4-2.4c2.3,0,4.8,1.2,4.8,5.5v9.1h-2.4v-8.7c0-2.4-1-3.8-3.1-3.8c-2.6,0-3.7,1.7-3.7,4.6
			v7.8h-2.5V14.9H509.7z"/>
		<path d="M524.3,31.4c0.4,1.6,1.6,2.5,3.5,2.5c2.1,0,2.9-0.9,2.9-2.2c0-1.3-0.7-1.9-3.4-2.6c-4.1-1-4.9-2.2-4.9-4.2
			c0-2,1.5-4,5.1-4c3.7,0,5.2,2.1,5.3,4.1h-2.4c-0.2-0.9-0.9-2.2-3.1-2.2c-2,0-2.6,1-2.6,1.9c0,1.1,0.6,1.6,3.2,2.2
			c4.3,1,5.2,2.5,5.2,4.6c0,2.5-2,4.3-5.5,4.3c-3.7,0-5.5-1.9-5.8-4.4H524.3z"/>
		<path d="M560.9,25.6c0,5.4-3,10.1-9.1,10.1c-5.7,0-8.9-4.4-8.9-10c0-5.6,3.3-10,9.2-10C557.5,15.7,560.9,19.8,560.9,25.6z
			 M545.6,25.6c0,4.2,2.2,7.9,6.3,7.9c4.5,0,6.3-3.7,6.3-7.9c0-4.2-2-7.7-6.3-7.7C547.5,17.9,545.6,21.4,545.6,25.6z"/>
		<path d="M575.9,31.3c0,1.4,0,3.3,0,4.1h-2.4c-0.1-0.4-0.1-1.2-0.1-2.1c-0.7,1.6-2.1,2.5-4.3,2.5c-2.4,0-4.7-1.2-4.7-5.2v-9.3h2.4
			V30c0,1.9,0.6,3.6,2.9,3.6c2.6,0,3.6-1.4,3.6-5v-7.4h2.5V31.3z"/>
		<path d="M578.3,21.2h2.5V17h2.5v4.2h3.1v2h-3.1v8.3c0,1.4,0.3,2.1,1.6,2.1c0.3,0,0.8,0,1.2-0.1v1.8c-0.6,0.2-1.4,0.3-2.1,0.3
			c-2.2,0-3.2-1.1-3.2-3.5v-8.9h-2.5V21.2z"/>
		<path d="M590.2,31.4c0.4,1.6,1.6,2.5,3.5,2.5c2.1,0,2.9-0.9,2.9-2.2c0-1.3-0.7-1.9-3.4-2.6c-4.1-1-4.9-2.2-4.9-4.2
			c0-2,1.5-4,5.1-4c3.7,0,5.2,2.1,5.3,4.1h-2.4c-0.2-0.9-0.9-2.2-3.1-2.2c-2,0-2.6,1-2.6,1.9c0,1.1,0.6,1.6,3.2,2.2
			c4.3,1,5.2,2.5,5.2,4.6c0,2.5-2,4.3-5.5,4.3c-3.7,0-5.5-1.9-5.8-4.4H590.2z"/>
		<path d="M602.3,14.9h2.5v3.1h-2.5V14.9z M602.3,21.2h2.5v14.2h-2.5V21.2z"/>
		<path d="M620.7,14.9v16.5c0,1.3,0,2.6,0,4h-2.4c-0.1-0.4-0.1-1.5-0.1-2c-0.7,1.5-2.1,2.4-4.5,2.4c-3.7,0-5.9-3-5.9-7.3
			c0-4.4,2.4-7.6,6.3-7.6c2.5,0,3.6,1,4,1.8v-7.8H620.7z M610.4,28.4c0,3.4,1.6,5.3,3.9,5.3c3.3,0,4-2.4,4-5.6
			c0-3.2-0.7-5.1-3.9-5.1C612,23,610.4,24.9,610.4,28.4z"/>
		<path d="M626.4,28.8c0,2.9,1.5,4.9,3.9,4.9c2.2,0,3-1.2,3.4-2.2h2.5c-0.6,1.8-2.1,4.2-6,4.2c-4.5,0-6.3-3.6-6.3-7.3
			c0-4.2,2.1-7.6,6.4-7.6c4.6,0,6.1,3.7,6.1,6.7c0,0.4,0,0.8,0,1.2H626.4z M633.9,27c0-2.3-1.2-4.2-3.6-4.2c-2.5,0-3.6,1.7-3.8,4.2
			H633.9z"/>
		<path d="M658.8,28.3c0,4.1-2.3,7.5-6.7,7.5c-4.1,0-6.5-3.1-6.5-7.4c0-4.2,2.4-7.5,6.7-7.5C656.2,20.9,658.8,23.8,658.8,28.3z
			 M648.1,28.3c0,3.1,1.6,5.4,4.1,5.4c2.6,0,4.1-2.2,4.1-5.4c0-3.2-1.5-5.4-4.1-5.4C649.5,22.9,648.1,25.1,648.1,28.3z"/>
		<path d="M662.5,35.4V23.2h-2.3v-2h2.3v-1.7c0-2.6,1-4.9,4.1-4.9c0.5,0,1.2,0.1,1.6,0.2v2.1c-0.3-0.1-0.9-0.1-1.2-0.1
			c-1.5,0-2,0.9-2,3v1.5h2.8v2h-2.8v12.2H662.5z"/>
		<path d="M680.1,26.8v8.6h-2.6V15.9h7.6c4,0,6.1,2.2,6.1,5.2c0,2.5-1.5,4.1-3.3,4.6c1.6,0.4,3,1.6,3,5v0.8c0,1.3-0.1,3,0.3,3.9
			h-2.5c-0.4-0.8-0.3-2.4-0.3-4.2v-0.4c0-2.8-0.8-4-4.3-4H680.1z M680.1,24.7h4.2c3,0,4.3-1.1,4.3-3.3c0-2.1-1.3-3.2-4-3.2h-4.5
			V24.7z"/>
		<path d="M696.5,28.8c0,2.9,1.5,4.9,3.9,4.9c2.2,0,3-1.2,3.4-2.2h2.5c-0.6,1.8-2.1,4.2-6,4.2c-4.5,0-6.3-3.6-6.3-7.3
			c0-4.2,2.1-7.6,6.4-7.6c4.6,0,6.1,3.7,6.1,6.7c0,0.4,0,0.8,0,1.2H696.5z M704,27c0-2.3-1.2-4.2-3.6-4.2c-2.5,0-3.6,1.7-3.8,4.2
			H704z"/>
		<path d="M710.8,31.4c0.4,1.6,1.6,2.5,3.5,2.5c2.1,0,2.9-0.9,2.9-2.2c0-1.3-0.7-1.9-3.4-2.6c-4.1-1-4.9-2.2-4.9-4.2
			c0-2,1.5-4,5.1-4c3.7,0,5.2,2.1,5.3,4.1h-2.4c-0.2-0.9-0.9-2.2-3.1-2.2c-2,0-2.6,1-2.6,1.9c0,1.1,0.6,1.6,3.2,2.2
			c4.3,1,5.2,2.5,5.2,4.6c0,2.5-2,4.3-5.5,4.3c-3.7,0-5.5-1.9-5.8-4.4H710.8z"/>
		<path d="M722.9,14.9h2.5v3.1h-2.5V14.9z M722.9,21.2h2.5v14.2h-2.5V21.2z"/>
		<path d="M741.3,14.9v16.5c0,1.3,0,2.6,0,4H739c-0.1-0.4-0.1-1.5-0.1-2c-0.7,1.5-2.1,2.4-4.5,2.4c-3.7,0-5.9-3-5.9-7.3
			c0-4.4,2.4-7.6,6.3-7.6c2.5,0,3.6,1,4,1.8v-7.8H741.3z M731.1,28.4c0,3.4,1.6,5.3,3.9,5.3c3.3,0,4-2.4,4-5.6
			c0-3.2-0.7-5.1-3.9-5.1C732.6,23,731.1,24.9,731.1,28.4z"/>
		<path d="M747,28.8c0,2.9,1.5,4.9,3.9,4.9c2.2,0,3-1.2,3.4-2.2h2.5c-0.6,1.8-2.1,4.2-6,4.2c-4.5,0-6.3-3.6-6.3-7.3
			c0-4.2,2.1-7.6,6.4-7.6c4.6,0,6.1,3.7,6.1,6.7c0,0.4,0,0.8,0,1.2H747z M754.5,27c0-2.3-1.2-4.2-3.6-4.2c-2.5,0-3.6,1.7-3.8,4.2
			H754.5z"/>
		<path d="M760.2,24.8c0-1.2,0-2.5,0-3.6h2.4c0.1,0.4,0.1,1.9,0.1,2.3c0.6-1.2,1.7-2.7,4.5-2.7c2.7,0,4.7,1.6,4.7,5.4v9.1h-2.5v-8.8
			c0-2.1-0.8-3.6-3-3.6c-2.7,0-3.8,2-3.8,4.9v7.5h-2.5V24.8z"/>
		<path d="M787.2,31.1c-0.6,2.4-2.3,4.7-5.9,4.7c-3.9,0-6.3-2.8-6.3-7.4c0-4,2.3-7.5,6.5-7.5c4.1,0,5.5,2.9,5.7,4.7h-2.4
			c-0.4-1.4-1.3-2.7-3.3-2.7c-2.5,0-3.9,2.2-3.9,5.4c0,3.2,1.4,5.4,3.8,5.4c1.8,0,2.8-0.9,3.4-2.6H787.2z"/>
		<path d="M791.6,28.8c0,2.9,1.5,4.9,3.9,4.9c2.2,0,3-1.2,3.4-2.2h2.5c-0.6,1.8-2.1,4.2-6,4.2c-4.5,0-6.3-3.6-6.3-7.3
			c0-4.2,2.1-7.6,6.4-7.6c4.6,0,6.1,3.7,6.1,6.7c0,0.4,0,0.8,0,1.2H791.6z M799.2,27c0-2.3-1.2-4.2-3.6-4.2c-2.5,0-3.6,1.7-3.8,4.2
			H799.2z"/>
		<path d="M806,31.4c0.4,1.6,1.6,2.5,3.5,2.5c2.1,0,2.9-0.9,2.9-2.2c0-1.3-0.7-1.9-3.4-2.6c-4.1-1-4.9-2.2-4.9-4.2c0-2,1.5-4,5.1-4
			c3.7,0,5.2,2.1,5.3,4.1h-2.4c-0.2-0.9-0.9-2.2-3.1-2.2c-2,0-2.6,1-2.6,1.9c0,1.1,0.6,1.6,3.2,2.2c4.3,1,5.2,2.5,5.2,4.6
			c0,2.5-2,4.3-5.5,4.3c-3.7,0-5.5-1.9-5.8-4.4H806z"/>
	</g>
</g>
<g>
	<g>
		<path class="st12" d="M495.7,858.8c0.5,0.3,1.3,0.6,2.2,0.6c1.2,0,2-0.7,2-1.6c0-0.9-0.5-1.4-1.8-1.9c-1.5-0.5-2.5-1.4-2.5-2.7
			c0-1.5,1.2-2.6,3.1-2.6c1,0,1.7,0.2,2.1,0.5l-0.3,1c-0.3-0.2-0.9-0.4-1.8-0.4c-1.3,0-1.8,0.8-1.8,1.4c0,0.9,0.6,1.3,1.9,1.8
			c1.6,0.6,2.4,1.4,2.4,2.8c0,1.4-1.1,2.7-3.3,2.7c-0.9,0-1.9-0.3-2.4-0.6L495.7,858.8z"/>
		<path class="st12" d="M508.9,856.8c0,2.5-1.7,3.6-3.4,3.6c-1.8,0-3.3-1.3-3.3-3.5c0-2.3,1.5-3.6,3.4-3.6
			C507.6,853.3,508.9,854.7,508.9,856.8z M503.5,856.9c0,1.5,0.8,2.6,2.1,2.6c1.2,0,2.1-1.1,2.1-2.6c0-1.1-0.6-2.6-2-2.6
			C504.1,854.3,503.5,855.6,503.5,856.9z"/>
		<path class="st12" d="M516.1,858.4c0,0.7,0,1.3,0.1,1.9h-1.1l-0.1-1.1h0c-0.3,0.5-1,1.3-2.2,1.3c-1.1,0-2.3-0.6-2.3-3v-4h1.2v3.7
			c0,1.3,0.4,2.2,1.5,2.2c0.8,0,1.4-0.6,1.6-1.1c0.1-0.2,0.1-0.4,0.1-0.6v-4.1h1.2V858.4z"/>
		<path class="st12" d="M518.1,855.6c0-0.8,0-1.5-0.1-2.1h1.1l0,1.3h0c0.3-0.9,1.1-1.5,1.9-1.5c0.1,0,0.2,0,0.3,0v1.2
			c-0.1,0-0.2,0-0.4,0c-0.9,0-1.5,0.7-1.6,1.6c0,0.2,0,0.4,0,0.6v3.6h-1.2V855.6z"/>
		<path class="st12" d="M527.6,860c-0.3,0.2-1,0.4-1.9,0.4c-2,0-3.4-1.4-3.4-3.5c0-2.1,1.4-3.6,3.6-3.6c0.7,0,1.4,0.2,1.7,0.4
			l-0.3,0.9c-0.3-0.2-0.8-0.3-1.4-0.3c-1.5,0-2.4,1.2-2.4,2.6c0,1.6,1,2.5,2.4,2.5c0.7,0,1.2-0.2,1.5-0.3L527.6,860z"/>
		<path class="st12" d="M529.7,857.1c0,1.7,1.1,2.4,2.3,2.4c0.9,0,1.4-0.2,1.9-0.3l0.2,0.9c-0.4,0.2-1.2,0.4-2.3,0.4
			c-2.1,0-3.3-1.4-3.3-3.4c0-2.1,1.2-3.7,3.2-3.7c2.2,0,2.8,1.9,2.8,3.2c0,0.3,0,0.4,0,0.6H529.7z M533.3,856.2c0-0.8-0.3-2-1.7-2
			c-1.3,0-1.8,1.1-1.9,2H533.3z"/>
		<path class="st12" d="M535.7,854.6c0-0.5,0.3-0.9,0.8-0.9c0.5,0,0.8,0.4,0.8,0.9c0,0.5-0.3,0.9-0.8,0.9
			C536.1,855.5,535.7,855.1,535.7,854.6z M535.7,859.5c0-0.5,0.3-0.9,0.8-0.9c0.5,0,0.8,0.4,0.8,0.9c0,0.5-0.3,0.9-0.8,0.9
			C536.1,860.4,535.7,860,535.7,859.5z"/>
		<path class="st12" d="M548.5,860c-0.4,0.2-1.3,0.5-2.5,0.5c-2.7,0-4.6-1.7-4.6-4.8c0-3,2-5,4.9-5c1.2,0,1.9,0.2,2.2,0.4l-0.3,1
			c-0.5-0.2-1.1-0.4-1.9-0.4c-2.2,0-3.7,1.4-3.7,3.9c0,2.3,1.3,3.8,3.6,3.8c0.7,0,1.5-0.2,2-0.4L548.5,860z"/>
		<path class="st12" d="M556.1,856.8c0,2.5-1.7,3.6-3.4,3.6c-1.8,0-3.3-1.3-3.3-3.5c0-2.3,1.5-3.6,3.4-3.6
			C554.8,853.3,556.1,854.7,556.1,856.8z M550.8,856.9c0,1.5,0.8,2.6,2.1,2.6c1.2,0,2.1-1.1,2.1-2.6c0-1.1-0.6-2.6-2-2.6
			C551.4,854.3,550.8,855.6,550.8,856.9z"/>
		<path class="st12" d="M557.7,855.3c0-0.7,0-1.3-0.1-1.8h1.1l0.1,1.1h0c0.3-0.6,1.1-1.3,2.2-1.3c0.9,0,2.4,0.6,2.4,2.9v4h-1.2v-3.9
			c0-1.1-0.4-2-1.6-2c-0.8,0-1.4,0.6-1.7,1.3c-0.1,0.2-0.1,0.4-0.1,0.6v4.1h-1.2V855.3z"/>
		<path class="st12" d="M565.5,855.3c0-0.7,0-1.3-0.1-1.8h1.1l0.1,1.1h0c0.3-0.6,1.1-1.3,2.2-1.3c0.9,0,2.4,0.6,2.4,2.9v4H570v-3.9
			c0-1.1-0.4-2-1.6-2c-0.8,0-1.4,0.6-1.7,1.3c-0.1,0.2-0.1,0.4-0.1,0.6v4.1h-1.2V855.3z"/>
		<path class="st12" d="M573.9,857.1c0,1.7,1.1,2.4,2.3,2.4c0.9,0,1.4-0.2,1.9-0.3l0.2,0.9c-0.4,0.2-1.2,0.4-2.3,0.4
			c-2.1,0-3.3-1.4-3.3-3.4c0-2.1,1.2-3.7,3.2-3.7c2.2,0,2.8,1.9,2.8,3.2c0,0.3,0,0.4,0,0.6H573.9z M577.5,856.2c0-0.8-0.3-2-1.7-2
			c-1.3,0-1.8,1.1-1.9,2H577.5z"/>
		<path class="st12" d="M585.1,860c-0.3,0.2-1,0.4-1.9,0.4c-2,0-3.4-1.4-3.4-3.5c0-2.1,1.4-3.6,3.6-3.6c0.7,0,1.4,0.2,1.7,0.4
			l-0.3,0.9c-0.3-0.2-0.8-0.3-1.4-0.3c-1.5,0-2.4,1.2-2.4,2.6c0,1.6,1,2.5,2.4,2.5c0.7,0,1.2-0.2,1.5-0.3L585.1,860z"/>
		<path class="st12" d="M588,851.5v2h1.8v0.9H588v3.7c0,0.8,0.2,1.3,0.9,1.3c0.3,0,0.6,0,0.7-0.1l0.1,0.9c-0.2,0.1-0.6,0.2-1.1,0.2
			c-0.6,0-1-0.2-1.3-0.5c-0.3-0.4-0.5-1-0.5-1.8v-3.7h-1v-0.9h1v-1.6L588,851.5z"/>
		<path class="st12" d="M592.5,851.6c0,0.4-0.3,0.8-0.8,0.8c-0.4,0-0.7-0.3-0.7-0.8c0-0.4,0.3-0.8,0.8-0.8
			C592.2,850.8,592.5,851.1,592.5,851.6z M591.1,860.3v-6.8h1.2v6.8H591.1z"/>
		<path class="st12" d="M599.2,860c-0.3,0.2-1,0.4-1.9,0.4c-2,0-3.4-1.4-3.4-3.5c0-2.1,1.4-3.6,3.6-3.6c0.7,0,1.4,0.2,1.7,0.4
			l-0.3,0.9c-0.3-0.2-0.8-0.3-1.4-0.3c-1.5,0-2.4,1.2-2.4,2.6c0,1.6,1,2.5,2.4,2.5c0.7,0,1.2-0.2,1.5-0.3L599.2,860z"/>
		<path class="st12" d="M606.3,858.4c0,0.7,0,1.3,0.1,1.9h-1.1l-0.1-1.1h0c-0.3,0.5-1,1.3-2.2,1.3c-1.1,0-2.3-0.6-2.3-3v-4h1.2v3.7
			c0,1.3,0.4,2.2,1.5,2.2c0.8,0,1.4-0.6,1.6-1.1c0.1-0.2,0.1-0.4,0.1-0.6v-4.1h1.2V858.4z"/>
		<path class="st12" d="M609.9,851.5v2h1.8v0.9h-1.8v3.7c0,0.8,0.2,1.3,0.9,1.3c0.3,0,0.6,0,0.7-0.1l0.1,0.9
			c-0.2,0.1-0.6,0.2-1.1,0.2c-0.6,0-1-0.2-1.3-0.5c-0.3-0.4-0.5-1-0.5-1.8v-3.7h-1v-0.9h1v-1.6L609.9,851.5z"/>
		<path class="st12" d="M624.1,855.4c0,3.2-2,5-4.4,5c-2.5,0-4.2-1.9-4.2-4.8c0-3,1.8-5,4.4-5C622.4,850.7,624.1,852.6,624.1,855.4z
			 M616.8,855.6c0,2,1.1,3.8,3,3.8c1.9,0,3-1.8,3-3.9c0-1.9-1-3.8-3-3.8C617.8,851.7,616.8,853.5,616.8,855.6z"/>
		<path class="st12" d="M634.1,851.5c-0.3-0.2-0.8-0.4-1.4-0.4c-1.3,0-1.7,0.9-1.7,2v0.3h3.9v6.8h-1.2v-5.8h-2.7v5.8h-1.2v-5.8H627
			v5.8h-1.2v-5.8h-0.9v-0.9h0.9v-0.3c0-0.8,0.2-1.7,0.8-2.3c0.4-0.4,1-0.7,1.7-0.7c0.5,0,0.9,0.2,1.2,0.3l-0.3,0.9
			c-0.2-0.1-0.5-0.2-0.8-0.2c-0.4,0-0.7,0.1-0.9,0.4c-0.3,0.4-0.5,1-0.5,1.6v0.3h2.9v-0.4c0-1.8,1.1-2.9,3-2.9
			c0.6,0,1.3,0.2,1.7,0.4L634.1,851.5z"/>
		<path class="st12" d="M641.9,860c-0.3,0.2-1,0.4-1.9,0.4c-2,0-3.4-1.4-3.4-3.5c0-2.1,1.4-3.6,3.6-3.6c0.7,0,1.4,0.2,1.7,0.4
			l-0.3,0.9c-0.3-0.2-0.8-0.3-1.4-0.3c-1.5,0-2.4,1.2-2.4,2.6c0,1.6,1,2.5,2.4,2.5c0.7,0,1.2-0.2,1.5-0.3L641.9,860z"/>
		<path class="st12" d="M644,857.1c0,1.7,1.1,2.4,2.3,2.4c0.9,0,1.4-0.2,1.9-0.3l0.2,0.9c-0.4,0.2-1.2,0.4-2.3,0.4
			c-2.1,0-3.3-1.4-3.3-3.4c0-2.1,1.2-3.7,3.2-3.7c2.2,0,2.8,1.9,2.8,3.2c0,0.3,0,0.4,0,0.6H644z M647.6,856.2c0-0.8-0.3-2-1.7-2
			c-1.3,0-1.8,1.1-1.9,2H647.6z"/>
		<path class="st12" d="M659.4,856.8c0,2.5-1.7,3.6-3.4,3.6c-1.8,0-3.3-1.3-3.3-3.5c0-2.3,1.5-3.6,3.4-3.6
			C658.1,853.3,659.4,854.7,659.4,856.8z M654.1,856.9c0,1.5,0.9,2.6,2.1,2.6c1.2,0,2.1-1.1,2.1-2.6c0-1.1-0.6-2.6-2-2.6
			C654.7,854.3,654.1,855.6,654.1,856.9z"/>
		<path class="st12" d="M661.1,860.3v-5.8h-0.9v-0.9h0.9v-0.3c0-1,0.2-1.8,0.8-2.4c0.5-0.4,1.1-0.6,1.6-0.6c0.4,0,0.8,0.1,1.1,0.2
			l-0.2,0.9c-0.2-0.1-0.4-0.2-0.8-0.2c-1,0-1.3,0.9-1.3,2v0.4h1.6v0.9h-1.6v5.8H661.1z"/>
		<path class="st12" d="M668.1,850.9c0.6-0.1,1.4-0.2,2.3-0.2c1.2,0,2.1,0.3,2.6,0.8c0.5,0.5,0.8,1.1,0.8,2c0,0.9-0.3,1.5-0.7,2
			c-0.7,0.7-1.7,1-2.9,1c-0.4,0-0.7,0-1-0.1v3.8h-1.2V850.9z M669.3,855.5c0.3,0.1,0.6,0.1,1,0.1c1.5,0,2.4-0.7,2.4-2
			c0-1.2-0.9-1.9-2.2-1.9c-0.5,0-0.9,0-1.2,0.1V855.5z"/>
		<path class="st12" d="M681.6,856.8c0,2.5-1.7,3.6-3.4,3.6c-1.8,0-3.3-1.3-3.3-3.5c0-2.3,1.5-3.6,3.4-3.6
			C680.3,853.3,681.6,854.7,681.6,856.8z M676.3,856.9c0,1.5,0.8,2.6,2.1,2.6c1.2,0,2.1-1.1,2.1-2.6c0-1.1-0.6-2.6-2-2.6
			C676.9,854.3,676.3,855.6,676.3,856.9z"/>
		<path class="st12" d="M683.2,850.3h1.2v9.9h-1.2V850.3z"/>
		<path class="st12" d="M687.9,851.6c0,0.4-0.3,0.8-0.8,0.8c-0.4,0-0.7-0.3-0.7-0.8c0-0.4,0.3-0.8,0.8-0.8
			C687.6,850.8,687.9,851.1,687.9,851.6z M686.5,860.3v-6.8h1.2v6.8H686.5z"/>
		<path class="st12" d="M694.6,860c-0.3,0.2-1,0.4-1.9,0.4c-2,0-3.4-1.4-3.4-3.5c0-2.1,1.4-3.6,3.6-3.6c0.7,0,1.4,0.2,1.7,0.4
			l-0.3,0.9c-0.3-0.2-0.8-0.3-1.4-0.3c-1.5,0-2.4,1.2-2.4,2.6c0,1.6,1,2.5,2.4,2.5c0.7,0,1.2-0.2,1.5-0.3L694.6,860z"/>
		<path class="st12" d="M696.5,853.5l1.5,4c0.2,0.4,0.3,1,0.4,1.4h0c0.1-0.4,0.3-0.9,0.4-1.4l1.3-4h1.3l-1.9,4.8
			c-0.9,2.3-1.5,3.5-2.3,4.2c-0.6,0.5-1.2,0.7-1.5,0.8l-0.3-1c0.3-0.1,0.7-0.3,1.1-0.6c0.3-0.3,0.7-0.7,1-1.4
			c0.1-0.1,0.1-0.2,0.1-0.3c0-0.1,0-0.2-0.1-0.3l-2.5-6.2H696.5z"/>
		<path class="st12" d="M709.3,860.3l-0.1-0.9h0c-0.4,0.5-1.1,1-2.1,1c-1.4,0-2.1-1-2.1-1.9c0-1.6,1.5-2.5,4.1-2.5v-0.1
			c0-0.6-0.2-1.6-1.5-1.6c-0.6,0-1.3,0.2-1.8,0.5l-0.3-0.8c0.6-0.4,1.4-0.6,2.2-0.6c2.1,0,2.6,1.4,2.6,2.8v2.5c0,0.6,0,1.2,0.1,1.6
			H709.3z M709.2,856.8c-1.3,0-2.9,0.2-2.9,1.5c0,0.8,0.5,1.2,1.1,1.2c0.9,0,1.5-0.6,1.6-1.1c0-0.1,0.1-0.3,0.1-0.4V856.8z"/>
		<path class="st12" d="M712.3,855.3c0-0.7,0-1.3-0.1-1.8h1.1l0.1,1.1h0c0.3-0.6,1.1-1.3,2.2-1.3c0.9,0,2.4,0.6,2.4,2.9v4h-1.2v-3.9
			c0-1.1-0.4-2-1.6-2c-0.8,0-1.4,0.6-1.7,1.3c-0.1,0.2-0.1,0.4-0.1,0.6v4.1h-1.2V855.3z"/>
		<path class="st12" d="M726,850.3v8.2c0,0.6,0,1.3,0.1,1.7h-1.1l-0.1-1.2h0c-0.4,0.8-1.2,1.3-2.3,1.3c-1.6,0-2.9-1.4-2.9-3.4
			c0-2.3,1.4-3.6,3-3.6c1,0,1.7,0.5,2,1h0v-4H726z M724.7,856.2c0-0.2,0-0.4-0.1-0.5c-0.2-0.8-0.9-1.4-1.8-1.4c-1.3,0-2,1.1-2,2.6
			c0,1.4,0.7,2.5,2,2.5c0.8,0,1.6-0.6,1.8-1.5c0-0.2,0.1-0.3,0.1-0.5V856.2z"/>
		<path class="st12" d="M739,856.1c-0.1-1.3-0.2-2.9-0.2-4.1h0c-0.3,1.1-0.7,2.3-1.2,3.6l-1.7,4.6H735l-1.5-4.5
			c-0.5-1.3-0.8-2.5-1.1-3.7h0c0,1.2-0.1,2.7-0.2,4.2l-0.3,4.1h-1.2l0.7-9.4h1.6l1.6,4.6c0.4,1.2,0.7,2.2,0.9,3.2h0
			c0.2-1,0.6-2,1-3.2l1.7-4.6h1.6l0.6,9.4h-1.2L739,856.1z"/>
		<path class="st12" d="M746,860.3l-0.1-0.9h0c-0.4,0.5-1.1,1-2.1,1c-1.4,0-2.1-1-2.1-1.9c0-1.6,1.5-2.5,4.1-2.5v-0.1
			c0-0.6-0.2-1.6-1.5-1.6c-0.6,0-1.3,0.2-1.8,0.5l-0.3-0.8c0.6-0.4,1.4-0.6,2.2-0.6c2.1,0,2.6,1.4,2.6,2.8v2.5c0,0.6,0,1.2,0.1,1.6
			H746z M745.8,856.8c-1.3,0-2.9,0.2-2.9,1.5c0,0.8,0.5,1.2,1.1,1.2c0.9,0,1.5-0.6,1.6-1.1c0-0.1,0.1-0.3,0.1-0.4V856.8z"/>
		<path class="st12" d="M749,855.3c0-0.7,0-1.3-0.1-1.8h1.1l0.1,1.1h0c0.3-0.6,1.1-1.3,2.2-1.3c0.9,0,2.4,0.6,2.4,2.9v4h-1.2v-3.9
			c0-1.1-0.4-2-1.6-2c-0.8,0-1.4,0.6-1.7,1.3c-0.1,0.2-0.1,0.4-0.1,0.6v4.1H749V855.3z"/>
		<path class="st12" d="M760.5,860.3l-0.1-0.9h0c-0.4,0.5-1.1,1-2.1,1c-1.4,0-2.1-1-2.1-1.9c0-1.6,1.5-2.5,4.1-2.5v-0.1
			c0-0.6-0.2-1.6-1.5-1.6c-0.6,0-1.3,0.2-1.8,0.5l-0.3-0.8c0.6-0.4,1.4-0.6,2.2-0.6c2.1,0,2.6,1.4,2.6,2.8v2.5c0,0.6,0,1.2,0.1,1.6
			H760.5z M760.3,856.8c-1.3,0-2.9,0.2-2.9,1.5c0,0.8,0.5,1.2,1.1,1.2c0.9,0,1.5-0.6,1.6-1.1c0-0.1,0.1-0.3,0.1-0.4V856.8z"/>
		<path class="st12" d="M769.3,853.5c0,0.5-0.1,1-0.1,1.9v3.9c0,1.6-0.3,2.5-1,3.1c-0.7,0.6-1.6,0.8-2.5,0.8c-0.8,0-1.7-0.2-2.3-0.6
			l0.3-0.9c0.5,0.3,1.1,0.5,2,0.5c1.3,0,2.2-0.7,2.2-2.4v-0.8h0c-0.4,0.6-1.1,1.1-2.2,1.1c-1.7,0-2.9-1.4-2.9-3.3
			c0-2.3,1.5-3.6,3.1-3.6c1.2,0,1.8,0.6,2.1,1.2h0l0.1-1H769.3z M768.1,856.2c0-0.2,0-0.4-0.1-0.6c-0.2-0.7-0.8-1.3-1.7-1.3
			c-1.2,0-2,1-2,2.6c0,1.3,0.7,2.4,2,2.4c0.8,0,1.4-0.5,1.7-1.3c0.1-0.2,0.1-0.4,0.1-0.7V856.2z"/>
		<path class="st12" d="M772,857.1c0,1.7,1.1,2.4,2.3,2.4c0.9,0,1.4-0.2,1.9-0.3l0.2,0.9c-0.4,0.2-1.2,0.4-2.3,0.4
			c-2.1,0-3.3-1.4-3.3-3.4c0-2.1,1.2-3.7,3.2-3.7c2.2,0,2.8,1.9,2.8,3.2c0,0.3,0,0.4,0,0.6H772z M775.6,856.2c0-0.8-0.3-2-1.7-2
			c-1.3,0-1.8,1.1-1.9,2H775.6z"/>
		<path class="st12" d="M778.3,855.3c0-0.7,0-1.3-0.1-1.8h1.1l0.1,1.1h0c0.4-0.6,1-1.2,2.1-1.2c0.9,0,1.6,0.6,1.9,1.4h0
			c0.2-0.4,0.5-0.7,0.8-0.9c0.4-0.3,0.9-0.5,1.5-0.5c0.9,0,2.2,0.6,2.2,2.9v4h-1.2v-3.8c0-1.3-0.5-2.1-1.5-2.1
			c-0.7,0-1.2,0.5-1.5,1.1c-0.1,0.2-0.1,0.4-0.1,0.6v4.2h-1.2v-4.1c0-1.1-0.5-1.9-1.4-1.9c-0.8,0-1.3,0.6-1.5,1.2
			c-0.1,0.2-0.1,0.4-0.1,0.6v4.1h-1.2V855.3z"/>
		<path class="st12" d="M790.7,857.1c0,1.7,1.1,2.4,2.3,2.4c0.9,0,1.4-0.2,1.9-0.3l0.2,0.9c-0.4,0.2-1.2,0.4-2.3,0.4
			c-2.1,0-3.3-1.4-3.3-3.4c0-2.1,1.2-3.7,3.2-3.7c2.2,0,2.8,1.9,2.8,3.2c0,0.3,0,0.4,0,0.6H790.7z M794.3,856.2c0-0.8-0.3-2-1.7-2
			c-1.3,0-1.8,1.1-1.9,2H794.3z"/>
		<path class="st12" d="M797,855.3c0-0.7,0-1.3-0.1-1.8h1.1l0.1,1.1h0c0.3-0.6,1.1-1.3,2.2-1.3c0.9,0,2.4,0.6,2.4,2.9v4h-1.2v-3.9
			c0-1.1-0.4-2-1.6-2c-0.8,0-1.4,0.6-1.7,1.3c-0.1,0.2-0.1,0.4-0.1,0.6v4.1H797V855.3z"/>
		<path class="st12" d="M806.3,851.5v2h1.8v0.9h-1.8v3.7c0,0.8,0.2,1.3,0.9,1.3c0.3,0,0.6,0,0.7-0.1l0.1,0.9
			c-0.2,0.1-0.6,0.2-1.1,0.2c-0.6,0-1-0.2-1.3-0.5c-0.3-0.4-0.5-1-0.5-1.8v-3.7h-1v-0.9h1v-1.6L806.3,851.5z"/>
	</g>
</g>
</svg>
