<?xml version="1.0" encoding="utf-8"?>
<!-- Generator: Adobe Illustrator 23.0.4, SVG Export Plug-In . SVG Version: 6.00 Build 0)  -->
<svg version="1.1" id="Layer_1" xmlns="http://www.w3.org/2000/svg" xmlns:xlink="http://www.w3.org/1999/xlink" x="0px" y="0px"
	 viewBox="0 0 847 847" style="enable-background:new 0 0 847 847;" xml:space="preserve">
<style type="text/css">
	.st0{fill-opacity:0;stroke:#DDDDDD;}
	.st1{fill:#69B0BF;stroke:#DDDDDD;stroke-opacity:0;}
	.st2{font-family:'FranklinGothicURW-Boo';}
	.st3{font-size:11px;}
	.st4{enable-background:new    ;}
	.st5{font-size:9px;}
	.st6{font-size:10px;}
	.st7{font-size:8px;}
</style>
<g transform="translate(10,10)">
	<g>
		<circle class="st0" cx="413.5" cy="413.5" r="413.5"/>
		<circle class="st1" cx="212.4" cy="431.6" r="54.8"/>
		<circle class="st1" cx="468.7" cy="431.6" r="185"/>
		<circle class="st1" cx="265" cy="496.4" r="12.3"/>
		<circle class="st1" cx="207.8" cy="235.4" r="125"/>
		<circle class="st1" cx="260.3" cy="578.4" r="53.4"/>
		<circle class="st1" cx="348.3" cy="634.7" r="34.7"/>
		<circle class="st1" cx="418.3" cy="147.9" r="86.6"/>
		<circle class="st1" cx="189.5" cy="521.1" r="21.2"/>
		<circle class="st1" cx="455.7" cy="716.7" r="84"/>
		<circle class="st1" cx="527.8" cy="213.5" r="24.5"/>
		<circle class="st1" cx="566.8" cy="643.9" r="32.4"/>
		<circle class="st1" cx="267.9" cy="701.4" r="53.4"/>
		<circle class="st1" cx="97.2" cy="392.3" r="50.5"/>
		<circle class="st1" cx="140.1" cy="489.1" r="21.2"/>
		<circle class="st1" cx="597.5" cy="236.4" r="32.4"/>
		<circle class="st1" cx="173.3" cy="573.7" r="17.3"/>
		<circle class="st1" cx="679.1" cy="603.7" r="70.4"/>
		<circle class="st1" cx="337.8" cy="772.7" r="30"/>
		<circle class="st1" cx="653.4" cy="292" r="30"/>
		<circle class="st1" cx="696.2" cy="485.7" r="32.4"/>
		<circle class="st1" cx="78.3" cy="481.8" r="24.5"/>
		<circle class="st1" cx="699.1" cy="363.9" r="38.7"/>
		<circle class="st1" cx="185.6" cy="623.3" r="17.3"/>
		<circle class="st1" cx="185" cy="674.4" r="17.3"/>
		<circle class="st1" cx="142.8" cy="539" r="12.3"/>
		<circle class="st1" cx="533" cy="160.5" r="12.3"/>
		<circle class="st1" cx="127.4" cy="576.9" r="12.3"/>
		<circle class="st1" cx="762" cy="431" r="36.8"/>
		<circle class="st1" cx="570.4" cy="181.6" r="12.3"/>
		<circle class="st1" cx="304.2" cy="109.4" r="17.3"/>
		<circle class="st1" cx="573.2" cy="709.8" r="17.3"/>
		<circle class="st1" cx="658.5" cy="233.6" r="12.3"/>
		<circle class="st1" cx="96.9" cy="537" r="17.3"/>
		<circle class="st1" cx="582" cy="117.2" r="36.8"/>
		<circle class="st1" cx="125.2" cy="632.9" r="27.4"/>
		<circle class="st1" cx="627.1" cy="698.4" r="21.2"/>
		<circle class="st1" cx="69.2" cy="312.8" r="17.3"/>
		<circle class="st1" cx="717.1" cy="293.6" r="17.3"/>
		<circle class="st1" cx="622.4" cy="175" r="17.3"/>
		<circle class="st1" cx="520.6" cy="94.6" r="12.3"/>
	</g>
	<g>
		<text transform="matrix(1 0 0 1 197.7415 431.5746)" class="st2 st3">Street</text>
		<text transform="matrix(1 0 0 1 434.4395 431.5746)" class="st2 st3">Hotel or Motel</text>
		<text transform="matrix(1 0 0 1 243.813 516.2)" class="st2 st3">School</text>
		<text transform="matrix(1 0 0 1 183.9049 235.4323)" class="st2 st3">In Vehicle</text>
		<text transform="matrix(1 0 0 1 233.4169 578.3679)" class="st2 st3">Restaurant</text>
		<text transform="matrix(1 0 0 1 332.7444 634.7232)" class="st2 st3">Forest</text>
		<text transform="matrix(1 0 0 1 390.5091 147.902)" class="st2 st3">Parking Lot</text>
		<text transform="matrix(1 0 0 1 173.268 517.8433)" class="st4"><tspan x="0" y="0" class="st2 st5">Train</tspan><tspan x="0" y="10.8" class="st2 st5">Station</tspan></text>
		<text transform="matrix(1 0 0 1 422.9695 716.7447)" class="st2 st3">Outdoor Area</text>
		<text transform="matrix(1 0 0 1 519.2227 213.4745)" class="st2 st3">Bar</text>
		<text transform="matrix(1 0 0 1 545.0839 643.8813)" class="st2 st3">Alleyway</text>
		<text transform="matrix(1 0 0 1 240.0394 701.3982)" class="st2 st3">Public Park</text>
		<text transform="matrix(1 0 0 1 58.3405 392.2893)" class="st2 st3">Public Buildings</text>
		<text transform="matrix(1 0 0 1 122.9303 489.1271)" class="st2 st3">Casino</text>
		<text transform="matrix(1 0 0 1 584.3387 236.362)" class="st2 st3">Store</text>
		<text transform="matrix(1 0 0 1 157.6729 573.6921)" class="st2 st3">Beach</text>
		<text transform="matrix(1 0 0 1 642.0822 603.728)" class="st2 st3">Halfway House</text>
		<text transform="matrix(1 0 0 1 317.9471 772.66)" class="st2 st3">Hospital</text>
		<text transform="matrix(1 0 0 1 639.6997 287.9999)" class="st4"><tspan x="0" y="0" class="st2 st3">Office</tspan><tspan x="0" y="13.2" class="st2 st3">Building</tspan></text>
		<text transform="matrix(1 0 0 1 681.834 485.717)" class="st2 st3">Porch</text>
		<text transform="matrix(1 0 0 1 65.9874 486.3731)" class="st2 st3">Boat</text>
		<text transform="matrix(1 0 0 1 663.9972 363.8807)" class="st2 st3">Nursing Home</text>
		<text transform="matrix(1 0 0 1 173.2679 619.153)" class="st4"><tspan x="0" y="0" class="st2 st5">Detox</tspan><tspan x="0" y="10.8" class="st2 st5">Center</tspan></text>
		<text transform="matrix(1 0 0 1 152.5969 701.3986)" class="st2 st6">Cemetery</text>
		<text transform="matrix(1 0 0 1 114.1952 521.1431)" class="st4"><tspan x="0" y="0" class="st2 st7">Convenience</tspan><tspan x="0" y="9.6" class="st2 st7">Store</tspan></text>
		<text transform="matrix(1 0 0 1 514.3458 133.5303)" class="st4"><tspan x="0" y="0" class="st2 st5">Rehab </tspan><tspan x="0" y="10.8" class="st2 st5">House</tspan></text>
		<text transform="matrix(1 0 0 1 53.8095 596.2456)" class="st2 st6">Homeless Shelter</text>
		<text transform="matrix(1 0 0 1 743.6813 430.9673)" class="st2 st3">Garage</text>
		<text transform="matrix(1 0 0 1 558.5381 183.5955)" class="st2 st6">Farm</text>
		<text transform="matrix(1 0 0 1 252.7768 82.321)" class="st2 st3">Railroad Track</text>
		<text transform="matrix(1 0 0 1 555.9206 742.6459)" class="st4"><tspan x="0" y="0" class="st2 st3">College</tspan><tspan x="0" y="13.2" class="st2 st3">Campus</tspan></text>
		<text transform="matrix(1 0 0 1 647.1337 220.0691)" class="st2 st5">Church</text>
		<text transform="matrix(1 0 0 1 45.5699 560.1346)" class="st2 st6">Warehouse</text>
		<text transform="matrix(1 0 0 1 559.093 117.189)" class="st2 st3">Backyard</text>
		<text transform="matrix(1 0 0 1 96.4595 632.9151)" class="st2 st6">Gas Station</text>
		<text transform="matrix(1 0 0 1 613.0051 698.4412)" class="st2 st3">Stairs</text>
		<text transform="matrix(1 0 0 1 24.1918 295.4624)" class="st4"><tspan x="0" y="0" class="st2 st5">Health Care</tspan><tspan x="0" y="10.8" class="st2 st5">Facility</tspan></text>
		<text transform="matrix(1 0 0 1 737.8971 287.9999)" class="st4"><tspan x="0" y="0" class="st2 st3">Penal</tspan><tspan x="0" y="13.2" class="st2 st3">Institution</tspan></text>
		<text transform="matrix(1 0 0 1 608.6794 169.3423)" class="st4"><tspan x="0" y="0" class="st2 st5">Movie</tspan><tspan x="0" y="10.8" class="st2 st5">Theatre</tspan></text>
		<text transform="matrix(1 0 0 1 503.2746 80.4285)" class="st2 st3">River</text>
	</g>
</g>
</svg>
