<svg width="847" height="520" xmlns="http://www.w3.org/2000/svg" version="1.1"><g transform="translate(0, 10)"><g class="links" fill="none" stroke-opacity="0.7"><path d="M5,205.2380952380952C213,205.2380952380952,213,190.23809523809499,421,190.23809523809499" stroke-width="380.4761904761905" style="stroke: rgb(186, 187, 218);"></path><path d="M5,480.5238095238095C213,480.5238095238095,213,495.5238095238098,421,495.5238095238098" stroke-width="8.952380952380953" style="stroke: rgb(186, 187, 218);"></path><path d="M5,424.57142857142856C213,424.57142857142856,213,419.5714285714283,421,419.5714285714283" stroke-width="58.19047619047619" style="stroke: rgb(186, 187, 218);"></path><path d="M5,464.8571428571429C213,464.8571428571429,213,469.85714285714295,421,469.85714285714295" stroke-width="22.38095238095238" style="stroke: rgb(186, 187, 218);"></path><path d="M426,281.9999999999998C634,281.9999999999998,634,355.7142857142859,842,355.7142857142859" stroke-width="196.95238095238096" style="stroke: rgb(254, 217, 134);"></path><path d="M426,91.7619047619045C634,91.7619047619045,634,101.76190476190476,842,101.76190476190476" stroke-width="183.52380952380952" style="stroke: rgb(254, 217, 134);"></path><path d="M426,495.5238095238098C634,495.5238095238098,634,485.52380952380975,842,485.52380952380975" stroke-width="8.952380952380953" style="stroke: rgb(191, 225, 160);"></path><path d="M426,408.3809523809522C634,408.3809523809522,634,211.42857142857142,842,211.42857142857142" stroke-width="35.80952380952381" style="stroke: rgb(179, 205, 227);"></path><path d="M426,437.47619047619025C634,437.47619047619025,634,465.3809523809526,842,465.3809523809526" stroke-width="22.38095238095238" style="stroke: rgb(179, 205, 227);"></path><path d="M426,467.6190476190477C634,467.6190476190477,634,238.28571428571428,842,238.28571428571428" stroke-width="17.904761904761905" style="stroke: rgb(252, 180, 174);"></path><path d="M426,478.8095238095239C634,478.8095238095239,634,478.809523809524,842,478.809523809524" stroke-width="4.476190476190476" style="stroke: rgb(252, 180, 174);"></path></g><g class="nodes" font-family="Arial, Helvetica" font-size="10"><g><rect x="842" y="10" height="237.2380952380954" width="5" fill="#000"></rect><text x="836" y="128.6190476190477" dy="0.35em" text-anchor="end">Hospital</text></g><g><rect x="842" y="257.2380952380954" height="232.7619047619046" width="5" fill="#000"></rect><text x="836" y="373.6190476190477" dy="0.35em" text-anchor="end">Residence</text></g><g><rect x="421" y="491.0476190476193" height="8.952380952380963" width="5" fill="#000"></rect><text x="415" y="495.5238095238098" dy="0.35em" text-anchor="end">Asian</text></g><g><rect x="421" y="458.66666666666674" height="22.38095238095258" width="5" fill="#000"></rect><text x="415" y="469.857142857143" dy="0.35em" text-anchor="end">Black</text></g><g><rect x="421" y="390.47619047619025" height="58.19047619047649" width="5" fill="#000"></rect><text x="415" y="419.5714285714285" dy="0.35em" text-anchor="end">Hispanic</text></g><g><rect x="421" y="-2.5579538487363607e-13" height="380.4761904761905" width="5" fill="#000"></rect><text x="415" y="190.23809523809499" dy="0.35em" text-anchor="end">White</text></g><g><rect x="0" y="14.999999999999972" height="470.00000000000006" width="5" fill="#000"></rect><text x="11" y="250" dy="0.35em" text-anchor="start">Female</text></g></g></g></svg>