<svg width="847" height="520" xmlns="http://www.w3.org/2000/svg" version="1.1"><g transform="translate(0, 10)"><g class="links" fill="none" stroke-opacity="0.5"><path d="M4,151.0938428034052C212.75,151.0938428034052,212.75,126.09384280340524,421.5,126.09384280340524" stroke-width="252.18768560681053" style="stroke: rgb(191, 105, 105);"></path><path d="M4,298.0508810136606C212.75,298.0508810136606,212.75,377.65392991486834,421.5,377.65392991486834" stroke-width="41.726390813700256" style="stroke: rgb(191, 105, 105);"></path><path d="M4,332.76479904969307C212.75,332.76479904969307,212.75,431.25321718471594,421.5,431.25321718471594" stroke-width="27.70144525836468" style="stroke: rgb(191, 105, 105);"></path><path d="M4,347.61730350425654C212.75,347.61730350425654,212.75,465.8622055038607,421.5,465.8622055038607" stroke-width="2.003563650762225" style="stroke: rgb(191, 105, 105);"></path><path d="M4,349.4466442288655C212.75,349.4466442288655,212.75,478.6497723223126,421.5,478.6497723223126" stroke-width="1.6551177984557512" style="stroke: rgb(191, 105, 105);"></path><path d="M4,350.31775885963174C212.75,350.31775885963174,212.75,489.8693328053852,421.5,489.8693328053852" stroke-width="0.08711146307661849" style="stroke: rgb(191, 105, 105);"></path><path d="M4,350.40487032270835C212.75,350.40487032270835,212.75,499.9564442684618,421.5,499.9564442684618" stroke-width="0.08711146307661849" style="stroke: rgb(191, 105, 105);"></path><path d="M4,459.494159572362C212.75,459.494159572362,212.75,402.95980993862605,421.5,402.95980993862605" stroke-width="8.885369233815085" style="stroke: rgb(191, 162, 105);"></path><path d="M4,407.7499505048506C212.75,407.7499505048506,212.75,299.48921005741437,421.5,299.48921005741437" stroke-width="94.60304890120769" style="stroke: rgb(191, 162, 105);"></path><path d="M4,468.8150861215601C212.75,468.8150861215601,212.75,449.9821817461889,421.5,449.9821817461889" stroke-width="9.75648386458127" style="stroke: rgb(191, 162, 105);"></path><path d="M4,474.82577707384684C212.75,474.82577707384684,212.75,479.6515541476937,421.5,479.6515541476937" stroke-width="0.34844585230647396" style="stroke: rgb(191, 162, 105);"></path><path d="M4,474.1724411007722C212.75,474.1724411007722,212.75,467.3431003761632,421.5,467.3431003761632" stroke-width="0.9582260938428033" style="stroke: rgb(191, 162, 105);"></path><path d="M425.5,122.39160562264895C634.25,122.39160562264895,634.25,147.39160562264874,843,147.39160562264874" stroke-width="244.78321124529796" style="stroke: rgb(162, 191, 105);"></path><path d="M425.5,295.78697287665807C634.25,295.78697287665807,634.25,385.1445258364678,843,385.1445258364678" stroke-width="102.00752326272026" style="stroke: rgb(162, 191, 105);"></path><path d="M425.5,372.3836863987329C634.25,372.3836863987329,634.25,285.3761631360124,843,285.3761631360124" stroke-width="31.18590378142942" style="stroke: rgb(72, 142, 181);"></path><path d="M425.5,397.6895664224906C634.25,397.6895664224906,634.25,445.8612156008709,843,445.8612156008709" stroke-width="19.425856266085923" style="stroke: rgb(72, 142, 181);"></path><path d="M425.5,446.5412789546625C634.25,446.5412789546625,634.25,463.89328845773093,843,463.89328845773093" stroke-width="16.638289447634133" style="stroke: rgb(153, 105, 191);"></path><path d="M425.5,427.8123143931895C634.25,427.8123143931895,634.25,311.37893486438304,843,311.37893486438304" stroke-width="20.81963967531182" style="stroke: rgb(153, 105, 191);"></path><path d="M425.5,467.2559889130866C634.25,467.2559889130866,634.25,472.77865769154596,843,472.77865769154596" stroke-width="1.1324490199960404" style="stroke: rgb(105, 162, 191);"></path><path d="M425.5,465.7750940407841C634.25,465.7750940407841,634.25,322.70342506434343,843,322.70342506434343" stroke-width="1.8293407246089883" style="stroke: rgb(105, 162, 191);"></path><path d="M425.5,478.0835478123145C634.25,478.0835478123145,634.25,323.87942981587776,843,323.87942981587776" stroke-width="0.5226687784597109" style="stroke: rgb(105, 105, 191);"></path><path d="M425.5,479.0853296376957C634.25,479.0853296376957,634.25,474.0853296376953,843,474.0853296376953" stroke-width="1.4808948723025144" style="stroke: rgb(105, 105, 191);"></path><path d="M425.5,489.8693328053852C634.25,489.8693328053852,634.25,474.8693328053849,843,474.8693328053849" stroke-width="0.08711146307661849" style="stroke: rgb(162, 105, 191);"></path><path d="M425.5,499.9564442684618C634.25,499.9564442684618,634.25,474.9564442684615,843,474.9564442684615" stroke-width="0.08711146307661849" style="stroke: rgb(191, 105, 162);"></path></g><g class="nodes" font-family="Arial, Helvetica" font-size="10"><g><rect x="843" y="334.14076420510764" height="140.85923579489258" width="4" fill="#000"></rect><text x="837" y="404.57038210255394" dy="0.35em" text-anchor="end">Hospital</text></g><g><rect x="843" y="24.999999999999773" height="299.14076420510787" width="4" fill="#000"></rect><text x="837" y="174.5703821025537" dy="0.35em" text-anchor="end">Residence</text></g><g><rect x="421.5" y="464.8604236784796" height="2.9617897446050847" width="4" fill="#000"></rect><text x="415.5" y="466.34131855078215" dy="0.35em" text-anchor="end">Asian</text></g><g><rect x="421.5" y="417.4024945555336" height="37.457929122945984" width="4" fill="#000"></rect><text x="415.5" y="436.1314591170066" dy="0.35em" text-anchor="end">Black</text></g><g><rect x="421.5" y="489.8257770738469" height="0.08711146307655326" width="4" fill="#000"></rect><text x="415.5" y="489.86933280538517" dy="0.35em" text-anchor="end">Hawaiian</text></g><g><rect x="421.5" y="356.7907345080182" height="50.61176004751542" width="4" fill="#000"></rect><text x="415.5" y="382.0966145317759" dy="0.35em" text-anchor="end">Hispanic</text></g><g><rect x="421.5" y="499.91288853692345" height="0.08711146307655326" width="4" fill="#000"></rect><text x="415.5" y="499.9564442684617" dy="0.35em" text-anchor="end">Native American</text></g><g><rect x="421.5" y="477.8222134230847" height="2.003563650762203" width="4" fill="#000"></rect><text x="415.5" y="478.8239952484658" dy="0.35em" text-anchor="end">Unknown</text></g><g><rect x="421.5" y="-2.842170943040401e-14" height="346.79073450801826" width="4" fill="#000"></rect><text x="415.5" y="173.3953672540091" dy="0.35em" text-anchor="end">White</text></g><g><rect x="0" y="360.44842605424674" height="114.55157394575332" width="4" fill="#000"></rect><text x="10" y="417.72421302712337" dy="0.35em" text-anchor="start">Female</text></g><g><rect x="0" y="24.999999999999943" height="325.4484260542468" width="4" fill="#000"></rect><text x="10" y="187.72421302712334" dy="0.35em" text-anchor="start">Male</text></g></g></g></svg>