<svg width="847" height="520" xmlns="http://www.w3.org/2000/svg" version="1.1"><g transform="translate(0, 10)"><g class="links" fill="none" stroke-opacity="1"><path d="M5,186.6785079928952C213,186.6785079928952,213,166.6785079928953,421,166.6785079928953" stroke-width="333.3570159857904" style="stroke: rgb(149, 200, 195);"></path><path d="M5,386.03907637655414C213,386.03907637655414,213,376.03907637655436,421,376.03907637655436" stroke-width="65.36412078152753" style="stroke: rgb(149, 200, 195);"></path><path d="M5,446.50088809946715C213,446.50088809946715,213,446.5008880994672,421,446.5008880994672" stroke-width="55.5595026642984" style="stroke: rgb(149, 200, 195);"></path><path d="M5,475.91474245115455C213,475.91474245115455,213,485.9147424511543,421,485.9147424511543" stroke-width="3.2682060390763765" style="stroke: rgb(149, 200, 195);"></path><path d="M5,478.7744227353464C213,478.7744227353464,213,498.77442273534615,421,498.77442273534615" stroke-width="2.4511545293072823" style="stroke: rgb(149, 200, 195);"></path><path d="M426,276.98046181172305C634,276.98046181172305,634,368.16163410301925,842,368.16163410301925" stroke-width="112.75310834813499" style="stroke: rgb(254, 217, 166);"></path><path d="M426,110.30195381882783C634,110.30195381882783,634,125.30195381882737,842,125.30195381882737" stroke-width="220.60390763765542" style="stroke: rgb(254, 217, 166);"></path><path d="M426,363.78330373001796C634,363.78330373001796,634,256.03019538188244,842,256.03019538188244" stroke-width="40.852575488454704" style="stroke: rgb(179, 205, 227);"></path><path d="M426,396.4653641207817C634,396.4653641207817,634,436.79396092362316,842,436.79396092362316" stroke-width="24.511545293072825" style="stroke: rgb(179, 205, 227);"></path><path d="M426,430.9769094138544C634,430.9769094138544,634,288.7122557726462,842,288.7122557726462" stroke-width="24.511545293072825" style="stroke: rgb(251, 180, 174);"></path><path d="M426,458.7566607460036C634,458.7566607460036,634,464.57371225577236,842,464.57371225577236" stroke-width="31.04795737122558" style="stroke: rgb(251, 180, 174);"></path><path d="M426,485.9147424511543C634,485.9147424511543,634,481.73179396092337,842,481.73179396092337" stroke-width="3.2682060390763765" style="stroke: rgb(181, 173, 208);"></path><path d="M426,499.18294849023073C634,499.18294849023073,634,484.1829484902307,842,484.1829484902307" stroke-width="1.6341030195381883" style="stroke: rgb(191, 225, 160);"></path><path d="M426,497.95737122557705C634,497.95737122557705,634,301.3765541740671,842,301.3765541740671" stroke-width="0.8170515097690941" style="stroke: rgb(191, 225, 160);"></path></g><g class="nodes" font-family="Arial, Helvetica" font-size="10"><g><rect x="842" y="311.78507992895175" height="173.2149200710486" width="5" fill="#000"></rect><text x="836" y="398.39253996447604" dy="0.35em" text-anchor="end">Hospital</text></g><g><rect x="842" y="14.999999999999659" height="286.7850799289521" width="5" fill="#000"></rect><text x="836" y="158.3925399644757" dy="0.35em" text-anchor="end">Residence</text></g><g><rect x="421" y="497.5488454706925" height="2.4511545293073596" width="5" fill="#000"></rect><text x="415" y="498.7744227353462" dy="0.35em" text-anchor="end">Asian</text></g><g><rect x="421" y="418.721136767318" height="55.55950266429812" width="5" fill="#000"></rect><text x="415" y="446.50088809946703" dy="0.35em" text-anchor="end">Black</text></g><g><rect x="421" y="343.3570159857906" height="65.36412078152739" width="5" fill="#000"></rect><text x="415" y="376.0390763765543" dy="0.35em" text-anchor="end">Hispanic</text></g><g><rect x="421" y="484.2806394316161" height="3.2682060390764036" width="5" fill="#000"></rect><text x="415" y="485.9147424511543" dy="0.35em" text-anchor="end">Unknown</text></g><g><rect x="421" y="1.1368683772161603e-13" height="333.3570159857905" width="5" fill="#000"></rect><text x="415" y="166.67850799289536" dy="0.35em" text-anchor="end">White</text></g><g><rect x="0" y="20" height="460" width="5" fill="#000"></rect><text x="11" y="250" dy="0.35em" text-anchor="start">Male</text></g></g></g></svg>