<?xml version="1.0" encoding="utf-8"?>
<!-- Generator: Adobe Illustrator 23.0.4, SVG Export Plug-In . SVG Version: 6.00 Build 0)  -->
<svg version="1.1" id="Layer_1" xmlns="http://www.w3.org/2000/svg" xmlns:xlink="http://www.w3.org/1999/xlink" x="0px" y="0px"
	 viewBox="0 0 1018 552" style="enable-background:new 0 0 1018 552;" xml:space="preserve">
<style type="text/css">
	.st0{fill:#B1B0B1;}
	.st1{fill:none;stroke:#BABBDA;stroke-width:380.4762;}
	.st2{fill:none;stroke:#BABBDA;stroke-width:8.9524;}
	.st3{fill:none;stroke:#BABBDA;stroke-width:58.1905;}
	.st4{fill:none;stroke:#BABBDA;stroke-width:22.381;}
	.st5{fill:none;stroke:#FED9A6;stroke-width:196.9524;}
	.st6{fill:none;stroke:#FED9A6;stroke-width:183.5238;}
	.st7{fill:none;stroke:#BFE1A0;stroke-width:8.9524;}
	.st8{fill:none;stroke:#B3CDE3;stroke-width:35.8095;}
	.st9{fill:none;stroke:#B3CDE3;stroke-width:22.381;}
	.st10{fill:none;stroke:#FCB4AE;stroke-width:17.9048;}
	.st11{fill:none;stroke:#FCB4AE;stroke-width:4.4762;}
	.st12{enable-background:new    ;}
	.st13{fill:#C1D0B4;}
	.st14{fill:#CF9590;}
	.st15{fill:#9CB2C6;}
	.st16{fill:#C6A982;}
	.st17{fill:#9EA0B0;}
</style>
<rect x="894.7" y="292.9" class="st0" width="87" height="232.6"/>
<rect x="894.7" y="43.9" class="st0" width="87" height="241.1"/>
<g transform="translate(0, 10)">
	<g>
		<path class="st1" d="M46,230.2c208,0,208-15,416-15"/>
		<path class="st2" d="M46,505.5c208,0,208,15,416,15"/>
		<path class="st3" d="M46,449.6c208,0,208-5,416-5"/>
		<path class="st4" d="M46,489.9c208,0,208,5,416,5"/>
		<path class="st5" d="M467,307c208,0,208,73.7,416,73.7"/>
		<path class="st6" d="M467,116.8c208,0,208,10,416,10"/>
		<path class="st7" d="M467,520.5c208,0,208-10,416-10"/>
		<path class="st8" d="M467,433.4c208,0,208-197,416-197"/>
		<path class="st9" d="M467,462.5c208,0,208,27.9,416,27.9"/>
		<path class="st10" d="M467,492.6c208,0,208-229.3,416-229.3"/>
		<path class="st11" d="M467,503.8c208,0,208,0,416,0"/>
	</g>
	<g>
		<g>
			<g>
				<g class="st12">
					<path d="M917,146.1h0.6v3.7h5v-3.7h0.6v8.4h-0.6v-4.1h-5v4.1H917V146.1z"/>
					<path d="M930.4,151.5c0,1.7-0.9,3.2-2.7,3.2c-1.6,0-2.6-1.3-2.6-3.1c0-1.7,0.9-3.1,2.7-3.1
						C929.3,148.3,930.4,149.6,930.4,151.5z M925.7,151.5c0,1.4,0.8,2.6,2,2.6c1.3,0,2-1.1,2-2.6c0-1.4-0.7-2.6-2.1-2.6
						C926.3,148.9,925.7,150,925.7,151.5z"/>
					<path d="M931.9,152.8c0.2,0.8,0.8,1.2,1.7,1.2c1.1,0,1.5-0.5,1.5-1.2c0-0.7-0.3-1-1.6-1.3c-1.5-0.4-1.9-0.8-1.9-1.6
						c0-0.8,0.6-1.6,2-1.6s2,0.8,2.1,1.7H935c-0.1-0.5-0.5-1.1-1.5-1.1c-1,0-1.3,0.5-1.3,1c0,0.6,0.3,0.8,1.5,1.1
						c1.7,0.4,2.1,1,2.1,1.9c0,1.1-0.9,1.8-2.1,1.8c-1.4,0-2.1-0.7-2.3-1.8H931.9z"/>
					<path d="M937.8,153.6v3.3h-0.6v-6.9c0-0.5,0-1,0-1.5h0.6c0,0.2,0,0.6,0,1.1c0.4-0.7,1-1.2,2.1-1.2c1.4,0,2.4,1.2,2.4,3
						c0,2.2-1.2,3.3-2.6,3.3C938.7,154.6,938.1,154.1,937.8,153.6z M941.7,151.3c0-1.4-0.7-2.4-1.9-2.4c-1.5,0-2.1,0.9-2.1,2.5
						c0,1.6,0.5,2.6,2,2.6C941,154,941.7,153,941.7,151.3z"/>
					<path d="M943.8,145.6h0.6v1.2h-0.6V145.6z M943.8,148.5h0.6v6h-0.6V148.5z"/>
					<path d="M945.5,148.5h1.1v-1.9h0.6v1.9h1.4v0.6h-1.4v3.9c0,0.7,0.1,1.1,0.7,1.1c0.2,0,0.4,0,0.6-0.1v0.5
						c-0.2,0.1-0.5,0.1-0.7,0.1c-0.8,0-1.2-0.4-1.2-1.3V149h-1.1V148.5z"/>
					<path d="M954,153.3c0,0.5,0,0.9,0.1,1.1h-0.6c0-0.1-0.1-0.4-0.1-0.9c-0.2,0.4-0.7,1.1-2,1.1c-1.4,0-2-0.9-2-1.8
						c0-1.3,1-1.9,2.8-1.9c0.5,0,0.9,0,1.1,0v-0.6c0-0.6-0.2-1.4-1.5-1.4c-1.2,0-1.4,0.6-1.5,1.1h-0.6c0.1-0.7,0.5-1.7,2.1-1.7
						c1.4,0,2.1,0.6,2.1,1.9V153.3z M953.4,151.4c-0.2,0-0.8,0-1.2,0c-1.3,0-2.2,0.3-2.2,1.4c0,0.8,0.5,1.3,1.4,1.3
						c1.7,0,2-1.1,2-2.4V151.4z"/>
					<path d="M956,154.5v-8.8h0.6v8.8H956z"/>
				</g>
			</g>
		</g>
		<g>
			<g>
				<g class="st12">
					<path d="M908.9,405.5v-8.4h1c1.3,2,4.4,6.7,4.9,7.6h0c-0.1-1.2-0.1-2.4-0.1-3.8v-3.8h0.7v8.4h-0.9c-1.2-1.9-4.4-6.8-5-7.7h0
						c0.1,1.1,0,2.3,0,3.9v3.9H908.9z"/>
					<path d="M922.4,402.5c0,1.7-0.9,3.2-2.7,3.2c-1.6,0-2.6-1.3-2.6-3.1c0-1.7,0.9-3.1,2.7-3.1
						C921.4,399.3,922.4,400.6,922.4,402.5z M917.7,402.5c0,1.4,0.8,2.6,2,2.6c1.3,0,2-1.1,2-2.6c0-1.4-0.7-2.6-2.1-2.6
						C918.4,399.9,917.7,401,917.7,402.5z"/>
					<path d="M927.2,397.1h0.6v3.7h5v-3.7h0.6v8.4h-0.6v-4.1h-5v4.1h-0.6V397.1z"/>
					<path d="M940.6,402.5c0,1.7-0.9,3.2-2.7,3.2c-1.6,0-2.6-1.3-2.6-3.1c0-1.7,0.9-3.1,2.7-3.1
						C939.5,399.3,940.6,400.6,940.6,402.5z M935.9,402.5c0,1.4,0.8,2.6,2,2.6c1.3,0,2-1.1,2-2.6c0-1.4-0.7-2.6-2.1-2.6
						C936.5,399.9,935.9,401,935.9,402.5z"/>
					<path d="M942.1,403.8c0.2,0.8,0.8,1.2,1.7,1.2c1.1,0,1.5-0.5,1.5-1.2c0-0.7-0.3-1-1.6-1.3c-1.5-0.4-1.9-0.8-1.9-1.6
						c0-0.8,0.6-1.6,2-1.6s2,0.8,2.1,1.7h-0.6c-0.1-0.5-0.5-1.1-1.5-1.1c-1,0-1.3,0.5-1.3,1c0,0.6,0.3,0.8,1.5,1.1
						c1.7,0.4,2.1,1,2.1,1.9c0,1.1-0.9,1.8-2.1,1.8c-1.4,0-2.1-0.7-2.3-1.8H942.1z"/>
					<path d="M948,404.6v3.3h-0.6V401c0-0.5,0-1,0-1.5h0.6c0,0.2,0,0.6,0,1.1c0.4-0.7,1-1.2,2.1-1.2c1.4,0,2.4,1.2,2.4,3
						c0,2.2-1.2,3.3-2.6,3.3C948.8,405.6,948.3,405.2,948,404.6z M951.9,402.3c0-1.4-0.7-2.4-1.9-2.4c-1.5,0-2.1,0.9-2.1,2.5
						c0,1.6,0.5,2.6,2,2.6C951.2,405.1,951.9,404,951.9,402.3z"/>
					<path d="M954,396.6h0.6v1.2H954V396.6z M954,399.5h0.6v6H954V399.5z"/>
					<path d="M955.7,399.5h1.1v-1.9h0.6v1.9h1.4v0.6h-1.4v3.9c0,0.7,0.1,1.1,0.7,1.1c0.2,0,0.4,0,0.6-0.1v0.5
						c-0.2,0.1-0.5,0.1-0.7,0.1c-0.8,0-1.2-0.4-1.2-1.3V400h-1.1V399.5z"/>
					<path d="M964.2,404.3c0,0.5,0,0.9,0.1,1.1h-0.6c0-0.1-0.1-0.4-0.1-0.9c-0.2,0.4-0.7,1.1-2,1.1c-1.4,0-2-0.9-2-1.8
						c0-1.3,1-1.9,2.8-1.9c0.5,0,0.9,0,1.1,0v-0.6c0-0.6-0.2-1.4-1.5-1.4c-1.2,0-1.4,0.6-1.5,1.1h-0.6c0.1-0.7,0.5-1.7,2.1-1.7
						c1.4,0,2.1,0.6,2.1,1.9V404.3z M963.6,402.4c-0.2,0-0.8,0-1.2,0c-1.3,0-2.2,0.3-2.2,1.4c0,0.8,0.5,1.3,1.4,1.3
						c1.7,0,2-1.1,2-2.4V402.4z"/>
					<path d="M966.1,405.5v-8.8h0.6v8.8H966.1z"/>
				</g>
			</g>
		</g>
		<g>
			<rect x="462" y="516" class="st13" width="5" height="9"/>
			<g>
				<g class="st12">
					<path d="M433,521.1L432,524h-0.7l3.1-8.4h0.8l3.2,8.4h-0.7l-1.1-2.9H433z M436.3,520.5c-0.9-2.5-1.4-3.7-1.6-4.3h0
						c-0.2,0.6-0.7,2.1-1.5,4.3H436.3z"/>
					<path d="M439.7,522.4c0.2,0.8,0.8,1.2,1.7,1.2c1.1,0,1.5-0.5,1.5-1.2c0-0.7-0.3-1-1.6-1.3c-1.5-0.4-1.9-0.8-1.9-1.6
						c0-0.8,0.6-1.6,2-1.6c1.4,0,2,0.8,2.1,1.7h-0.6c-0.1-0.5-0.5-1.1-1.5-1.1c-1,0-1.3,0.5-1.3,1c0,0.6,0.3,0.8,1.5,1.1
						c1.7,0.4,2.1,1,2.1,1.9c0,1.1-0.9,1.8-2.1,1.8c-1.4,0-2.1-0.7-2.3-1.8H439.7z"/>
					<path d="M445,515.2h0.6v1.2H445V515.2z M445,518h0.6v6H445V518z"/>
					<path d="M451.7,522.9c0,0.5,0,0.9,0.1,1.1h-0.6c0-0.1-0.1-0.4-0.1-0.9c-0.2,0.4-0.7,1.1-2,1.1c-1.4,0-2-0.9-2-1.8
						c0-1.3,1-1.9,2.8-1.9c0.5,0,0.9,0,1.1,0v-0.6c0-0.6-0.2-1.4-1.5-1.4c-1.2,0-1.4,0.6-1.5,1.1h-0.6c0.1-0.7,0.5-1.7,2.1-1.7
						c1.4,0,2.1,0.6,2.1,1.9V522.9z M451.1,521c-0.2,0-0.8,0-1.2,0c-1.3,0-2.2,0.3-2.2,1.4c0,0.8,0.5,1.3,1.4,1.3c1.7,0,2-1.1,2-2.4
						V521z"/>
					<path d="M453.7,519.5c0-0.5,0-1,0-1.5h0.6c0,0.2,0,1,0,1.1c0.3-0.6,0.8-1.3,2-1.3c1.1,0,2,0.6,2,2.3v3.9h-0.6v-3.8
						c0-1.1-0.4-1.8-1.5-1.8c-1.4,0-1.9,1.2-1.9,2.5v3.1h-0.6V519.5z"/>
				</g>
			</g>
		</g>
		<g>
			<rect x="462" y="483.7" class="st14" width="5" height="22.4"/>
			<g>
				<g class="st12">
					<path d="M432.7,490h2.9c1.6,0,2.5,0.9,2.5,2.1c0,1-0.6,1.6-1.3,1.8c0.6,0.2,1.6,0.8,1.6,2.1c0,1.7-1.3,2.4-2.7,2.4h-3V490z
						 M435.4,493.6c1.5,0,2-0.5,2-1.5c0-0.8-0.6-1.5-1.8-1.5h-2.3v3H435.4z M433.4,497.8h2.4c1.1,0,2-0.6,2-1.8
						c0-1.1-0.7-1.8-2.4-1.8h-2V497.8z"/>
					<path d="M440.1,498.4v-8.8h0.6v8.8H440.1z"/>
					<path d="M446.7,497.2c0,0.5,0,0.9,0.1,1.1h-0.6c0-0.1-0.1-0.4-0.1-0.9c-0.2,0.4-0.7,1.1-2,1.1c-1.4,0-2-0.9-2-1.8
						c0-1.3,1-1.9,2.8-1.9c0.5,0,0.9,0,1.1,0v-0.6c0-0.6-0.2-1.4-1.5-1.4c-1.2,0-1.4,0.6-1.5,1.1h-0.6c0.1-0.7,0.5-1.7,2.1-1.7
						c1.4,0,2.1,0.6,2.1,1.9V497.2z M446.1,495.3c-0.2,0-0.8,0-1.2,0c-1.3,0-2.2,0.3-2.2,1.4c0,0.8,0.5,1.3,1.4,1.3
						c1.7,0,2-1.1,2-2.4V495.3z"/>
					<path d="M453.1,496.6c-0.3,1.1-1,1.9-2.3,1.9c-1.5,0-2.6-1.1-2.6-3.1c0-1.6,0.9-3.2,2.6-3.2c1.5,0,2.1,1.1,2.3,1.9h-0.6
						c-0.2-0.7-0.6-1.4-1.7-1.4c-1.3,0-2,1.1-2,2.6c0,1.4,0.7,2.6,1.9,2.6c0.9,0,1.4-0.4,1.7-1.3H453.1z"/>
					<path d="M455.1,495.5c0.6-0.6,2.2-2.3,3-3.1h0.8l-2.4,2.4l2.7,3.6h-0.7l-2.4-3.2l-1,1v2.3h-0.6v-8.8h0.6V495.5z"/>
				</g>
			</g>
		</g>
		<g>
			<rect x="462" y="415.5" class="st15" width="5" height="58.2"/>
			<g>
				<g class="st12">
					<path d="M418.8,439.7h0.6v3.7h5v-3.7h0.6v8.4h-0.6v-4.1h-5v4.1h-0.6V439.7z"/>
					<path d="M427.3,439.2h0.6v1.2h-0.6V439.2z M427.3,442.1h0.6v6h-0.6V442.1z"/>
					<path d="M429.9,446.4c0.2,0.8,0.8,1.2,1.7,1.2c1.1,0,1.5-0.5,1.5-1.2c0-0.7-0.3-1-1.6-1.3c-1.5-0.4-1.9-0.8-1.9-1.6
						c0-0.8,0.6-1.6,2-1.6s2,0.8,2.1,1.7H433c-0.1-0.5-0.5-1.1-1.5-1.1c-1,0-1.3,0.5-1.3,1c0,0.6,0.3,0.8,1.5,1.1
						c1.7,0.4,2.1,1,2.1,1.9c0,1.1-0.9,1.8-2.1,1.8c-1.4,0-2.1-0.7-2.3-1.8H429.9z"/>
					<path d="M435.8,447.2v3.3h-0.6v-6.9c0-0.5,0-1,0-1.5h0.6c0,0.2,0,0.6,0,1.1c0.4-0.7,1-1.2,2.1-1.2c1.4,0,2.4,1.2,2.4,3
						c0,2.2-1.2,3.3-2.6,3.3C436.7,448.2,436.1,447.7,435.8,447.2z M439.7,444.9c0-1.4-0.7-2.4-1.9-2.4c-1.5,0-2.1,0.9-2.1,2.5
						c0,1.6,0.5,2.6,2,2.6C439,447.7,439.7,446.6,439.7,444.9z"/>
					<path d="M445.9,446.9c0,0.5,0,0.9,0.1,1.1h-0.6c0-0.1-0.1-0.4-0.1-0.9c-0.2,0.4-0.7,1.1-2,1.1c-1.4,0-2-0.9-2-1.8
						c0-1.3,1-1.9,2.8-1.9c0.5,0,0.9,0,1.1,0v-0.6c0-0.6-0.2-1.4-1.5-1.4c-1.2,0-1.4,0.6-1.5,1.1h-0.6c0.1-0.7,0.5-1.7,2.1-1.7
						c1.4,0,2.1,0.6,2.1,1.9V446.9z M445.4,445c-0.2,0-0.8,0-1.2,0c-1.3,0-2.2,0.3-2.2,1.4c0,0.8,0.5,1.3,1.4,1.3c1.7,0,2-1.1,2-2.4
						V445z"/>
					<path d="M447.9,443.6c0-0.5,0-1,0-1.5h0.6c0,0.2,0,1,0,1.1c0.3-0.6,0.8-1.3,2-1.3c1.1,0,2,0.6,2,2.3v3.9h-0.6v-3.8
						c0-1.1-0.4-1.8-1.5-1.8c-1.4,0-1.9,1.2-1.9,2.5v3.1h-0.6V443.6z"/>
					<path d="M454.5,439.2h0.6v1.2h-0.6V439.2z M454.5,442.1h0.6v6h-0.6V442.1z"/>
					<path d="M461.5,446.3c-0.3,1.1-1,1.9-2.3,1.9c-1.5,0-2.6-1.1-2.6-3.1c0-1.6,0.9-3.2,2.6-3.2c1.5,0,2.1,1.1,2.3,1.9h-0.6
						c-0.2-0.7-0.6-1.4-1.7-1.4c-1.3,0-2,1.1-2,2.6c0,1.4,0.7,2.6,1.9,2.6c0.9,0,1.4-0.4,1.7-1.3H461.5z"/>
				</g>
			</g>
		</g>
		<g>
			<rect x="462" y="25" class="st16" width="5" height="380.5"/>
			<g>
				<g class="st12">
					<path d="M433.1,218.7l-2.3-8.4h0.7c0.6,2,1.8,6.7,2,7.6h0c0.2-0.8,1.5-5.4,2.1-7.6h0.7c0.6,2.1,1.9,7,2,7.6h0
						c0.3-1.2,1.7-5.6,2.2-7.6h0.7l-2.6,8.4h-0.7c-0.6-2-1.9-6.8-2-7.6h0c-0.2,1.1-1.5,5.5-2.1,7.6H433.1z"/>
					<path d="M443.1,209.9v3.8c0.3-0.6,0.9-1.2,2-1.2c0.9,0,2,0.4,2,2.3v3.8h-0.6V215c0-1.2-0.5-1.9-1.5-1.9c-1.2,0-1.9,0.7-1.9,2.2
						v3.3h-0.6v-8.8H443.1z"/>
					<path d="M449.1,209.9h0.6v1.2h-0.6V209.9z M449.1,212.7h0.6v6h-0.6V212.7z"/>
					<path d="M450.8,212.7h1.1v-1.9h0.6v1.9h1.4v0.6h-1.4v3.9c0,0.7,0.1,1.1,0.7,1.1c0.2,0,0.4,0,0.6-0.1v0.5
						c-0.2,0.1-0.5,0.1-0.7,0.1c-0.8,0-1.2-0.4-1.2-1.3v-4.2h-1.1V212.7z"/>
					<path d="M455.3,215.8c0,1.5,0.8,2.5,1.9,2.5c1.1,0,1.5-0.6,1.7-1.1h0.6c-0.3,0.8-0.9,1.7-2.4,1.7c-1.8,0-2.5-1.6-2.5-3.1
						c0-1.7,0.9-3.2,2.6-3.2c1.8,0,2.4,1.6,2.4,2.7c0,0.2,0,0.3,0,0.5H455.3z M459.1,215.3c0-1.2-0.7-2.1-1.8-2.1
						c-1.2,0-1.8,0.9-1.9,2.1H459.1z"/>
				</g>
			</g>
		</g>
		<g>
			<rect x="41" y="40" class="st17" width="5" height="470"/>
			<g>
				<g class="st12">
					<path d="M53.2,270.1h5.1v0.6h-4.4v3.2H58v0.6h-4.2v4h-0.6V270.1z"/>
					<path d="M59.7,275.6c0,1.5,0.8,2.5,1.9,2.5c1.1,0,1.5-0.6,1.7-1.1H64c-0.3,0.8-0.9,1.7-2.4,1.7c-1.8,0-2.5-1.6-2.5-3.1
						c0-1.7,0.9-3.2,2.6-3.2c1.8,0,2.4,1.6,2.4,2.7c0,0.2,0,0.3,0,0.5H59.7z M63.5,275c0-1.2-0.7-2.1-1.8-2.1
						c-1.2,0-1.8,0.9-1.9,2.1H63.5z"/>
					<path d="M65.6,274.1c0-0.5,0-1.1,0-1.5h0.6c0,0.2,0,0.7,0,1.1c0.3-0.6,0.8-1.2,1.8-1.2c0.8,0,1.5,0.4,1.7,1.2
						c0.3-0.6,0.9-1.2,2-1.2c0.9,0,1.9,0.5,1.9,2.2v3.9H73v-3.9c0-0.8-0.3-1.7-1.4-1.7c-1.2,0-1.7,0.9-1.7,2.1v3.5h-0.6v-3.9
						c0-0.9-0.3-1.7-1.4-1.7c-1.2,0-1.7,1-1.7,2.3v3.3h-0.6V274.1z"/>
					<path d="M79.6,277.4c0,0.5,0,0.9,0.1,1.1h-0.6c0-0.1-0.1-0.4-0.1-0.9c-0.2,0.4-0.7,1.1-2,1.1c-1.4,0-2-0.9-2-1.8
						c0-1.3,1-1.9,2.8-1.9c0.5,0,0.9,0,1.1,0v-0.6c0-0.6-0.2-1.4-1.5-1.4c-1.2,0-1.4,0.6-1.5,1.1h-0.6c0.1-0.7,0.5-1.7,2.1-1.7
						c1.4,0,2.1,0.6,2.1,1.9V277.4z M79.1,275.4c-0.2,0-0.8,0-1.2,0c-1.3,0-2.2,0.3-2.2,1.4c0,0.8,0.5,1.3,1.4,1.3
						c1.7,0,2-1.1,2-2.4V275.4z"/>
					<path d="M81.6,278.5v-8.8h0.6v8.8H81.6z"/>
					<path d="M84.3,275.6c0,1.5,0.8,2.5,1.9,2.5c1.1,0,1.5-0.6,1.7-1.1h0.6c-0.3,0.8-0.9,1.7-2.4,1.7c-1.8,0-2.5-1.6-2.5-3.1
						c0-1.7,0.9-3.2,2.6-3.2c1.8,0,2.4,1.6,2.4,2.7c0,0.2,0,0.3,0,0.5H84.3z M88.1,275c0-1.2-0.7-2.1-1.8-2.1
						c-1.2,0-1.8,0.9-1.9,2.1H88.1z"/>
				</g>
			</g>
		</g>
	</g>
</g>
</svg>
