<?xml version="1.0" encoding="utf-8"?>
<!-- Generator: Adobe Illustrator 23.0.4, SVG Export Plug-In . SVG Version: 6.00 Build 0)  -->
<svg version="1.1" id="Layer_1" xmlns="http://www.w3.org/2000/svg" xmlns:xlink="http://www.w3.org/1999/xlink" x="0px" y="0px"
	 viewBox="0 0 996.7 569.9" style="enable-background:new 0 0 996.7 569.9;" xml:space="preserve">
<style type="text/css">
	.st0{fill:#B1B0B1;}
	.st1{fill:none;stroke:#95C8C3;stroke-width:333.357;}
	.st2{fill:none;stroke:#95C8C3;stroke-width:65.3641;}
	.st3{fill:none;stroke:#95C8C3;stroke-width:55.5595;}
	.st4{fill:none;stroke:#95C8C3;stroke-width:3.2682;}
	.st5{fill:none;stroke:#95C8C3;stroke-width:2.4512;}
	.st6{fill:none;stroke:#FED9A6;stroke-width:112.7531;}
	.st7{fill:none;stroke:#FED9A6;stroke-width:220.6039;}
	.st8{fill:none;stroke:#B3CDE3;stroke-width:40.8526;}
	.st9{fill:none;stroke:#B3CDE3;stroke-width:24.5115;}
	.st10{fill:none;stroke:#FBB4AE;stroke-width:24.5115;}
	.st11{fill:none;stroke:#FBB4AE;stroke-width:31.048;}
	.st12{fill:none;stroke:#B5ADD0;stroke-width:3.2682;}
	.st13{fill:none;stroke:#BFE1A0;stroke-width:1.6341;}
	.st14{fill:none;stroke:#BFE1A0;stroke-width:0.8171;}
	.st15{enable-background:new    ;}
	.st16{fill:#C1D0B4;}
	.st17{fill:#CF9590;}
	.st18{fill:#9CB2C6;}
	.st19{fill:#9690AD;}
	.st20{fill:#C6A982;}
	.st21{fill:#7CA7A2;}
</style>
<rect x="871.7" y="352.1" class="st0" width="87" height="174.7"/>
<rect x="871.7" y="52.9" class="st0" width="87" height="286.5"/>
<g transform="translate(0, 10)">
	<g>
		<path class="st1" d="M25.6,214.8c208,0,208-20,416-20"/>
		<path class="st2" d="M25.6,414.1c208,0,208-10,416-10"/>
		<path class="st3" d="M25.6,474.6c208,0,208,0,416,0"/>
		<path class="st4" d="M25.6,504c208,0,208,10,416,10"/>
		<path class="st5" d="M25.6,506.8c208,0,208,20,416,20"/>
		<path class="st6" d="M446.6,305.1c208,0,208,91.2,416,91.2"/>
		<path class="st7" d="M446.6,138.4c208,0,208,15,416,15"/>
		<path class="st8" d="M446.6,391.9c208,0,208-107.8,416-107.8"/>
		<path class="st9" d="M446.6,424.5c208,0,208,40.3,416,40.3"/>
		<path class="st10" d="M446.6,459.1c208,0,208-142.3,416-142.3"/>
		<path class="st11" d="M446.6,486.8c208,0,208,5.8,416,5.8"/>
		<path class="st12" d="M446.6,514c208,0,208-4.2,416-4.2"/>
		<path class="st13" d="M446.6,527.3c208,0,208-15,416-15"/>
		<path class="st14" d="M446.6,526c208,0,208-196.6,416-196.6"/>
	</g>
	<g>
		<g>
			<g>
				<g class="st15">
					<path d="M890.9,428.4h0.6v3.7h5v-3.7h0.6v8.4h-0.6v-4.1h-5v4.1h-0.6V428.4z"/>
					<path d="M904.2,433.8c0,1.7-0.9,3.2-2.7,3.2c-1.6,0-2.6-1.3-2.6-3.1c0-1.7,0.9-3.1,2.7-3.1
						C903.2,430.7,904.2,431.9,904.2,433.8z M899.5,433.8c0,1.4,0.8,2.6,2,2.6c1.3,0,2-1.1,2-2.6c0-1.4-0.7-2.6-2.1-2.6
						C900.2,431.2,899.5,432.4,899.5,433.8z"/>
					<path d="M905.7,435.1c0.2,0.8,0.8,1.2,1.7,1.2c1.1,0,1.5-0.5,1.5-1.2c0-0.7-0.3-1-1.6-1.3c-1.5-0.4-1.9-0.8-1.9-1.6
						c0-0.8,0.6-1.6,2-1.6s2,0.8,2.1,1.7h-0.6c-0.1-0.5-0.5-1.1-1.5-1.1c-1,0-1.3,0.5-1.3,1c0,0.6,0.3,0.8,1.5,1.1
						c1.7,0.4,2.1,1,2.1,1.9c0,1.1-0.9,1.8-2.1,1.8c-1.4,0-2.1-0.7-2.3-1.8H905.7z"/>
					<path d="M911.6,435.9v3.3H911v-6.9c0-0.5,0-1,0-1.5h0.6c0,0.2,0,0.6,0,1.1c0.4-0.7,1-1.2,2.1-1.2c1.4,0,2.4,1.2,2.4,3
						c0,2.2-1.2,3.3-2.6,3.3C912.5,436.9,911.9,436.5,911.6,435.9z M915.5,433.7c0-1.4-0.7-2.4-1.9-2.4c-1.5,0-2.1,0.9-2.1,2.5
						c0,1.6,0.5,2.6,2,2.6C914.8,436.4,915.5,435.3,915.5,433.7z"/>
					<path d="M917.6,428h0.6v1.2h-0.6V428z M917.6,430.8h0.6v6h-0.6V430.8z"/>
					<path d="M919.3,430.8h1.1v-1.9h0.6v1.9h1.4v0.6H921v3.9c0,0.7,0.1,1.1,0.7,1.1c0.2,0,0.4,0,0.6-0.1v0.5
						c-0.2,0.1-0.5,0.1-0.7,0.1c-0.8,0-1.2-0.4-1.2-1.3v-4.2h-1.1V430.8z"/>
					<path d="M927.8,435.7c0,0.5,0,0.9,0.1,1.1h-0.6c0-0.1-0.1-0.4-0.1-0.9c-0.2,0.4-0.7,1.1-2,1.1c-1.4,0-2-0.9-2-1.8
						c0-1.3,1-1.9,2.8-1.9c0.5,0,0.9,0,1.1,0v-0.6c0-0.6-0.2-1.4-1.5-1.4c-1.2,0-1.4,0.6-1.5,1.1h-0.6c0.1-0.7,0.5-1.7,2.1-1.7
						c1.4,0,2.1,0.6,2.1,1.9V435.7z M927.2,433.7c-0.2,0-0.8,0-1.2,0c-1.3,0-2.2,0.3-2.2,1.4c0,0.8,0.5,1.3,1.4,1.3
						c1.7,0,2-1.1,2-2.4V433.7z"/>
					<path d="M929.8,436.8V428h0.6v8.8H929.8z"/>
				</g>
			</g>
		</g>
		<g>
			<g>
				<g class="st15">
					<path d="M887.9,194.8v-9.1h1c1.3,2.2,4.4,7.3,4.9,8.3h0c-0.1-1.3-0.1-2.7-0.1-4.2v-4.1h0.7v9.1h-0.9c-1.2-2.1-4.4-7.4-5-8.4h0
						c0.1,1.2,0,2.5,0,4.2v4.2H887.9z"/>
					<path d="M901.4,191.5c0,1.8-0.9,3.4-2.7,3.4c-1.6,0-2.6-1.4-2.6-3.4c0-1.9,0.9-3.4,2.7-3.4
						C900.3,188.1,901.4,189.4,901.4,191.5z M896.7,191.5c0,1.6,0.8,2.8,2,2.8c1.3,0,2-1.2,2-2.8c0-1.5-0.7-2.8-2.1-2.8
						C897.3,188.7,896.7,189.9,896.7,191.5z"/>
					<path d="M906.2,185.6h0.6v4h5v-4h0.6v9.1h-0.6v-4.5h-5v4.5h-0.6V185.6z"/>
					<path d="M919.5,191.5c0,1.8-0.9,3.4-2.7,3.4c-1.6,0-2.6-1.4-2.6-3.4c0-1.9,0.9-3.4,2.7-3.4
						C918.5,188.1,919.5,189.4,919.5,191.5z M914.8,191.5c0,1.6,0.8,2.8,2,2.8c1.3,0,2-1.2,2-2.8c0-1.5-0.7-2.8-2.1-2.8
						C915.5,188.7,914.8,189.9,914.8,191.5z"/>
					<path d="M921,193c0.2,0.8,0.8,1.4,1.7,1.4c1.1,0,1.5-0.5,1.5-1.3c0-0.7-0.3-1.1-1.6-1.5c-1.5-0.4-1.9-0.9-1.9-1.8
						c0-0.9,0.6-1.7,2-1.7s2,0.9,2.1,1.8h-0.6c-0.1-0.5-0.5-1.2-1.5-1.2c-1,0-1.3,0.6-1.3,1.1c0,0.6,0.3,0.9,1.5,1.2
						c1.7,0.4,2.1,1,2.1,2c0,1.2-0.9,1.9-2.1,1.9c-1.4,0-2.1-0.8-2.3-2H921z"/>
					<path d="M926.9,193.8v3.6h-0.6v-7.5c0-0.5,0-1.1,0-1.6h0.6c0,0.2,0,0.6,0,1.2c0.4-0.8,1-1.3,2.1-1.3c1.4,0,2.4,1.3,2.4,3.3
						c0,2.4-1.2,3.6-2.6,3.6C927.8,194.9,927.2,194.4,926.9,193.8z M930.8,191.3c0-1.5-0.7-2.7-1.9-2.7c-1.5,0-2.1,1-2.1,2.8
						c0,1.8,0.5,2.8,2,2.8C930.1,194.3,930.8,193.1,930.8,191.3z"/>
					<path d="M932.9,185.1h0.6v1.3h-0.6V185.1z M932.9,188.2h0.6v6.5h-0.6V188.2z"/>
					<path d="M934.6,188.2h1.1v-2h0.6v2h1.4v0.6h-1.4v4.2c0,0.7,0.1,1.1,0.7,1.1c0.2,0,0.4,0,0.6-0.1v0.6c-0.2,0.1-0.5,0.1-0.7,0.1
						c-0.8,0-1.2-0.4-1.2-1.5v-4.5h-1.1V188.2z"/>
					<path d="M943.1,193.5c0,0.6,0,1,0.1,1.2h-0.6c0-0.2-0.1-0.4-0.1-1c-0.2,0.5-0.7,1.2-2,1.2c-1.4,0-2-1-2-2c0-1.4,1-2.1,2.8-2.1
						c0.5,0,0.9,0,1.1,0v-0.7c0-0.7-0.2-1.5-1.5-1.5c-1.2,0-1.4,0.7-1.5,1.2h-0.6c0.1-0.7,0.5-1.8,2.1-1.8c1.4,0,2.1,0.6,2.1,2.1
						V193.5z M942.5,191.4c-0.2,0-0.8,0-1.2,0c-1.3,0-2.2,0.4-2.2,1.5c0,0.8,0.5,1.4,1.4,1.4c1.7,0,2-1.2,2-2.7V191.4z"/>
					<path d="M945.1,194.8v-9.6h0.6v9.6H945.1z"/>
				</g>
			</g>
		</g>
		<g>
			<rect x="441.6" y="525.6" class="st16" width="5" height="2.5"/>
			<g>
				<g class="st15">
					<path d="M409.6,527.4l-1.1,2.9h-0.7l3.1-8.4h0.8l3.2,8.4h-0.7l-1.1-2.9H409.6z M412.9,526.8c-0.9-2.5-1.4-3.7-1.6-4.3h0
						c-0.2,0.6-0.7,2.1-1.5,4.3H412.9z"/>
					<path d="M416.3,528.7c0.2,0.8,0.8,1.2,1.7,1.2c1.1,0,1.5-0.5,1.5-1.2c0-0.7-0.3-1-1.6-1.3c-1.5-0.4-1.9-0.8-1.9-1.6
						c0-0.8,0.6-1.6,2-1.6c1.4,0,2,0.8,2.1,1.7h-0.6c-0.1-0.5-0.5-1.1-1.5-1.1c-1,0-1.3,0.5-1.3,1c0,0.6,0.3,0.8,1.5,1.1
						c1.7,0.4,2.1,1,2.1,1.9c0,1.1-0.9,1.8-2.1,1.8c-1.4,0-2.1-0.7-2.3-1.8H416.3z"/>
					<path d="M421.6,521.5h0.6v1.2h-0.6V521.5z M421.6,524.4h0.6v6h-0.6V524.4z"/>
					<path d="M428.3,529.2c0,0.5,0,0.9,0.1,1.1h-0.6c0-0.1-0.1-0.4-0.1-0.9c-0.2,0.4-0.7,1.1-2,1.1c-1.4,0-2-0.9-2-1.8
						c0-1.3,1-1.9,2.8-1.9c0.5,0,0.9,0,1.1,0v-0.6c0-0.6-0.2-1.4-1.5-1.4c-1.2,0-1.4,0.6-1.5,1.1H424c0.1-0.7,0.5-1.7,2.1-1.7
						c1.4,0,2.1,0.6,2.1,1.9V529.2z M427.7,527.3c-0.2,0-0.8,0-1.2,0c-1.3,0-2.2,0.3-2.2,1.4c0,0.8,0.5,1.3,1.4,1.3
						c1.7,0,2-1.1,2-2.4V527.3z"/>
					<path d="M430.2,525.9c0-0.5,0-1,0-1.5h0.6c0,0.2,0,1,0,1.1c0.3-0.6,0.8-1.3,2-1.3c1.1,0,2,0.6,2,2.3v3.9h-0.6v-3.8
						c0-1.1-0.4-1.8-1.5-1.8c-1.4,0-1.9,1.2-1.9,2.5v3.1h-0.6V525.9z"/>
				</g>
			</g>
		</g>
		<g>
			<rect x="441.6" y="446.8" class="st17" width="5" height="55.6"/>
			<g>
				<g class="st15">
					<path d="M409.3,469.7h2.9c1.6,0,2.5,0.9,2.5,2.1c0,1-0.6,1.6-1.3,1.8c0.6,0.2,1.6,0.8,1.6,2.1c0,1.7-1.3,2.4-2.7,2.4h-3V469.7z
						 M412,473.3c1.5,0,2-0.5,2-1.5c0-0.8-0.6-1.5-1.8-1.5H410v3H412z M410,477.5h2.4c1.1,0,2-0.6,2-1.8c0-1.1-0.7-1.8-2.4-1.8h-2
						V477.5z"/>
					<path d="M416.6,478.1v-8.8h0.6v8.8H416.6z"/>
					<path d="M423.3,476.9c0,0.5,0,0.9,0.1,1.1h-0.6c0-0.1-0.1-0.4-0.1-0.9c-0.2,0.4-0.7,1.1-2,1.1c-1.4,0-2-0.9-2-1.8
						c0-1.3,1-1.9,2.8-1.9c0.5,0,0.9,0,1.1,0v-0.6c0-0.6-0.2-1.4-1.5-1.4c-1.2,0-1.4,0.6-1.5,1.1h-0.6c0.1-0.7,0.5-1.7,2.1-1.7
						c1.4,0,2.1,0.6,2.1,1.9V476.9z M422.7,475c-0.2,0-0.8,0-1.2,0c-1.3,0-2.2,0.3-2.2,1.4c0,0.8,0.5,1.3,1.4,1.3c1.7,0,2-1.1,2-2.4
						V475z"/>
					<path d="M429.7,476.3c-0.3,1.1-1,1.9-2.3,1.9c-1.5,0-2.6-1.1-2.6-3.1c0-1.6,0.9-3.2,2.6-3.2c1.5,0,2.1,1.1,2.3,1.9h-0.6
						c-0.2-0.7-0.6-1.4-1.7-1.4c-1.3,0-2,1.1-2,2.6c0,1.4,0.7,2.6,1.9,2.6c0.9,0,1.4-0.4,1.7-1.3H429.7z"/>
					<path d="M431.7,475.2c0.6-0.6,2.2-2.3,3-3.1h0.8l-2.4,2.4l2.7,3.6h-0.7l-2.4-3.2l-1,1v2.3h-0.6v-8.8h0.6V475.2z"/>
				</g>
			</g>
		</g>
		<g>
			<rect x="441.6" y="371.4" class="st18" width="5" height="65.4"/>
			<g>
				<g class="st15">
					<path d="M395.4,399.2h0.6v3.7h5v-3.7h0.6v8.4h-0.6v-4.1h-5v4.1h-0.6V399.2z"/>
					<path d="M403.9,398.8h0.6v1.2h-0.6V398.8z M403.9,401.6h0.6v6h-0.6V401.6z"/>
					<path d="M406.5,406c0.2,0.8,0.8,1.2,1.7,1.2c1.1,0,1.5-0.5,1.5-1.2c0-0.7-0.3-1-1.6-1.3c-1.5-0.4-1.9-0.8-1.9-1.6
						c0-0.8,0.6-1.6,2-1.6s2,0.8,2.1,1.7h-0.6c-0.1-0.5-0.5-1.1-1.5-1.1c-1,0-1.3,0.5-1.3,1c0,0.6,0.3,0.8,1.5,1.1
						c1.7,0.4,2.1,1,2.1,1.9c0,1.1-0.9,1.8-2.1,1.8c-1.4,0-2.1-0.7-2.3-1.8H406.5z"/>
					<path d="M412.4,406.7v3.3h-0.6v-6.9c0-0.5,0-1,0-1.5h0.6c0,0.2,0,0.6,0,1.1c0.4-0.7,1-1.2,2.1-1.2c1.4,0,2.4,1.2,2.4,3
						c0,2.2-1.2,3.3-2.6,3.3C413.3,407.8,412.7,407.3,412.4,406.7z M416.3,404.5c0-1.4-0.7-2.4-1.9-2.4c-1.5,0-2.1,0.9-2.1,2.5
						c0,1.6,0.5,2.6,2,2.6C415.6,407.2,416.3,406.1,416.3,404.5z"/>
					<path d="M422.5,406.5c0,0.5,0,0.9,0.1,1.1H422c0-0.1-0.1-0.4-0.1-0.9c-0.2,0.4-0.7,1.1-2,1.1c-1.4,0-2-0.9-2-1.8
						c0-1.3,1-1.9,2.8-1.9c0.5,0,0.9,0,1.1,0v-0.6c0-0.6-0.2-1.4-1.5-1.4c-1.2,0-1.4,0.6-1.5,1.1h-0.6c0.1-0.7,0.5-1.7,2.1-1.7
						c1.4,0,2.1,0.6,2.1,1.9V406.5z M421.9,404.6c-0.2,0-0.8,0-1.2,0c-1.3,0-2.2,0.3-2.2,1.4c0,0.8,0.5,1.3,1.4,1.3
						c1.7,0,2-1.1,2-2.4V404.6z"/>
					<path d="M424.5,403.1c0-0.5,0-1,0-1.5h0.6c0,0.2,0,1,0,1.1c0.3-0.6,0.8-1.3,2-1.3c1.1,0,2,0.6,2,2.3v3.9h-0.6v-3.8
						c0-1.1-0.4-1.8-1.5-1.8c-1.4,0-1.9,1.2-1.9,2.5v3.1h-0.6V403.1z"/>
					<path d="M431.1,398.8h0.6v1.2h-0.6V398.8z M431.1,401.6h0.6v6h-0.6V401.6z"/>
					<path d="M438.1,405.9c-0.3,1.1-1,1.9-2.3,1.9c-1.5,0-2.6-1.1-2.6-3.1c0-1.6,0.9-3.2,2.6-3.2c1.5,0,2.1,1.1,2.3,1.9h-0.6
						c-0.2-0.7-0.6-1.4-1.7-1.4c-1.3,0-2,1.1-2,2.6c0,1.4,0.7,2.6,1.9,2.6c0.9,0,1.4-0.4,1.7-1.3H438.1z"/>
				</g>
			</g>
		</g>
		<g>
			<rect x="441.6" y="512.4" class="st19" width="5" height="3.3"/>
			<g>
				<g class="st15">
					<path d="M392.7,509.1v5.1c0,2.2,1.3,2.8,2.4,2.8c1.4,0,2.4-0.6,2.4-2.8v-5.1h0.7v5c0,2.6-1.4,3.4-3.1,3.4
						c-1.7,0-3.1-0.9-3.1-3.3v-5.2H392.7z"/>
					<path d="M400.4,513c0-0.5,0-1,0-1.5h0.6c0,0.2,0,1,0,1.1c0.3-0.6,0.8-1.3,2-1.3c1.1,0,2,0.6,2,2.3v3.9h-0.6v-3.8
						c0-1.1-0.4-1.8-1.5-1.8c-1.4,0-1.9,1.2-1.9,2.5v3.1h-0.6V513z"/>
					<path d="M407.5,514.6c0.6-0.6,2.2-2.3,3-3.1h0.8l-2.4,2.4l2.7,3.6h-0.7l-2.4-3.2l-1,1v2.3h-0.6v-8.8h0.6V514.6z"/>
					<path d="M412.6,513c0-0.5,0-1,0-1.5h0.6c0,0.2,0,1,0,1.1c0.3-0.6,0.8-1.3,2-1.3c1.1,0,2,0.6,2,2.3v3.9h-0.6v-3.8
						c0-1.1-0.4-1.8-1.5-1.8c-1.4,0-1.9,1.2-1.9,2.5v3.1h-0.6V513z"/>
					<path d="M424,514.5c0,1.7-0.9,3.2-2.7,3.2c-1.6,0-2.6-1.3-2.6-3.1c0-1.7,0.9-3.1,2.7-3.1C423,511.3,424,512.6,424,514.5z
						 M419.3,514.5c0,1.4,0.8,2.6,2,2.6c1.3,0,2-1.1,2-2.6c0-1.4-0.7-2.6-2.1-2.6C420,511.9,419.3,513.1,419.3,514.5z"/>
					<path d="M425.5,511.5c0.9,3.1,1.4,4.9,1.5,5.4h0c0.1-0.5,0.7-2.4,1.6-5.4h0.6c1.1,3.7,1.5,4.8,1.6,5.2h0
						c0.2-0.7,0.4-1.6,1.5-5.2h0.6l-1.9,6h-0.7c-0.6-2.1-1.4-4.7-1.5-5.3h0c-0.1,0.6-0.8,2.7-1.6,5.3h-0.7l-1.8-6H425.5z"/>
					<path d="M434.4,513c0-0.5,0-1,0-1.5h0.6c0,0.2,0,1,0,1.1c0.3-0.6,0.8-1.3,2-1.3c1.1,0,2,0.6,2,2.3v3.9h-0.6v-3.8
						c0-1.1-0.4-1.8-1.5-1.8c-1.4,0-1.9,1.2-1.9,2.5v3.1h-0.6V513z"/>
				</g>
			</g>
		</g>
		<g>
			<rect x="441.6" y="28.1" class="st20" width="5" height="333.4"/>
			<g>
				<g class="st15">
					<path d="M409.7,198.3l-2.3-8.4h0.7c0.6,2,1.8,6.7,2,7.6h0c0.2-0.8,1.5-5.4,2.1-7.6h0.7c0.6,2.1,1.9,7,2,7.6h0
						c0.3-1.2,1.7-5.6,2.2-7.6h0.7l-2.6,8.4h-0.7c-0.6-2-1.9-6.8-2-7.6h0c-0.2,1.1-1.5,5.5-2.1,7.6H409.7z"/>
					<path d="M419.7,189.4v3.8c0.3-0.6,0.9-1.2,2-1.2c0.9,0,2,0.4,2,2.3v3.8h-0.6v-3.7c0-1.2-0.5-1.9-1.5-1.9
						c-1.2,0-1.9,0.7-1.9,2.2v3.3h-0.6v-8.8H419.7z"/>
					<path d="M425.7,189.4h0.6v1.2h-0.6V189.4z M425.7,192.3h0.6v6h-0.6V192.3z"/>
					<path d="M427.4,192.3h1.1v-1.9h0.6v1.9h1.4v0.6h-1.4v3.9c0,0.7,0.1,1.1,0.7,1.1c0.2,0,0.4,0,0.6-0.1v0.5
						c-0.2,0.1-0.5,0.1-0.7,0.1c-0.8,0-1.2-0.4-1.2-1.3v-4.2h-1.1V192.3z"/>
					<path d="M431.9,195.3c0,1.5,0.8,2.5,1.9,2.5c1.1,0,1.5-0.6,1.7-1.1h0.6c-0.3,0.8-0.9,1.7-2.4,1.7c-1.8,0-2.5-1.6-2.5-3.1
						c0-1.7,0.9-3.2,2.6-3.2c1.8,0,2.4,1.6,2.4,2.7c0,0.2,0,0.3,0,0.5H431.9z M435.7,194.8c0-1.2-0.7-2.1-1.8-2.1
						c-1.2,0-1.8,0.9-1.9,2.1H435.7z"/>
				</g>
			</g>
		</g>
		<g>
			<rect x="20.6" y="48.1" class="st21" width="5" height="460"/>
			<g>
				<g class="st15">
					<path d="M37,277.7c0-1.6,0-3.2,0-4.1h0c-0.3,1.1-2,5.3-3.1,7.9h-0.6c-0.8-2.1-2.6-6.7-3-7.9h0c0.1,1,0.1,2.9,0.1,4.4v3.6h-0.6
						v-8.4h1c1.2,2.9,2.6,6.6,2.9,7.6h0c0.2-0.6,1.9-4.8,3-7.6h1v8.4H37V277.7z"/>
					<path d="M44,280.4c0,0.5,0,0.9,0.1,1.1h-0.6c0-0.1-0.1-0.4-0.1-0.9c-0.2,0.4-0.7,1.1-2,1.1c-1.4,0-2-0.9-2-1.8
						c0-1.3,1-1.9,2.8-1.9c0.5,0,0.9,0,1.1,0v-0.6c0-0.6-0.2-1.4-1.5-1.4c-1.2,0-1.4,0.6-1.5,1.1h-0.6c0.1-0.7,0.5-1.7,2.1-1.7
						c1.4,0,2.1,0.6,2.1,1.9V280.4z M43.4,278.5c-0.2,0-0.8,0-1.2,0c-1.3,0-2.2,0.3-2.2,1.4c0,0.8,0.5,1.3,1.4,1.3
						c1.7,0,2-1.1,2-2.4V278.5z"/>
					<path d="M45.9,281.6v-8.8h0.6v8.8H45.9z"/>
					<path d="M48.6,278.6c0,1.5,0.8,2.5,1.9,2.5c1.1,0,1.5-0.6,1.7-1.1h0.6c-0.3,0.8-0.9,1.7-2.4,1.7c-1.8,0-2.5-1.6-2.5-3.1
						c0-1.7,0.9-3.2,2.6-3.2c1.8,0,2.4,1.6,2.4,2.7c0,0.2,0,0.3,0,0.5H48.6z M52.4,278.1c0-1.2-0.7-2.1-1.8-2.1
						c-1.2,0-1.8,0.9-1.9,2.1H52.4z"/>
				</g>
			</g>
		</g>
	</g>
</g>
</svg>
