<?xml version="1.0" encoding="utf-8"?>
<!-- Generator: Adobe Illustrator 23.0.6, SVG Export Plug-In . SVG Version: 6.00 Build 0)  -->
<svg version="1.1" id="Layer_1" xmlns="http://www.w3.org/2000/svg" xmlns:xlink="http://www.w3.org/1999/xlink" x="0px" y="0px"
	 viewBox="0 0 1018 1261.6" style="enable-background:new 0 0 1018 1261.6;" xml:space="preserve">
<style type="text/css">
	.st0{fill:#B1B0B1;}
	.st1{fill:none;stroke:#BABBDA;stroke-width:380.4762;}
	.st2{fill:none;stroke:#BABBDA;stroke-width:8.9524;}
	.st3{fill:none;stroke:#BABBDA;stroke-width:58.1905;}
	.st4{fill:none;stroke:#BABBDA;stroke-width:22.381;}
	.st5{fill:none;stroke:#FED9A6;stroke-width:196.9524;}
	.st6{fill:none;stroke:#FED9A6;stroke-width:183.5238;}
	.st7{fill:none;stroke:#BFE1A0;stroke-width:8.9524;}
	.st8{fill:none;stroke:#B3CDE3;stroke-width:35.8095;}
	.st9{fill:none;stroke:#B3CDE3;stroke-width:22.381;}
	.st10{fill:none;stroke:#FCB4AE;stroke-width:17.9048;}
	.st11{fill:none;stroke:#FCB4AE;stroke-width:4.4762;}
	.st12{enable-background:new    ;}
	.st13{fill:#C1D0B4;}
	.st14{fill:#CF9590;}
	.st15{fill:#9CB2C6;}
	.st16{fill:#C6A982;}
	.st17{fill:#9EA0B0;}
	.st18{clip-path:url(#SVGID_2_);fill:#B1B0B1;}
	.st19{clip-path:url(#SVGID_2_);}
	.st20{clip-path:url(#SVGID_4_);fill:none;stroke:#95C8C3;stroke-width:334.2243;}
	.st21{clip-path:url(#SVGID_4_);fill:none;stroke:#95C8C3;stroke-width:65.534;}
	.st22{clip-path:url(#SVGID_4_);fill:none;stroke:#95C8C3;stroke-width:55.7045;}
	.st23{clip-path:url(#SVGID_4_);fill:none;stroke:#95C8C3;stroke-width:3.2765;}
	.st24{clip-path:url(#SVGID_4_);fill:none;stroke:#95C8C3;stroke-width:2.4574;}
	.st25{clip-path:url(#SVGID_4_);fill:none;stroke:#FED9A6;stroke-width:113.0463;}
	.st26{clip-path:url(#SVGID_4_);fill:none;stroke:#FED9A6;stroke-width:221.1779;}
	.st27{clip-path:url(#SVGID_4_);fill:none;stroke:#B3CDE3;stroke-width:40.9593;}
	.st28{clip-path:url(#SVGID_4_);fill:none;stroke:#B3CDE3;stroke-width:24.5758;}
	.st29{clip-path:url(#SVGID_4_);fill:none;stroke:#FBB4AE;stroke-width:24.5758;}
	.st30{clip-path:url(#SVGID_4_);fill:none;stroke:#FBB4AE;stroke-width:31.1288;}
	.st31{clip-path:url(#SVGID_4_);fill:none;stroke:#B5ADD0;stroke-width:3.2765;}
	.st32{clip-path:url(#SVGID_4_);fill:none;stroke:#BFE1A0;stroke-width:1.6383;}
	.st33{clip-path:url(#SVGID_4_);fill:none;stroke:#BFE1A0;stroke-width:0.8191;}
	.st34{clip-path:url(#SVGID_4_);enable-background:new    ;}
	.st35{clip-path:url(#SVGID_6_);}
	.st36{clip-path:url(#SVGID_8_);}
	.st37{clip-path:url(#SVGID_4_);fill:#C1D0B4;}
	.st38{clip-path:url(#SVGID_10_);}
	.st39{clip-path:url(#SVGID_4_);fill:#CF9590;}
	.st40{clip-path:url(#SVGID_12_);}
	.st41{clip-path:url(#SVGID_4_);fill:#9CB2C6;}
	.st42{clip-path:url(#SVGID_14_);}
	.st43{clip-path:url(#SVGID_4_);fill:#9690AD;}
	.st44{clip-path:url(#SVGID_16_);}
	.st45{clip-path:url(#SVGID_4_);fill:#C6A982;}
	.st46{clip-path:url(#SVGID_18_);}
	.st47{clip-path:url(#SVGID_4_);fill:#7CA7A2;}
	.st48{clip-path:url(#SVGID_20_);}
	.st49{font-family:'MyriadPro-Regular';}
	.st50{font-size:36px;}
	.st51{font-size:24px;}
	.st52{fill:#575757;}
</style>
<rect x="899.7" y="959.3" class="st0" width="87" height="232.6"/>
<rect x="899.7" y="710.3" class="st0" width="87" height="241.1"/>
<g transform="translate(0, 10)">
	<g>
		<path class="st1" d="M51,896.6c208,0,208-15,416-15"/>
		<path class="st2" d="M51,1171.9c208,0,208,15,416,15"/>
		<path class="st3" d="M51,1115.9c208,0,208-5,416-5"/>
		<path class="st4" d="M51,1156.2c208,0,208,5,416,5"/>
		<path class="st5" d="M472,973.4c208,0,208,73.7,416,73.7"/>
		<path class="st6" d="M472,783.1c208,0,208,10,416,10"/>
		<path class="st7" d="M472,1186.9c208,0,208-10,416-10"/>
		<path class="st8" d="M472,1099.7c208,0,208-197,416-197"/>
		<path class="st9" d="M472,1128.8c208,0,208,27.9,416,27.9"/>
		<path class="st10" d="M472,1159c208,0,208-229.3,416-229.3"/>
		<path class="st11" d="M472,1170.2c208,0,208,0,416,0"/>
	</g>
	<g>
		<g>
			<g>
				<g class="st12">
					<path d="M922,812.4h0.6v3.7h5v-3.7h0.6v8.4h-0.6v-4.1h-5v4.1H922V812.4z"/>
					<path d="M935.4,817.8c0,1.7-0.9,3.2-2.7,3.2c-1.6,0-2.6-1.3-2.6-3.1c0-1.7,0.9-3.1,2.7-3.1
						C934.3,814.7,935.4,815.9,935.4,817.8z M930.7,817.8c0,1.4,0.8,2.6,2,2.6c1.3,0,2-1.1,2-2.6c0-1.4-0.7-2.6-2.1-2.6
						C931.3,815.3,930.7,816.4,930.7,817.8z"/>
					<path d="M936.9,819.2c0.2,0.8,0.8,1.2,1.7,1.2c1.1,0,1.5-0.5,1.5-1.2c0-0.7-0.3-1-1.6-1.3c-1.5-0.4-1.9-0.8-1.9-1.6
						c0-0.8,0.6-1.6,2-1.6s2,0.8,2.1,1.7H940c-0.1-0.5-0.5-1.1-1.5-1.1c-1,0-1.3,0.5-1.3,1c0,0.6,0.3,0.8,1.5,1.1
						c1.7,0.4,2.1,1,2.1,1.9c0,1.1-0.9,1.8-2.1,1.8c-1.4,0-2.1-0.7-2.3-1.8H936.9z"/>
					<path d="M942.8,819.9v3.3h-0.6v-6.9c0-0.5,0-1,0-1.5h0.6c0,0.2,0,0.6,0,1.1c0.4-0.7,1-1.2,2.1-1.2c1.4,0,2.4,1.2,2.4,3
						c0,2.2-1.2,3.3-2.6,3.3C943.7,821,943.1,820.5,942.8,819.9z M946.7,817.7c0-1.4-0.7-2.4-1.9-2.4c-1.5,0-2.1,0.9-2.1,2.5
						c0,1.6,0.5,2.6,2,2.6C946,820.4,946.7,819.4,946.7,817.7z"/>
					<path d="M948.8,812h0.6v1.2h-0.6V812z M948.8,814.8h0.6v6h-0.6V814.8z"/>
					<path d="M950.5,814.8h1.1V813h0.6v1.9h1.4v0.6h-1.4v3.9c0,0.7,0.1,1.1,0.7,1.1c0.2,0,0.4,0,0.6-0.1v0.5
						c-0.2,0.1-0.5,0.1-0.7,0.1c-0.8,0-1.2-0.4-1.2-1.3v-4.2h-1.1V814.8z"/>
					<path d="M959,819.7c0,0.5,0,0.9,0.1,1.1h-0.6c0-0.1-0.1-0.4-0.1-0.9c-0.2,0.4-0.7,1.1-2,1.1c-1.4,0-2-0.9-2-1.8
						c0-1.3,1-1.9,2.8-1.9c0.5,0,0.9,0,1.1,0v-0.6c0-0.6-0.2-1.4-1.5-1.4c-1.2,0-1.4,0.6-1.5,1.1h-0.6c0.1-0.7,0.5-1.7,2.1-1.7
						c1.4,0,2.1,0.6,2.1,1.9V819.7z M958.4,817.8c-0.2,0-0.8,0-1.2,0c-1.3,0-2.2,0.3-2.2,1.4c0,0.8,0.5,1.3,1.4,1.3
						c1.7,0,2-1.1,2-2.4V817.8z"/>
					<path d="M961,820.8V812h0.6v8.8H961z"/>
				</g>
			</g>
		</g>
		<g>
			<g>
				<g class="st12">
					<path d="M913.9,1071.8v-8.4h1c1.3,2,4.4,6.7,4.9,7.6h0c-0.1-1.2-0.1-2.4-0.1-3.8v-3.8h0.7v8.4h-0.9c-1.2-1.9-4.4-6.8-5-7.7h0
						c0.1,1.1,0,2.3,0,3.9v3.9H913.9z"/>
					<path d="M927.4,1068.8c0,1.7-0.9,3.2-2.7,3.2c-1.6,0-2.6-1.3-2.6-3.1c0-1.7,0.9-3.1,2.7-3.1
						C926.4,1065.7,927.4,1066.9,927.4,1068.8z M922.7,1068.8c0,1.4,0.8,2.6,2,2.6c1.3,0,2-1.1,2-2.6c0-1.4-0.7-2.6-2.1-2.6
						C923.4,1066.3,922.7,1067.4,922.7,1068.8z"/>
					<path d="M932.2,1063.4h0.6v3.7h5v-3.7h0.6v8.4h-0.6v-4.1h-5v4.1h-0.6V1063.4z"/>
					<path d="M945.6,1068.8c0,1.7-0.9,3.2-2.7,3.2c-1.6,0-2.6-1.3-2.6-3.1c0-1.7,0.9-3.1,2.7-3.1
						C944.5,1065.7,945.6,1066.9,945.6,1068.8z M940.9,1068.8c0,1.4,0.8,2.6,2,2.6c1.3,0,2-1.1,2-2.6c0-1.4-0.7-2.6-2.1-2.6
						C941.5,1066.3,940.9,1067.4,940.9,1068.8z"/>
					<path d="M947.1,1070.2c0.2,0.8,0.8,1.2,1.7,1.2c1.1,0,1.5-0.5,1.5-1.2c0-0.7-0.3-1-1.6-1.3c-1.5-0.4-1.9-0.8-1.9-1.6
						c0-0.8,0.6-1.6,2-1.6s2,0.8,2.1,1.7h-0.6c-0.1-0.5-0.5-1.1-1.5-1.1c-1,0-1.3,0.5-1.3,1c0,0.6,0.3,0.8,1.5,1.1
						c1.7,0.4,2.1,1,2.1,1.9c0,1.1-0.9,1.8-2.1,1.8c-1.4,0-2.1-0.7-2.3-1.8H947.1z"/>
					<path d="M953,1070.9v3.3h-0.6v-6.9c0-0.5,0-1,0-1.5h0.6c0,0.2,0,0.6,0,1.1c0.4-0.7,1-1.2,2.1-1.2c1.4,0,2.4,1.2,2.4,3
						c0,2.2-1.2,3.3-2.6,3.3C953.8,1072,953.3,1071.5,953,1070.9z M956.9,1068.7c0-1.4-0.7-2.4-1.9-2.4c-1.5,0-2.1,0.9-2.1,2.5
						c0,1.6,0.5,2.6,2,2.6C956.2,1071.4,956.9,1070.4,956.9,1068.7z"/>
					<path d="M959,1063h0.6v1.2H959V1063z M959,1065.8h0.6v6H959V1065.8z"/>
					<path d="M960.7,1065.8h1.1v-1.9h0.6v1.9h1.4v0.6h-1.4v3.9c0,0.7,0.1,1.1,0.7,1.1c0.2,0,0.4,0,0.6-0.1v0.5
						c-0.2,0.1-0.5,0.1-0.7,0.1c-0.8,0-1.2-0.4-1.2-1.3v-4.2h-1.1V1065.8z"/>
					<path d="M969.2,1070.7c0,0.5,0,0.9,0.1,1.1h-0.6c0-0.1-0.1-0.4-0.1-0.9c-0.2,0.4-0.7,1.1-2,1.1c-1.4,0-2-0.9-2-1.8
						c0-1.3,1-1.9,2.8-1.9c0.5,0,0.9,0,1.1,0v-0.6c0-0.6-0.2-1.4-1.5-1.4c-1.2,0-1.4,0.6-1.5,1.1h-0.6c0.1-0.7,0.5-1.7,2.1-1.7
						c1.4,0,2.1,0.6,2.1,1.9V1070.7z M968.6,1068.8c-0.2,0-0.8,0-1.2,0c-1.3,0-2.2,0.3-2.2,1.4c0,0.8,0.5,1.3,1.4,1.3
						c1.7,0,2-1.1,2-2.4V1068.8z"/>
					<path d="M971.1,1071.8v-8.8h0.6v8.8H971.1z"/>
				</g>
			</g>
		</g>
		<g>
			<rect x="467" y="1182.4" class="st13" width="5" height="9"/>
			<g>
				<g class="st12">
					<path d="M438,1187.5l-1.1,2.9h-0.7l3.1-8.4h0.8l3.2,8.4h-0.7l-1.1-2.9H438z M441.3,1186.9c-0.9-2.5-1.4-3.7-1.6-4.3h0
						c-0.2,0.6-0.7,2.1-1.5,4.3H441.3z"/>
					<path d="M444.7,1188.7c0.2,0.8,0.8,1.2,1.7,1.2c1.1,0,1.5-0.5,1.5-1.2c0-0.7-0.3-1-1.6-1.3c-1.5-0.4-1.9-0.8-1.9-1.6
						c0-0.8,0.6-1.6,2-1.6c1.4,0,2,0.8,2.1,1.7h-0.6c-0.1-0.5-0.5-1.1-1.5-1.1c-1,0-1.3,0.5-1.3,1c0,0.6,0.3,0.8,1.5,1.1
						c1.7,0.4,2.1,1,2.1,1.9c0,1.1-0.9,1.8-2.1,1.8c-1.4,0-2.1-0.7-2.3-1.8H444.7z"/>
					<path d="M450,1181.5h0.6v1.2H450V1181.5z M450,1184.4h0.6v6H450V1184.4z"/>
					<path d="M456.7,1189.2c0,0.5,0,0.9,0.1,1.1h-0.6c0-0.1-0.1-0.4-0.1-0.9c-0.2,0.4-0.7,1.1-2,1.1c-1.4,0-2-0.9-2-1.8
						c0-1.3,1-1.9,2.8-1.9c0.5,0,0.9,0,1.1,0v-0.6c0-0.6-0.2-1.4-1.5-1.4c-1.2,0-1.4,0.6-1.5,1.1h-0.6c0.1-0.7,0.5-1.7,2.1-1.7
						c1.4,0,2.1,0.6,2.1,1.9V1189.2z M456.1,1187.3c-0.2,0-0.8,0-1.2,0c-1.3,0-2.2,0.3-2.2,1.4c0,0.8,0.5,1.3,1.4,1.3
						c1.7,0,2-1.1,2-2.4V1187.3z"/>
					<path d="M458.7,1185.9c0-0.5,0-1,0-1.5h0.6c0,0.2,0,1,0,1.1c0.3-0.6,0.8-1.3,2-1.3c1.1,0,2,0.6,2,2.3v3.9h-0.6v-3.8
						c0-1.1-0.4-1.8-1.5-1.8c-1.4,0-1.9,1.2-1.9,2.5v3.1h-0.6V1185.9z"/>
				</g>
			</g>
		</g>
		<g>
			<rect x="467" y="1150" class="st14" width="5" height="22.4"/>
			<g>
				<g class="st12">
					<path d="M437.7,1156.3h2.9c1.6,0,2.5,0.9,2.5,2.1c0,1-0.6,1.6-1.3,1.8c0.6,0.2,1.6,0.8,1.6,2.1c0,1.7-1.3,2.4-2.7,2.4h-3
						V1156.3z M440.4,1159.9c1.5,0,2-0.5,2-1.5c0-0.8-0.6-1.5-1.8-1.5h-2.3v3H440.4z M438.4,1164.1h2.4c1.1,0,2-0.6,2-1.8
						c0-1.1-0.7-1.8-2.4-1.8h-2V1164.1z"/>
					<path d="M445.1,1164.7v-8.8h0.6v8.8H445.1z"/>
					<path d="M451.7,1163.6c0,0.5,0,0.9,0.1,1.1h-0.6c0-0.1-0.1-0.4-0.1-0.9c-0.2,0.4-0.7,1.1-2,1.1c-1.4,0-2-0.9-2-1.8
						c0-1.3,1-1.9,2.8-1.9c0.5,0,0.9,0,1.1,0v-0.6c0-0.6-0.2-1.4-1.5-1.4c-1.2,0-1.4,0.6-1.5,1.1h-0.6c0.1-0.7,0.5-1.7,2.1-1.7
						c1.4,0,2.1,0.6,2.1,1.9V1163.6z M451.1,1161.7c-0.2,0-0.8,0-1.2,0c-1.3,0-2.2,0.3-2.2,1.4c0,0.8,0.5,1.3,1.4,1.3
						c1.7,0,2-1.1,2-2.4V1161.7z"/>
					<path d="M458.1,1163c-0.3,1.1-1,1.9-2.3,1.9c-1.5,0-2.6-1.1-2.6-3.1c0-1.6,0.9-3.2,2.6-3.2c1.5,0,2.1,1.1,2.3,1.9h-0.6
						c-0.2-0.7-0.6-1.4-1.7-1.4c-1.3,0-2,1.1-2,2.6c0,1.4,0.7,2.6,1.9,2.6c0.9,0,1.4-0.4,1.7-1.3H458.1z"/>
					<path d="M460.1,1161.8c0.6-0.6,2.2-2.3,3-3.1h0.8l-2.4,2.4l2.7,3.6h-0.7l-2.4-3.2l-1,1v2.3h-0.6v-8.8h0.6V1161.8z"/>
				</g>
			</g>
		</g>
		<g>
			<rect x="467" y="1081.8" class="st15" width="5" height="58.2"/>
			<g>
				<g class="st12">
					<path d="M423.8,1106h0.6v3.7h5v-3.7h0.6v8.4h-0.6v-4.1h-5v4.1h-0.6V1106z"/>
					<path d="M432.3,1105.6h0.6v1.2h-0.6V1105.6z M432.3,1108.4h0.6v6h-0.6V1108.4z"/>
					<path d="M434.9,1112.8c0.2,0.8,0.8,1.2,1.7,1.2c1.1,0,1.5-0.5,1.5-1.2c0-0.7-0.3-1-1.6-1.3c-1.5-0.4-1.9-0.8-1.9-1.6
						c0-0.8,0.6-1.6,2-1.6s2,0.8,2.1,1.7H438c-0.1-0.5-0.5-1.1-1.5-1.1c-1,0-1.3,0.5-1.3,1c0,0.6,0.3,0.8,1.5,1.1
						c1.7,0.4,2.1,1,2.1,1.9c0,1.1-0.9,1.8-2.1,1.8c-1.4,0-2.1-0.7-2.3-1.8H434.9z"/>
					<path d="M440.8,1113.5v3.3h-0.6v-6.9c0-0.5,0-1,0-1.5h0.6c0,0.2,0,0.6,0,1.1c0.4-0.7,1-1.2,2.1-1.2c1.4,0,2.4,1.2,2.4,3
						c0,2.2-1.2,3.3-2.6,3.3C441.7,1114.6,441.1,1114.1,440.8,1113.5z M444.7,1111.3c0-1.4-0.7-2.4-1.9-2.4c-1.5,0-2.1,0.9-2.1,2.5
						c0,1.6,0.5,2.6,2,2.6C444,1114,444.7,1113,444.7,1111.3z"/>
					<path d="M450.9,1113.3c0,0.5,0,0.9,0.1,1.1h-0.6c0-0.1-0.1-0.4-0.1-0.9c-0.2,0.4-0.7,1.1-2,1.1c-1.4,0-2-0.9-2-1.8
						c0-1.3,1-1.9,2.8-1.9c0.5,0,0.9,0,1.1,0v-0.6c0-0.6-0.2-1.4-1.5-1.4c-1.2,0-1.4,0.6-1.5,1.1h-0.6c0.1-0.7,0.5-1.7,2.1-1.7
						c1.4,0,2.1,0.6,2.1,1.9V1113.3z M450.4,1111.4c-0.2,0-0.8,0-1.2,0c-1.3,0-2.2,0.3-2.2,1.4c0,0.8,0.5,1.3,1.4,1.3
						c1.7,0,2-1.1,2-2.4V1111.4z"/>
					<path d="M452.9,1109.9c0-0.5,0-1,0-1.5h0.6c0,0.2,0,1,0,1.1c0.3-0.6,0.8-1.3,2-1.3c1.1,0,2,0.6,2,2.3v3.9h-0.6v-3.8
						c0-1.1-0.4-1.8-1.5-1.8c-1.4,0-1.9,1.2-1.9,2.5v3.1h-0.6V1109.9z"/>
					<path d="M459.5,1105.6h0.6v1.2h-0.6V1105.6z M459.5,1108.4h0.6v6h-0.6V1108.4z"/>
					<path d="M466.5,1112.7c-0.3,1.1-1,1.9-2.3,1.9c-1.5,0-2.6-1.1-2.6-3.1c0-1.6,0.9-3.2,2.6-3.2c1.5,0,2.1,1.1,2.3,1.9h-0.6
						c-0.2-0.7-0.6-1.4-1.7-1.4c-1.3,0-2,1.1-2,2.6c0,1.4,0.7,2.6,1.9,2.6c0.9,0,1.4-0.4,1.7-1.3H466.5z"/>
				</g>
			</g>
		</g>
		<g>
			<rect x="467" y="691.4" class="st16" width="5" height="380.5"/>
			<g>
				<g class="st12">
					<path d="M438.1,885.1l-2.3-8.4h0.7c0.6,2,1.8,6.7,2,7.6h0c0.2-0.8,1.5-5.4,2.1-7.6h0.7c0.6,2.1,1.9,7,2,7.6h0
						c0.3-1.2,1.7-5.6,2.2-7.6h0.7l-2.6,8.4h-0.7c-0.6-2-1.9-6.8-2-7.6h0c-0.2,1.1-1.5,5.5-2.1,7.6H438.1z"/>
					<path d="M448.1,876.3v3.8c0.3-0.6,0.9-1.2,2-1.2c0.9,0,2,0.4,2,2.3v3.8h-0.6v-3.7c0-1.2-0.5-1.9-1.5-1.9
						c-1.2,0-1.9,0.7-1.9,2.2v3.3h-0.6v-8.8H448.1z"/>
					<path d="M454.1,876.3h0.6v1.2h-0.6V876.3z M454.1,879.1h0.6v6h-0.6V879.1z"/>
					<path d="M455.8,879.1h1.1v-1.9h0.6v1.9h1.4v0.6h-1.4v3.9c0,0.7,0.1,1.1,0.7,1.1c0.2,0,0.4,0,0.6-0.1v0.5
						c-0.2,0.1-0.5,0.1-0.7,0.1c-0.8,0-1.2-0.4-1.2-1.3v-4.2h-1.1V879.1z"/>
					<path d="M460.3,882.2c0,1.5,0.8,2.5,1.9,2.5c1.1,0,1.5-0.6,1.7-1.1h0.6c-0.3,0.8-0.9,1.7-2.4,1.7c-1.8,0-2.5-1.6-2.5-3.1
						c0-1.7,0.9-3.2,2.6-3.2c1.8,0,2.4,1.6,2.4,2.7c0,0.2,0,0.3,0,0.5H460.3z M464.1,881.6c0-1.2-0.7-2.1-1.8-2.1
						c-1.2,0-1.8,0.9-1.9,2.1H464.1z"/>
				</g>
			</g>
		</g>
		<g>
			<rect x="46" y="706.4" class="st17" width="5" height="470"/>
			<g>
				<g class="st12">
					<path d="M58.2,936.5h5.1v0.6h-4.4v3.2H63v0.6h-4.2v4h-0.6V936.5z"/>
					<path d="M64.7,941.9c0,1.5,0.8,2.5,1.9,2.5c1.1,0,1.5-0.6,1.7-1.1H69c-0.3,0.8-0.9,1.7-2.4,1.7c-1.8,0-2.5-1.6-2.5-3.1
						c0-1.7,0.9-3.2,2.6-3.2c1.8,0,2.4,1.6,2.4,2.7c0,0.2,0,0.3,0,0.5H64.7z M68.5,941.4c0-1.2-0.7-2.1-1.8-2.1
						c-1.2,0-1.8,0.9-1.9,2.1H68.5z"/>
					<path d="M70.6,940.4c0-0.5,0-1.1,0-1.5h0.6c0,0.2,0,0.7,0,1.1c0.3-0.6,0.8-1.2,1.8-1.2c0.8,0,1.5,0.4,1.7,1.2
						c0.3-0.6,0.9-1.2,2-1.2c0.9,0,1.9,0.5,1.9,2.2v3.9H78V941c0-0.8-0.3-1.7-1.4-1.7c-1.2,0-1.7,0.9-1.7,2.1v3.5h-0.6V941
						c0-0.9-0.3-1.7-1.4-1.7c-1.2,0-1.7,1-1.7,2.3v3.3h-0.6V940.4z"/>
					<path d="M84.6,943.7c0,0.5,0,0.9,0.1,1.1h-0.6c0-0.1-0.1-0.4-0.1-0.9c-0.2,0.4-0.7,1.1-2,1.1c-1.4,0-2-0.9-2-1.8
						c0-1.3,1-1.9,2.8-1.9c0.5,0,0.9,0,1.1,0v-0.6c0-0.6-0.2-1.4-1.5-1.4c-1.2,0-1.4,0.6-1.5,1.1h-0.6c0.1-0.7,0.5-1.7,2.1-1.7
						c1.4,0,2.1,0.6,2.1,1.9V943.7z M84.1,941.8c-0.2,0-0.8,0-1.2,0c-1.3,0-2.2,0.3-2.2,1.4c0,0.8,0.5,1.3,1.4,1.3
						c1.7,0,2-1.1,2-2.4V941.8z"/>
					<path d="M86.6,944.9V936h0.6v8.8H86.6z"/>
					<path d="M89.3,941.9c0,1.5,0.8,2.5,1.9,2.5c1.1,0,1.5-0.6,1.7-1.1h0.6c-0.3,0.8-0.9,1.7-2.4,1.7c-1.8,0-2.5-1.6-2.5-3.1
						c0-1.7,0.9-3.2,2.6-3.2c1.8,0,2.4,1.6,2.4,2.7c0,0.2,0,0.3,0,0.5H89.3z M93.1,941.4c0-1.2-0.7-2.1-1.8-2.1
						c-1.2,0-1.8,0.9-1.9,2.1H93.1z"/>
				</g>
			</g>
		</g>
	</g>
</g>
<g>
	<g>
		<defs>
			<rect id="SVGID_1_" x="21.3" y="131.3" width="1005" height="568.1"/>
		</defs>
		<clipPath id="SVGID_2_">
			<use xlink:href="#SVGID_1_"  style="overflow:visible;"/>
		</clipPath>
		<rect x="900.3" y="482.4" class="st18" width="87.7" height="174.2"/>
		<rect x="900.3" y="184.1" class="st18" width="87.7" height="285.6"/>
		<g class="st19">
			<defs>
				<rect id="SVGID_3_" x="21.3" y="131.3" width="1005" height="568.1"/>
			</defs>
			<clipPath id="SVGID_4_">
				<use xlink:href="#SVGID_3_"  style="overflow:visible;"/>
			</clipPath>
			<path class="st20" d="M47.1,355.4c209.7,0,209.7-19.9,419.5-19.9"/>
			<path class="st21" d="M47.1,554.1c209.7,0,209.7-10,419.5-10"/>
			<line class="st22" x1="47.1" y1="614.4" x2="466.6" y2="614.4"/>
			<path class="st23" d="M47.1,643.7c209.7,0,209.7,10,419.5,10"/>
			<path class="st24" d="M47.1,646.6c209.7,0,209.7,19.9,419.5,19.9"/>
			<path class="st25" d="M471.6,445.4c209.7,0,209.7,90.9,419.5,90.9"/>
			<path class="st26" d="M471.6,279.2c209.7,0,209.7,15,419.5,15"/>
			<path class="st27" d="M471.6,531.9c209.7,0,209.7-107.4,419.5-107.4"/>
			<path class="st28" d="M471.6,564.5c209.7,0,209.7,40.2,419.5,40.2"/>
			<path class="st29" d="M471.6,598.9c209.7,0,209.7-141.8,419.5-141.8"/>
			<path class="st30" d="M471.6,626.6c209.7,0,209.7,5.8,419.5,5.8"/>
			<path class="st31" d="M471.6,653.7c209.7,0,209.7-4.2,419.5-4.2"/>
			<path class="st32" d="M471.6,666.9c209.7,0,209.7-15,419.5-15"/>
			<path class="st33" d="M471.6,665.7c209.7,0,209.7-196,419.5-196"/>
			<g class="st34">
				<g>
					<defs>
						<rect id="SVGID_5_" x="918.4" y="566.5" width="42.2" height="13.3"/>
					</defs>
					<clipPath id="SVGID_6_">
						<use xlink:href="#SVGID_5_"  style="overflow:visible;"/>
					</clipPath>
					<path class="st35" d="M919.6,568.4h0.7v3.6h5.1v-3.6h0.7v8.4h-0.7v-4.1h-5.1v4.1h-0.7V568.4z M933,573.7c0,1.7-0.9,3.1-2.7,3.1
						c-1.6,0-2.6-1.3-2.6-3.1c0-1.7,1-3.1,2.7-3.1C932,570.6,933,571.8,933,573.7z M928.3,573.7c0,1.4,0.8,2.6,2.1,2.6
						c1.3,0,2-1.1,2-2.6c0-1.4-0.7-2.6-2.1-2.6C928.9,571.2,928.3,572.3,928.3,573.7z M934.7,575.1c0.2,0.8,0.8,1.2,1.7,1.2
						c1.1,0,1.5-0.5,1.5-1.2c0-0.7-0.3-1-1.6-1.3c-1.6-0.4-1.9-0.8-1.9-1.6c0-0.8,0.6-1.6,2-1.6c1.4,0,2,0.8,2.1,1.7h-0.6
						c-0.1-0.5-0.5-1.1-1.5-1.1c-1.1,0-1.4,0.5-1.4,1c0,0.6,0.3,0.8,1.5,1.1c1.7,0.4,2.1,1,2.1,1.9c0,1.1-0.9,1.8-2.2,1.8
						c-1.4,0-2.2-0.7-2.3-1.8H934.7z M940.6,575.8v3.3h-0.6v-6.9c0-0.5,0-1,0-1.5h0.6c0,0.2,0,0.6,0,1.1c0.4-0.7,1-1.2,2.1-1.2
						c1.4,0,2.4,1.2,2.4,3c0,2.2-1.2,3.3-2.6,3.3C941.4,576.9,940.9,576.4,940.6,575.8z M944.5,573.6c0-1.4-0.7-2.4-1.9-2.4
						c-1.5,0-2.1,0.9-2.1,2.5c0,1.6,0.5,2.6,2,2.6C943.8,576.3,944.5,575.2,944.5,573.6z M946.7,567.9h0.6v1.2h-0.6V567.9z
						 M946.7,570.7h0.6v6h-0.6V570.7z M948.4,570.7h1.1v-1.9h0.6v1.9h1.4v0.6h-1.4v3.9c0,0.7,0.1,1.1,0.7,1.1c0.2,0,0.4,0,0.6-0.1
						v0.5c-0.2,0.1-0.5,0.1-0.7,0.1c-0.8,0-1.2-0.4-1.2-1.3v-4.2h-1.1V570.7z M957,575.6c0,0.5,0,0.9,0.1,1.1h-0.6
						c0-0.1-0.1-0.4-0.1-0.9c-0.2,0.4-0.7,1.1-2,1.1c-1.4,0-2-0.9-2-1.8c0-1.3,1-1.9,2.8-1.9c0.5,0,0.9,0,1.1,0v-0.6
						c0-0.6-0.2-1.4-1.6-1.4c-1.2,0-1.4,0.6-1.5,1.1h-0.6c0.1-0.7,0.5-1.7,2.2-1.7c1.4,0,2.2,0.6,2.2,1.9V575.6z M956.4,573.7
						c-0.2,0-0.8,0-1.2,0c-1.3,0-2.2,0.3-2.2,1.4c0,0.8,0.5,1.3,1.4,1.3c1.7,0,2-1.1,2-2.4V573.7z M959,576.7v-8.8h0.6v8.8H959z"/>
				</g>
			</g>
			<g class="st34">
				<g>
					<defs>
						<rect id="SVGID_7_" x="915.4" y="324.3" width="60.6" height="14.5"/>
					</defs>
					<clipPath id="SVGID_8_">
						<use xlink:href="#SVGID_7_"  style="overflow:visible;"/>
					</clipPath>
					<path class="st36" d="M916.5,335.4v-9.1h1c1.3,2.2,4.4,7.3,4.9,8.3h0c-0.1-1.3-0.1-2.7-0.1-4.1v-4.1h0.7v9.1h-0.9
						c-1.3-2.1-4.4-7.4-5-8.4h0c0.1,1.2,0,2.5,0,4.2v4.2H916.5z M930.2,332.2c0,1.8-0.9,3.4-2.7,3.4c-1.6,0-2.6-1.4-2.6-3.4
						c0-1.9,1-3.4,2.7-3.4C929.1,328.8,930.2,330.1,930.2,332.2z M925.4,332.2c0,1.5,0.8,2.8,2.1,2.8c1.3,0,2-1.2,2-2.8
						c0-1.5-0.7-2.8-2.1-2.8C926.1,329.4,925.4,330.6,925.4,332.2z M935,326.3h0.7v4h5.1v-4h0.7v9.1h-0.7v-4.5h-5.1v4.5H935V326.3z
						 M948.5,332.2c0,1.8-0.9,3.4-2.7,3.4c-1.6,0-2.6-1.4-2.6-3.4c0-1.9,1-3.4,2.7-3.4C947.4,328.8,948.5,330.1,948.5,332.2z
						 M943.7,332.2c0,1.5,0.8,2.8,2.1,2.8c1.3,0,2-1.2,2-2.8c0-1.5-0.7-2.8-2.1-2.8C944.4,329.4,943.7,330.6,943.7,332.2z
						 M950.1,333.6c0.2,0.8,0.8,1.4,1.7,1.4c1.1,0,1.5-0.5,1.5-1.3c0-0.7-0.3-1.1-1.6-1.5c-1.6-0.4-1.9-0.9-1.9-1.8
						c0-0.9,0.6-1.7,2-1.7c1.4,0,2,0.9,2.1,1.8h-0.6c-0.1-0.5-0.5-1.2-1.5-1.2c-1.1,0-1.4,0.6-1.4,1.1c0,0.6,0.3,0.9,1.5,1.2
						c1.7,0.4,2.1,1,2.1,2c0,1.2-0.9,1.9-2.2,1.9c-1.4,0-2.2-0.8-2.3-2H950.1z M956,334.5v3.6h-0.6v-7.5c0-0.5,0-1.1,0-1.6h0.6
						c0,0.2,0,0.6,0,1.2c0.4-0.8,1-1.3,2.1-1.3c1.4,0,2.4,1.3,2.4,3.2c0,2.3-1.2,3.6-2.6,3.6C956.8,335.6,956.3,335.1,956,334.5z
						 M959.9,332c0-1.5-0.7-2.6-1.9-2.6c-1.5,0-2.1,1-2.1,2.8c0,1.7,0.5,2.8,2,2.8C959.2,335,959.9,333.8,959.9,332z M962.1,325.8
						h0.6v1.3h-0.6V325.8z M962.1,328.9h0.6v6.5h-0.6V328.9z M963.9,328.9h1.1v-2h0.6v2h1.4v0.6h-1.4v4.2c0,0.7,0.1,1.1,0.7,1.1
						c0.2,0,0.4,0,0.6-0.1v0.6c-0.2,0.1-0.5,0.1-0.7,0.1c-0.8,0-1.2-0.4-1.2-1.5v-4.5h-1.1V328.9z M972.4,334.2c0,0.6,0,1,0.1,1.2
						h-0.6c0-0.2-0.1-0.4-0.1-1c-0.2,0.5-0.7,1.2-2,1.2c-1.4,0-2-1-2-2c0-1.4,1-2.1,2.8-2.1c0.5,0,0.9,0,1.1,0v-0.7
						c0-0.7-0.2-1.5-1.6-1.5c-1.2,0-1.4,0.7-1.5,1.2h-0.6c0.1-0.7,0.5-1.8,2.2-1.8c1.4,0,2.2,0.6,2.2,2.1V334.2z M971.8,332.1
						c-0.2,0-0.8,0-1.2,0c-1.3,0-2.2,0.4-2.2,1.5c0,0.8,0.5,1.4,1.4,1.4c1.7,0,2-1.2,2-2.6V332.1z M974.4,335.4v-9.6h0.6v9.6H974.4z
						"/>
				</g>
			</g>
			<rect x="466.6" y="665.3" class="st37" width="5" height="2.4"/>
			<g class="st34">
				<g>
					<defs>
						<rect id="SVGID_9_" x="432.3" y="659.8" width="28.7" height="13.3"/>
					</defs>
					<clipPath id="SVGID_10_">
						<use xlink:href="#SVGID_9_"  style="overflow:visible;"/>
					</clipPath>
					<path class="st38" d="M434.3,667.1l-1.1,2.9h-0.7l3.1-8.4h0.8l3.2,8.4H439l-1.1-2.9H434.3z M437.7,666.5
						c-0.9-2.5-1.4-3.7-1.6-4.2h0c-0.2,0.6-0.7,2.1-1.5,4.2H437.7z M441.3,668.3c0.2,0.8,0.8,1.2,1.7,1.2c1.1,0,1.5-0.5,1.5-1.2
						c0-0.7-0.3-1-1.6-1.3c-1.6-0.4-1.9-0.8-1.9-1.6c0-0.8,0.6-1.6,2-1.6c1.4,0,2,0.8,2.1,1.7h-0.6c-0.1-0.5-0.5-1.1-1.5-1.1
						c-1.1,0-1.4,0.5-1.4,1c0,0.5,0.3,0.8,1.5,1.1c1.7,0.4,2.1,1,2.1,1.9c0,1.1-0.9,1.8-2.2,1.8c-1.4,0-2.2-0.7-2.3-1.8H441.3z
						 M446.7,661.2h0.6v1.2h-0.6V661.2z M446.7,664h0.6v6h-0.6V664z M453.3,668.8c0,0.5,0,0.9,0.1,1.1h-0.6c0-0.1-0.1-0.4-0.1-0.9
						c-0.2,0.4-0.7,1.1-2,1.1c-1.4,0-2-0.9-2-1.8c0-1.3,1-1.9,2.8-1.9c0.5,0,0.9,0,1.1,0v-0.6c0-0.6-0.2-1.4-1.6-1.4
						c-1.2,0-1.4,0.6-1.5,1.1H449c0.1-0.7,0.5-1.7,2.2-1.7c1.4,0,2.2,0.6,2.2,1.9V668.8z M452.7,666.9c-0.2,0-0.8,0-1.2,0
						c-1.3,0-2.2,0.3-2.2,1.4c0,0.8,0.5,1.3,1.4,1.3c1.7,0,2-1.1,2-2.4V666.9z M455.3,665.5c0-0.5,0-1,0-1.5h0.6c0,0.2,0,1,0,1.1
						c0.3-0.6,0.8-1.3,2-1.3c1.1,0,2,0.6,2,2.2v3.9h-0.6v-3.8c0-1.1-0.4-1.8-1.5-1.8c-1.4,0-1.9,1.2-1.9,2.5v3h-0.6V665.5z"/>
				</g>
			</g>
			<rect x="466.6" y="586.7" class="st39" width="5" height="55.4"/>
			<g class="st34">
				<g>
					<defs>
						<rect id="SVGID_11_" x="432.8" y="607.7" width="27.8" height="13.3"/>
					</defs>
					<clipPath id="SVGID_12_">
						<use xlink:href="#SVGID_11_"  style="overflow:visible;"/>
					</clipPath>
					<path class="st40" d="M434,609.5h3c1.6,0,2.5,0.8,2.5,2.1c0,1-0.6,1.6-1.3,1.8c0.6,0.2,1.6,0.8,1.6,2.1c0,1.7-1.3,2.4-2.7,2.4
						h-3V609.5z M436.8,613.1c1.5,0,2-0.5,2-1.5c0-0.8-0.6-1.5-1.8-1.5h-2.3v3H436.8z M434.7,617.3h2.4c1.1,0,2-0.5,2-1.8
						c0-1.1-0.7-1.8-2.4-1.8h-2V617.3z M441.4,617.9v-8.8h0.6v8.8H441.4z M448.1,616.7c0,0.5,0,0.9,0.1,1.1h-0.6
						c0-0.1-0.1-0.4-0.1-0.9c-0.2,0.4-0.7,1.1-2,1.1c-1.4,0-2-0.9-2-1.8c0-1.3,1-1.9,2.8-1.9c0.5,0,0.9,0,1.1,0v-0.6
						c0-0.6-0.2-1.4-1.6-1.4c-1.2,0-1.4,0.6-1.5,1.1h-0.6c0.1-0.7,0.5-1.7,2.2-1.7c1.4,0,2.2,0.6,2.2,1.9V616.7z M447.5,614.8
						c-0.2,0-0.8,0-1.2,0c-1.3,0-2.2,0.3-2.2,1.4c0,0.8,0.5,1.3,1.4,1.3c1.7,0,2-1.1,2-2.4V614.8z M454.5,616.1
						c-0.3,1.1-1,1.9-2.3,1.9c-1.5,0-2.6-1.1-2.6-3.1c0-1.6,0.9-3.2,2.7-3.2c1.5,0,2.2,1.1,2.3,1.9h-0.6c-0.2-0.7-0.6-1.4-1.7-1.4
						c-1.3,0-2,1.1-2,2.6c0,1.4,0.7,2.6,1.9,2.6c0.9,0,1.4-0.4,1.7-1.3H454.5z M456.5,615c0.6-0.6,2.2-2.3,3.1-3.1h0.8l-2.4,2.4
						l2.7,3.6h-0.7l-2.4-3.2l-1,1v2.3h-0.6v-8.8h0.6V615z"/>
				</g>
			</g>
			<rect x="466.6" y="511.6" class="st41" width="5" height="65.2"/>
			<g class="st34">
				<g>
					<defs>
						<rect id="SVGID_13_" x="418.8" y="537.4" width="44.4" height="13.3"/>
					</defs>
					<clipPath id="SVGID_14_">
						<use xlink:href="#SVGID_13_"  style="overflow:visible;"/>
					</clipPath>
					<path class="st42" d="M420,539.3h0.7v3.6h5.1v-3.6h0.7v8.4h-0.7v-4.1h-5.1v4.1H420V539.3z M428.5,538.8h0.6v1.2h-0.6V538.8z
						 M428.5,541.7h0.6v6h-0.6V541.7z M431,546c0.2,0.8,0.8,1.2,1.7,1.2c1.1,0,1.5-0.5,1.5-1.2c0-0.7-0.3-1-1.6-1.3
						c-1.6-0.4-1.9-0.8-1.9-1.6c0-0.8,0.6-1.6,2-1.6c1.4,0,2,0.8,2.1,1.7h-0.6c-0.1-0.5-0.5-1.1-1.5-1.1c-1.1,0-1.4,0.5-1.4,1
						c0,0.5,0.3,0.8,1.5,1.1c1.7,0.4,2.1,1,2.1,1.9c0,1.1-0.9,1.8-2.2,1.8c-1.4,0-2.2-0.7-2.3-1.8H431z M436.9,546.7v3.3h-0.6v-6.9
						c0-0.5,0-1,0-1.5h0.6c0,0.2,0,0.6,0,1.1c0.4-0.7,1-1.2,2.1-1.2c1.4,0,2.4,1.2,2.4,3c0,2.2-1.2,3.3-2.6,3.3
						C437.8,547.8,437.2,547.3,436.9,546.7z M440.8,544.5c0-1.4-0.7-2.4-1.9-2.4c-1.5,0-2.1,0.9-2.1,2.5c0,1.6,0.5,2.6,2,2.6
						C440.1,547.2,440.8,546.2,440.8,544.5z M447.1,546.5c0,0.5,0,0.9,0.1,1.1h-0.6c0-0.1-0.1-0.4-0.1-0.9c-0.2,0.4-0.7,1.1-2,1.1
						c-1.4,0-2-0.9-2-1.8c0-1.3,1-1.9,2.8-1.9c0.5,0,0.9,0,1.1,0v-0.6c0-0.6-0.2-1.4-1.6-1.4c-1.2,0-1.4,0.6-1.5,1.1h-0.6
						c0.1-0.7,0.5-1.7,2.2-1.7c1.4,0,2.2,0.6,2.2,1.9V546.5z M446.6,544.6c-0.2,0-0.8,0-1.2,0c-1.3,0-2.2,0.3-2.2,1.4
						c0,0.8,0.5,1.3,1.4,1.3c1.7,0,2-1.1,2-2.4V544.6z M449.1,543.2c0-0.5,0-1,0-1.5h0.6c0,0.2,0,1,0,1.1c0.3-0.6,0.8-1.3,2-1.3
						c1.1,0,2,0.6,2,2.2v3.9h-0.6v-3.8c0-1.1-0.4-1.8-1.5-1.8c-1.4,0-1.9,1.2-1.9,2.5v3h-0.6V543.2z M455.8,538.8h0.6v1.2h-0.6
						V538.8z M455.8,541.7h0.6v6h-0.6V541.7z M462.8,545.9c-0.3,1.1-1,1.9-2.3,1.9c-1.5,0-2.6-1.1-2.6-3.1c0-1.6,0.9-3.2,2.7-3.2
						c1.5,0,2.2,1.1,2.3,1.9h-0.6c-0.2-0.7-0.6-1.4-1.7-1.4c-1.3,0-2,1.1-2,2.6c0,1.4,0.7,2.6,1.9,2.6c0.9,0,1.4-0.4,1.7-1.3H462.8z
						"/>
				</g>
			</g>
			<rect x="466.6" y="652" class="st43" width="5" height="3.3"/>
			<g class="st34">
				<g>
					<defs>
						<rect id="SVGID_15_" x="415.5" y="647" width="49" height="13.3"/>
					</defs>
					<clipPath id="SVGID_16_">
						<use xlink:href="#SVGID_15_"  style="overflow:visible;"/>
					</clipPath>
					<path class="st44" d="M417.3,648.8v5.1c0,2.2,1.3,2.8,2.5,2.8c1.4,0,2.5-0.6,2.5-2.8v-5.1h0.7v5c0,2.6-1.4,3.4-3.2,3.4
						c-1.7,0-3.1-0.9-3.1-3.3v-5.1H417.3z M424.8,652.7c0-0.5,0-1,0-1.5h0.6c0,0.2,0,1,0,1.1c0.3-0.6,0.8-1.3,2-1.3
						c1.1,0,2,0.6,2,2.2v3.9h-0.6v-3.8c0-1.1-0.4-1.8-1.5-1.8c-1.4,0-1.9,1.2-1.9,2.5v3h-0.6V652.7z M432.1,654.3
						c0.6-0.6,2.2-2.3,3.1-3.1h0.8l-2.4,2.4l2.7,3.6h-0.7l-2.4-3.2l-1,1v2.3h-0.6v-8.8h0.6V654.3z M437.1,652.7c0-0.5,0-1,0-1.5h0.6
						c0,0.2,0,1,0,1.1c0.3-0.6,0.8-1.3,2-1.3c1.1,0,2,0.6,2,2.2v3.9h-0.6v-3.8c0-1.1-0.4-1.8-1.5-1.8c-1.4,0-1.9,1.2-1.9,2.5v3h-0.6
						V652.7z M448.6,654.2c0,1.7-0.9,3.1-2.7,3.1c-1.6,0-2.6-1.3-2.6-3.1c0-1.7,1-3.1,2.7-3.1C447.6,651,448.6,652.3,448.6,654.2z
						 M443.9,654.2c0,1.4,0.8,2.6,2.1,2.6c1.3,0,2-1.1,2-2.6c0-1.4-0.7-2.6-2.1-2.6C444.5,651.6,443.9,652.7,443.9,654.2z
						 M450.1,651.2c0.9,3.1,1.4,4.9,1.5,5.4h0c0.1-0.5,0.7-2.4,1.6-5.4h0.7c1.1,3.7,1.5,4.8,1.6,5.2h0c0.2-0.7,0.4-1.6,1.6-5.2h0.6
						l-1.9,6h-0.7c-0.7-2.1-1.4-4.7-1.6-5.3h0c-0.1,0.6-0.8,2.7-1.6,5.3h-0.7l-1.8-6H450.1z M458.8,652.7c0-0.5,0-1,0-1.5h0.6
						c0,0.2,0,1,0,1.1c0.3-0.6,0.8-1.3,2-1.3c1.1,0,2,0.6,2,2.2v3.9h-0.6v-3.8c0-1.1-0.4-1.8-1.5-1.8c-1.4,0-1.9,1.2-1.9,2.5v3h-0.6
						V652.7z"/>
				</g>
			</g>
			<rect x="466.6" y="169.3" class="st45" width="5" height="332.3"/>
			<g class="st34">
				<g>
					<defs>
						<rect id="SVGID_17_" x="431.7" y="328.7" width="29.9" height="13.3"/>
					</defs>
					<clipPath id="SVGID_18_">
						<use xlink:href="#SVGID_17_"  style="overflow:visible;"/>
					</clipPath>
					<path class="st46" d="M434.4,338.9l-2.3-8.4h0.7c0.6,2,1.9,6.6,2,7.6h0c0.2-0.8,1.5-5.4,2.1-7.6h0.7c0.6,2,1.9,7,2,7.6h0
						c0.3-1.2,1.7-5.6,2.3-7.6h0.7l-2.6,8.4h-0.7c-0.6-2-1.9-6.8-2-7.5h0c-0.2,1.1-1.5,5.5-2.1,7.5H434.4z M444.4,330.1v3.8
						c0.3-0.6,0.9-1.1,2-1.1c0.9,0,2,0.4,2,2.3v3.8h-0.6v-3.7c0-1.2-0.5-1.9-1.5-1.9c-1.2,0-1.9,0.7-1.9,2.2v3.3h-0.6v-8.8H444.4z
						 M450.4,330.1h0.6v1.2h-0.6V330.1z M450.4,332.9h0.6v6h-0.6V332.9z M452.2,332.9h1.1v-1.9h0.6v1.9h1.4v0.6h-1.4v3.9
						c0,0.7,0.1,1.1,0.7,1.1c0.2,0,0.4,0,0.6-0.1v0.5c-0.2,0.1-0.5,0.1-0.7,0.1c-0.8,0-1.2-0.4-1.2-1.3v-4.2h-1.1V332.9z M456.6,336
						c0,1.5,0.8,2.5,2,2.5c1.1,0,1.5-0.6,1.7-1.1h0.6c-0.3,0.8-0.9,1.7-2.4,1.7c-1.8,0-2.6-1.6-2.6-3.1c0-1.7,0.9-3.2,2.6-3.2
						c1.9,0,2.5,1.6,2.5,2.7c0,0.2,0,0.3,0,0.5H456.6z M460.5,335.5L460.5,335.5c0-1.2-0.7-2.1-1.9-2.1c-1.2,0-1.8,0.9-1.9,2.1
						H460.5z"/>
				</g>
			</g>
			<rect x="42.1" y="189.2" class="st47" width="5" height="458.6"/>
			<g class="st34">
				<g>
					<defs>
						<rect id="SVGID_19_" x="50.1" y="411.8" width="25" height="13.3"/>
					</defs>
					<clipPath id="SVGID_20_">
						<use xlink:href="#SVGID_19_"  style="overflow:visible;"/>
					</clipPath>
					<path class="st48" d="M58.6,418.1c0-1.6,0-3.2,0-4h0c-0.3,1.1-2.1,5.2-3.1,7.9h-0.6c-0.8-2-2.6-6.6-3-7.9h0
						c0.1,1,0.1,2.9,0.1,4.3v3.6h-0.7v-8.4h1c1.2,2.9,2.6,6.6,2.9,7.6h0c0.2-0.6,1.9-4.8,3.1-7.6h1v8.4h-0.7V418.1z M65.5,420.8
						c0,0.5,0,0.9,0.1,1.1H65c0-0.1-0.1-0.4-0.1-0.9c-0.2,0.4-0.7,1.1-2,1.1c-1.4,0-2-0.9-2-1.8c0-1.3,1-1.9,2.8-1.9
						c0.5,0,0.9,0,1.1,0v-0.6c0-0.6-0.2-1.4-1.6-1.4c-1.2,0-1.4,0.6-1.5,1.1h-0.6c0.1-0.7,0.5-1.7,2.2-1.7c1.4,0,2.2,0.6,2.2,1.9
						V420.8z M64.9,418.9c-0.2,0-0.8,0-1.2,0c-1.3,0-2.2,0.3-2.2,1.4c0,0.8,0.5,1.3,1.4,1.3c1.7,0,2-1.1,2-2.4V418.9z M67.5,422
						v-8.8h0.6v8.8H67.5z M70.2,419.1c0,1.5,0.8,2.5,2,2.5c1.1,0,1.5-0.6,1.7-1.1h0.6c-0.3,0.8-0.9,1.7-2.4,1.7
						c-1.8,0-2.6-1.6-2.6-3.1c0-1.7,0.9-3.2,2.6-3.2c1.9,0,2.5,1.6,2.5,2.7c0,0.2,0,0.3,0,0.5H70.2z M74,418.5L74,418.5
						c0-1.2-0.7-2.1-1.9-2.1c-1.2,0-1.8,0.9-1.9,2.1H74z"/>
				</g>
			</g>
		</g>
	</g>
</g>
<text transform="matrix(1 0 0 1 21.2973 47.942)"><tspan x="0" y="0" class="st49 st50">Who Reaches the Hospital?</tspan><tspan x="0" y="57.6" class="st49 st51">White and Hispanic males are less likely to die in a hospital when they overdose. White females </tspan><tspan x="0" y="86.4" class="st49 st51">are more likely to die outside a hospital when compared to Hispanic and Black females.</tspan></text>
<g>
	<g>
		<path class="st52" d="M46.9,1249.9c0.5,0.3,1.3,0.6,2.2,0.6c1.2,0,2-0.7,2-1.6c0-0.9-0.5-1.4-1.8-1.9c-1.5-0.5-2.5-1.4-2.5-2.7
			c0-1.5,1.2-2.6,3.1-2.6c1,0,1.7,0.2,2.1,0.5l-0.3,1c-0.3-0.2-0.9-0.4-1.8-0.4c-1.3,0-1.8,0.8-1.8,1.4c0,0.9,0.6,1.3,1.9,1.8
			c1.6,0.6,2.4,1.4,2.4,2.8c0,1.4-1.1,2.7-3.3,2.7c-0.9,0-1.9-0.3-2.4-0.6L46.9,1249.9z"/>
		<path class="st52" d="M60.1,1247.9c0,2.5-1.7,3.6-3.4,3.6c-1.8,0-3.3-1.3-3.3-3.5c0-2.3,1.5-3.6,3.4-3.6
			C58.7,1244.4,60.1,1245.8,60.1,1247.9z M54.7,1248c0,1.5,0.9,2.6,2.1,2.6c1.2,0,2.1-1.1,2.1-2.6c0-1.1-0.6-2.6-2-2.6
			C55.3,1245.4,54.7,1246.7,54.7,1248z"/>
		<path class="st52" d="M67.3,1249.5c0,0.7,0,1.3,0.1,1.9h-1.1l-0.1-1.1h0c-0.3,0.5-1,1.3-2.2,1.3c-1.1,0-2.3-0.6-2.3-3v-4h1.2v3.7
			c0,1.3,0.4,2.2,1.5,2.2c0.8,0,1.4-0.6,1.6-1.1c0.1-0.2,0.1-0.4,0.1-0.6v-4.1h1.2V1249.5z"/>
		<path class="st52" d="M69.3,1246.7c0-0.8,0-1.5-0.1-2.1h1.1l0,1.3h0c0.3-0.9,1.1-1.5,1.9-1.5c0.1,0,0.2,0,0.3,0v1.2
			c-0.1,0-0.2,0-0.4,0c-0.9,0-1.5,0.7-1.6,1.6c0,0.2,0,0.4,0,0.6v3.6h-1.2V1246.7z"/>
		<path class="st52" d="M78.7,1251.1c-0.3,0.2-1,0.4-1.9,0.4c-2,0-3.4-1.4-3.4-3.5c0-2.1,1.4-3.6,3.6-3.6c0.7,0,1.4,0.2,1.7,0.4
			l-0.3,0.9c-0.3-0.2-0.8-0.3-1.4-0.3c-1.5,0-2.4,1.2-2.4,2.6c0,1.6,1,2.5,2.4,2.5c0.7,0,1.2-0.2,1.5-0.3L78.7,1251.1z"/>
		<path class="st52" d="M80.9,1248.2c0,1.7,1.1,2.4,2.3,2.4c0.9,0,1.4-0.2,1.9-0.3l0.2,0.9c-0.4,0.2-1.2,0.4-2.3,0.4
			c-2.1,0-3.3-1.4-3.3-3.4c0-2.1,1.2-3.7,3.2-3.7c2.2,0,2.8,1.9,2.8,3.2c0,0.3,0,0.4,0,0.6H80.9z M84.5,1247.3c0-0.8-0.3-2-1.7-2
			c-1.3,0-1.8,1.1-1.9,2H84.5z"/>
		<path class="st52" d="M86.9,1245.7c0-0.5,0.3-0.9,0.8-0.9c0.5,0,0.8,0.4,0.8,0.9c0,0.5-0.3,0.9-0.8,0.9
			C87.2,1246.6,86.9,1246.2,86.9,1245.7z M86.9,1250.6c0-0.5,0.3-0.9,0.8-0.9c0.5,0,0.8,0.4,0.8,0.9c0,0.5-0.3,0.9-0.8,0.9
			C87.2,1251.5,86.9,1251.1,86.9,1250.6z"/>
		<path class="st52" d="M99.7,1251.1c-0.4,0.2-1.3,0.5-2.5,0.5c-2.7,0-4.6-1.7-4.6-4.8c0-3,2-5,4.9-5c1.2,0,1.9,0.2,2.2,0.4l-0.3,1
			c-0.5-0.2-1.1-0.4-1.9-0.4c-2.2,0-3.7,1.4-3.7,3.9c0,2.3,1.3,3.8,3.6,3.8c0.7,0,1.5-0.2,2-0.4L99.7,1251.1z"/>
		<path class="st52" d="M107.3,1247.9c0,2.5-1.7,3.6-3.4,3.6c-1.8,0-3.3-1.3-3.3-3.5c0-2.3,1.5-3.6,3.4-3.6
			C106,1244.4,107.3,1245.8,107.3,1247.9z M101.9,1248c0,1.5,0.9,2.6,2.1,2.6c1.2,0,2.1-1.1,2.1-2.6c0-1.1-0.6-2.6-2-2.6
			C102.6,1245.4,101.9,1246.7,101.9,1248z"/>
		<path class="st52" d="M108.9,1246.4c0-0.7,0-1.3-0.1-1.8h1.1l0.1,1.1h0c0.3-0.6,1.1-1.3,2.2-1.3c0.9,0,2.4,0.6,2.4,2.9v4h-1.2
			v-3.9c0-1.1-0.4-2-1.6-2c-0.8,0-1.4,0.6-1.7,1.3c-0.1,0.2-0.1,0.4-0.1,0.6v4.1h-1.2V1246.4z"/>
		<path class="st52" d="M116.6,1246.4c0-0.7,0-1.3-0.1-1.8h1.1l0.1,1.1h0c0.3-0.6,1.1-1.3,2.2-1.3c0.9,0,2.4,0.6,2.4,2.9v4h-1.2
			v-3.9c0-1.1-0.4-2-1.6-2c-0.8,0-1.4,0.6-1.7,1.3c-0.1,0.2-0.1,0.4-0.1,0.6v4.1h-1.2V1246.4z"/>
		<path class="st52" d="M125.1,1248.2c0,1.7,1.1,2.4,2.3,2.4c0.9,0,1.4-0.2,1.9-0.3l0.2,0.9c-0.4,0.2-1.2,0.4-2.3,0.4
			c-2.1,0-3.3-1.4-3.3-3.4c0-2.1,1.2-3.7,3.2-3.7c2.2,0,2.8,1.9,2.8,3.2c0,0.3,0,0.4,0,0.6H125.1z M128.7,1247.3c0-0.8-0.3-2-1.7-2
			c-1.3,0-1.8,1.1-1.9,2H128.7z"/>
		<path class="st52" d="M136.2,1251.1c-0.3,0.2-1,0.4-1.9,0.4c-2,0-3.4-1.4-3.4-3.5c0-2.1,1.4-3.6,3.6-3.6c0.7,0,1.4,0.2,1.7,0.4
			l-0.3,0.9c-0.3-0.2-0.8-0.3-1.4-0.3c-1.5,0-2.4,1.2-2.4,2.6c0,1.6,1,2.5,2.4,2.5c0.7,0,1.2-0.2,1.5-0.3L136.2,1251.1z"/>
		<path class="st52" d="M139.2,1242.6v2h1.8v0.9h-1.8v3.7c0,0.8,0.2,1.3,0.9,1.3c0.3,0,0.6,0,0.7-0.1l0.1,0.9
			c-0.2,0.1-0.6,0.2-1.1,0.2c-0.6,0-1-0.2-1.3-0.5c-0.3-0.4-0.5-1-0.5-1.8v-3.7h-1v-0.9h1v-1.6L139.2,1242.6z"/>
		<path class="st52" d="M143.7,1242.7c0,0.4-0.3,0.8-0.8,0.8c-0.4,0-0.7-0.3-0.7-0.8c0-0.4,0.3-0.8,0.8-0.8
			C143.4,1241.9,143.7,1242.2,143.7,1242.7z M142.3,1251.4v-6.8h1.2v6.8H142.3z"/>
		<path class="st52" d="M150.4,1251.1c-0.3,0.2-1,0.4-1.9,0.4c-2,0-3.4-1.4-3.4-3.5c0-2.1,1.4-3.6,3.6-3.6c0.7,0,1.4,0.2,1.7,0.4
			l-0.3,0.9c-0.3-0.2-0.8-0.3-1.4-0.3c-1.5,0-2.4,1.2-2.4,2.6c0,1.6,1,2.5,2.4,2.5c0.7,0,1.2-0.2,1.5-0.3L150.4,1251.1z"/>
		<path class="st52" d="M157.5,1249.5c0,0.7,0,1.3,0.1,1.9h-1.1l-0.1-1.1h0c-0.3,0.5-1,1.3-2.2,1.3c-1.1,0-2.3-0.6-2.3-3v-4h1.2v3.7
			c0,1.3,0.4,2.2,1.5,2.2c0.8,0,1.4-0.6,1.6-1.1c0.1-0.2,0.1-0.4,0.1-0.6v-4.1h1.2V1249.5z"/>
		<path class="st52" d="M161.1,1242.6v2h1.8v0.9h-1.8v3.7c0,0.8,0.2,1.3,0.9,1.3c0.3,0,0.6,0,0.7-0.1l0.1,0.9
			c-0.2,0.1-0.6,0.2-1.1,0.2c-0.6,0-1-0.2-1.3-0.5c-0.3-0.4-0.5-1-0.5-1.8v-3.7h-1v-0.9h1v-1.6L161.1,1242.6z"/>
		<path class="st52" d="M175.3,1246.5c0,3.2-2,5-4.4,5c-2.5,0-4.2-1.9-4.2-4.8c0-3,1.8-5,4.4-5
			C173.6,1241.8,175.3,1243.7,175.3,1246.5z M168,1246.7c0,2,1.1,3.8,3,3.8c1.9,0,3-1.8,3-3.9c0-1.9-1-3.8-3-3.8
			C169,1242.8,168,1244.6,168,1246.7z"/>
		<path class="st52" d="M185.3,1242.6c-0.3-0.2-0.8-0.4-1.4-0.4c-1.3,0-1.7,0.9-1.7,2v0.3h3.9v6.8H185v-5.8h-2.7v5.8H181v-5.8h-2.9
			v5.8h-1.2v-5.8H176v-0.9h0.9v-0.3c0-0.8,0.2-1.7,0.8-2.3c0.4-0.4,1-0.7,1.7-0.7c0.5,0,0.9,0.2,1.2,0.3l-0.3,0.9
			c-0.2-0.1-0.5-0.2-0.8-0.2c-0.4,0-0.7,0.1-0.9,0.4c-0.3,0.4-0.5,1-0.5,1.6v0.3h2.9v-0.4c0-1.8,1.1-2.9,3-2.9
			c0.6,0,1.3,0.2,1.7,0.4L185.3,1242.6z"/>
		<path class="st52" d="M193.1,1251.1c-0.3,0.2-1,0.4-1.9,0.4c-2,0-3.4-1.4-3.4-3.5c0-2.1,1.4-3.6,3.6-3.6c0.7,0,1.4,0.2,1.7,0.4
			l-0.3,0.9c-0.3-0.2-0.8-0.3-1.4-0.3c-1.5,0-2.4,1.2-2.4,2.6c0,1.6,1,2.5,2.4,2.5c0.7,0,1.2-0.2,1.5-0.3L193.1,1251.1z"/>
		<path class="st52" d="M195.2,1248.2c0,1.7,1.1,2.4,2.3,2.4c0.9,0,1.4-0.2,1.9-0.3l0.2,0.9c-0.4,0.2-1.2,0.4-2.3,0.4
			c-2.1,0-3.3-1.4-3.3-3.4c0-2.1,1.2-3.7,3.2-3.7c2.2,0,2.8,1.9,2.8,3.2c0,0.3,0,0.4,0,0.6H195.2z M198.8,1247.3c0-0.8-0.3-2-1.7-2
			c-1.3,0-1.8,1.1-1.9,2H198.8z"/>
		<path class="st52" d="M210.6,1247.9c0,2.5-1.7,3.6-3.4,3.6c-1.8,0-3.3-1.3-3.3-3.5c0-2.3,1.5-3.6,3.4-3.6
			C209.3,1244.4,210.6,1245.8,210.6,1247.9z M205.2,1248c0,1.5,0.9,2.6,2.1,2.6c1.2,0,2.1-1.1,2.1-2.6c0-1.1-0.6-2.6-2-2.6
			C205.9,1245.4,205.2,1246.7,205.2,1248z"/>
		<path class="st52" d="M212.3,1251.4v-5.8h-0.9v-0.9h0.9v-0.3c0-1,0.2-1.8,0.8-2.4c0.5-0.4,1.1-0.6,1.6-0.6c0.4,0,0.8,0.1,1.1,0.2
			l-0.2,0.9c-0.2-0.1-0.4-0.2-0.8-0.2c-1,0-1.3,0.9-1.3,2v0.4h1.6v0.9h-1.6v5.8H212.3z"/>
		<path class="st52" d="M219.3,1242c0.6-0.1,1.4-0.2,2.3-0.2c1.2,0,2.1,0.3,2.6,0.8c0.5,0.5,0.8,1.1,0.8,2c0,0.9-0.3,1.5-0.7,2
			c-0.7,0.7-1.7,1-2.9,1c-0.4,0-0.7,0-1-0.1v3.8h-1.2V1242z M220.5,1246.6c0.3,0.1,0.6,0.1,1,0.1c1.5,0,2.4-0.7,2.4-2
			c0-1.2-0.9-1.9-2.2-1.9c-0.5,0-0.9,0-1.2,0.1V1246.6z"/>
		<path class="st52" d="M232.8,1247.9c0,2.5-1.7,3.6-3.4,3.6c-1.8,0-3.3-1.3-3.3-3.5c0-2.3,1.5-3.6,3.4-3.6
			C231.5,1244.4,232.8,1245.8,232.8,1247.9z M227.4,1248c0,1.5,0.9,2.6,2.1,2.6c1.2,0,2.1-1.1,2.1-2.6c0-1.1-0.6-2.6-2-2.6
			C228.1,1245.4,227.4,1246.7,227.4,1248z"/>
		<path class="st52" d="M234.4,1241.4h1.2v9.9h-1.2V1241.4z"/>
		<path class="st52" d="M239,1242.7c0,0.4-0.3,0.8-0.8,0.8c-0.4,0-0.7-0.3-0.7-0.8c0-0.4,0.3-0.8,0.8-0.8
			C238.7,1241.9,239,1242.2,239,1242.7z M237.7,1251.4v-6.8h1.2v6.8H237.7z"/>
		<path class="st52" d="M245.8,1251.1c-0.3,0.2-1,0.4-1.9,0.4c-2,0-3.4-1.4-3.4-3.5c0-2.1,1.4-3.6,3.6-3.6c0.7,0,1.4,0.2,1.7,0.4
			l-0.3,0.9c-0.3-0.2-0.8-0.3-1.4-0.3c-1.5,0-2.4,1.2-2.4,2.6c0,1.6,1,2.5,2.4,2.5c0.7,0,1.2-0.2,1.5-0.3L245.8,1251.1z"/>
		<path class="st52" d="M247.7,1244.6l1.5,4c0.2,0.4,0.3,1,0.4,1.4h0c0.1-0.4,0.3-0.9,0.4-1.4l1.3-4h1.3l-1.9,4.8
			c-0.9,2.3-1.5,3.5-2.3,4.2c-0.6,0.5-1.2,0.7-1.5,0.8l-0.3-1c0.3-0.1,0.7-0.3,1.1-0.6c0.3-0.3,0.7-0.7,1-1.4
			c0.1-0.1,0.1-0.2,0.1-0.3c0-0.1,0-0.2-0.1-0.3l-2.5-6.2H247.7z"/>
		<path class="st52" d="M260.5,1251.4l-0.1-0.9h0c-0.4,0.5-1.1,1-2.1,1c-1.4,0-2.1-1-2.1-1.9c0-1.6,1.5-2.5,4.1-2.5v-0.1
			c0-0.6-0.2-1.6-1.5-1.6c-0.6,0-1.3,0.2-1.8,0.5l-0.3-0.8c0.6-0.4,1.4-0.6,2.2-0.6c2.1,0,2.6,1.4,2.6,2.8v2.5c0,0.6,0,1.2,0.1,1.6
			H260.5z M260.3,1247.9c-1.3,0-2.9,0.2-2.9,1.5c0,0.8,0.5,1.2,1.1,1.2c0.9,0,1.5-0.6,1.6-1.1c0-0.1,0.1-0.3,0.1-0.4V1247.9z"/>
		<path class="st52" d="M263.5,1246.4c0-0.7,0-1.3-0.1-1.8h1.1l0.1,1.1h0c0.3-0.6,1.1-1.3,2.2-1.3c0.9,0,2.4,0.6,2.4,2.9v4h-1.2
			v-3.9c0-1.1-0.4-2-1.6-2c-0.8,0-1.4,0.6-1.7,1.3c-0.1,0.2-0.1,0.4-0.1,0.6v4.1h-1.2V1246.4z"/>
		<path class="st52" d="M277.1,1241.4v8.2c0,0.6,0,1.3,0.1,1.7h-1.1l-0.1-1.2h0c-0.4,0.8-1.2,1.3-2.3,1.3c-1.6,0-2.9-1.4-2.9-3.4
			c0-2.3,1.4-3.6,3-3.6c1,0,1.7,0.5,2,1h0v-4H277.1z M275.9,1247.3c0-0.2,0-0.4-0.1-0.5c-0.2-0.8-0.9-1.4-1.8-1.4
			c-1.3,0-2,1.1-2,2.6c0,1.4,0.7,2.5,2,2.5c0.8,0,1.6-0.6,1.8-1.5c0-0.2,0.1-0.3,0.1-0.5V1247.3z"/>
		<path class="st52" d="M290.1,1247.2c-0.1-1.3-0.2-2.9-0.2-4.1h0c-0.3,1.1-0.7,2.3-1.2,3.6l-1.7,4.6h-0.9l-1.5-4.5
			c-0.4-1.3-0.8-2.5-1.1-3.7h0c0,1.2-0.1,2.7-0.2,4.2l-0.3,4.1h-1.2l0.7-9.4h1.6l1.6,4.6c0.4,1.2,0.7,2.2,0.9,3.2h0
			c0.2-1,0.6-2,1-3.2l1.7-4.6h1.6l0.6,9.4h-1.2L290.1,1247.2z"/>
		<path class="st52" d="M297.2,1251.4l-0.1-0.9h0c-0.4,0.5-1.1,1-2.1,1c-1.4,0-2.1-1-2.1-1.9c0-1.6,1.5-2.5,4.1-2.5v-0.1
			c0-0.6-0.2-1.6-1.5-1.6c-0.6,0-1.3,0.2-1.8,0.5l-0.3-0.8c0.6-0.4,1.4-0.6,2.2-0.6c2.1,0,2.6,1.4,2.6,2.8v2.5c0,0.6,0,1.2,0.1,1.6
			H297.2z M297,1247.9c-1.3,0-2.9,0.2-2.9,1.5c0,0.8,0.5,1.2,1.1,1.2c0.9,0,1.5-0.6,1.6-1.1c0-0.1,0.1-0.3,0.1-0.4V1247.9z"/>
		<path class="st52" d="M300.2,1246.4c0-0.7,0-1.3-0.1-1.8h1.1l0.1,1.1h0c0.3-0.6,1.1-1.3,2.2-1.3c0.9,0,2.4,0.6,2.4,2.9v4h-1.2
			v-3.9c0-1.1-0.4-2-1.6-2c-0.8,0-1.4,0.6-1.7,1.3c-0.1,0.2-0.1,0.4-0.1,0.6v4.1h-1.2V1246.4z"/>
		<path class="st52" d="M311.7,1251.4l-0.1-0.9h0c-0.4,0.5-1.1,1-2.1,1c-1.4,0-2.1-1-2.1-1.9c0-1.6,1.5-2.5,4.1-2.5v-0.1
			c0-0.6-0.2-1.6-1.5-1.6c-0.6,0-1.3,0.2-1.8,0.5l-0.3-0.8c0.6-0.4,1.4-0.6,2.2-0.6c2.1,0,2.6,1.4,2.6,2.8v2.5c0,0.6,0,1.2,0.1,1.6
			H311.7z M311.5,1247.9c-1.3,0-2.9,0.2-2.9,1.5c0,0.8,0.5,1.2,1.1,1.2c0.9,0,1.5-0.6,1.6-1.1c0-0.1,0.1-0.3,0.1-0.4V1247.9z"/>
		<path class="st52" d="M320.5,1244.6c0,0.5-0.1,1-0.1,1.9v3.9c0,1.6-0.3,2.5-1,3.1c-0.7,0.6-1.6,0.8-2.5,0.8
			c-0.8,0-1.7-0.2-2.3-0.6l0.3-0.9c0.5,0.3,1.1,0.5,2,0.5c1.3,0,2.2-0.7,2.2-2.4v-0.8h0c-0.4,0.6-1.1,1.1-2.2,1.1
			c-1.7,0-2.9-1.4-2.9-3.3c0-2.3,1.5-3.6,3.1-3.6c1.2,0,1.8,0.6,2.1,1.2h0l0.1-1H320.5z M319.2,1247.3c0-0.2,0-0.4-0.1-0.6
			c-0.2-0.7-0.8-1.3-1.7-1.3c-1.2,0-2,1-2,2.6c0,1.3,0.7,2.4,2,2.4c0.8,0,1.4-0.5,1.7-1.3c0.1-0.2,0.1-0.4,0.1-0.7V1247.3z"/>
		<path class="st52" d="M323.2,1248.2c0,1.7,1.1,2.4,2.3,2.4c0.9,0,1.4-0.2,1.9-0.3l0.2,0.9c-0.4,0.2-1.2,0.4-2.3,0.4
			c-2.1,0-3.3-1.4-3.3-3.4c0-2.1,1.2-3.7,3.2-3.7c2.2,0,2.8,1.9,2.8,3.2c0,0.3,0,0.4,0,0.6H323.2z M326.8,1247.3c0-0.8-0.3-2-1.7-2
			c-1.3,0-1.8,1.1-1.9,2H326.8z"/>
		<path class="st52" d="M329.5,1246.4c0-0.7,0-1.3-0.1-1.8h1.1l0.1,1.1h0c0.4-0.6,1-1.2,2.1-1.2c0.9,0,1.6,0.6,1.9,1.4h0
			c0.2-0.4,0.5-0.7,0.8-0.9c0.4-0.3,0.9-0.5,1.5-0.5c0.9,0,2.2,0.6,2.2,2.9v4H338v-3.8c0-1.3-0.5-2.1-1.5-2.1
			c-0.7,0-1.2,0.5-1.5,1.1c-0.1,0.2-0.1,0.4-0.1,0.6v4.2h-1.2v-4.1c0-1.1-0.5-1.9-1.4-1.9c-0.8,0-1.3,0.6-1.5,1.2
			c-0.1,0.2-0.1,0.4-0.1,0.6v4.1h-1.2V1246.4z"/>
		<path class="st52" d="M341.9,1248.2c0,1.7,1.1,2.4,2.3,2.4c0.9,0,1.4-0.2,1.9-0.3l0.2,0.9c-0.4,0.2-1.2,0.4-2.3,0.4
			c-2.1,0-3.3-1.4-3.3-3.4c0-2.1,1.2-3.7,3.2-3.7c2.2,0,2.8,1.9,2.8,3.2c0,0.3,0,0.4,0,0.6H341.9z M345.5,1247.3c0-0.8-0.3-2-1.7-2
			c-1.3,0-1.8,1.1-1.9,2H345.5z"/>
		<path class="st52" d="M348.2,1246.4c0-0.7,0-1.3-0.1-1.8h1.1l0.1,1.1h0c0.3-0.6,1.1-1.3,2.2-1.3c0.9,0,2.4,0.6,2.4,2.9v4h-1.2
			v-3.9c0-1.1-0.4-2-1.6-2c-0.8,0-1.4,0.6-1.7,1.3c-0.1,0.2-0.1,0.4-0.1,0.6v4.1h-1.2V1246.4z"/>
		<path class="st52" d="M357.4,1242.6v2h1.8v0.9h-1.8v3.7c0,0.8,0.2,1.3,0.9,1.3c0.3,0,0.6,0,0.7-0.1l0.1,0.9
			c-0.2,0.1-0.6,0.2-1.1,0.2c-0.6,0-1-0.2-1.3-0.5c-0.3-0.4-0.5-1-0.5-1.8v-3.7h-1v-0.9h1v-1.6L357.4,1242.6z"/>
	</g>
</g>
</svg>
