<?xml version="1.0" encoding="utf-8"?>
<!-- Generator: Adobe Illustrator 23.0.4, SVG Export Plug-In . SVG Version: 6.00 Build 0)  -->
<svg version="1.1" id="Layer_1" xmlns="http://www.w3.org/2000/svg" xmlns:xlink="http://www.w3.org/1999/xlink" x="0px" y="0px"
	 viewBox="0 0 1014 567" style="enable-background:new 0 0 1014 567;" xml:space="preserve">
<style type="text/css">
	.st0{fill:none;stroke:#BF6969;stroke-width:252.1877;stroke-opacity:0.5;}
	.st1{fill:none;stroke:#BF6969;stroke-width:41.7264;stroke-opacity:0.5;}
	.st2{fill:none;stroke:#BF6969;stroke-width:27.7014;stroke-opacity:0.5;}
	.st3{fill:none;stroke:#BF6969;stroke-width:2.0036;stroke-opacity:0.5;}
	.st4{fill:none;stroke:#BF6969;stroke-width:1.6551;stroke-opacity:0.5;}
	.st5{fill:none;stroke:#BF6969;stroke-width:8.711147e-02;stroke-opacity:0.5;}
	.st6{fill:none;stroke:#BFA269;stroke-width:8.8854;stroke-opacity:0.5;}
	.st7{fill:none;stroke:#BFA269;stroke-width:94.6031;stroke-opacity:0.5;}
	.st8{fill:none;stroke:#BFA269;stroke-width:9.7565;stroke-opacity:0.5;}
	.st9{fill:none;stroke:#BFA269;stroke-width:0.3484;stroke-opacity:0.5;}
	.st10{fill:none;stroke:#BFA269;stroke-width:0.9582;stroke-opacity:0.5;}
	.st11{fill:none;stroke:#A2BF69;stroke-width:244.7832;stroke-opacity:0.5;}
	.st12{fill:none;stroke:#A2BF69;stroke-width:102.0075;stroke-opacity:0.5;}
	.st13{fill:none;stroke:#488EB5;stroke-width:31.1859;stroke-opacity:0.5;}
	.st14{fill:none;stroke:#488EB5;stroke-width:19.4259;stroke-opacity:0.5;}
	.st15{fill:none;stroke:#9969BF;stroke-width:16.6383;stroke-opacity:0.5;}
	.st16{fill:none;stroke:#9969BF;stroke-width:20.8196;stroke-opacity:0.5;}
	.st17{fill:none;stroke:#69A2BF;stroke-width:1.1324;stroke-opacity:0.5;}
	.st18{fill:none;stroke:#69A2BF;stroke-width:1.8293;stroke-opacity:0.5;}
	.st19{fill:none;stroke:#6969BF;stroke-width:0.5227;stroke-opacity:0.5;}
	.st20{fill:none;stroke:#6969BF;stroke-width:1.4809;stroke-opacity:0.5;}
	.st21{fill:none;stroke:#A269BF;stroke-width:8.711147e-02;stroke-opacity:0.5;}
	.st22{fill:none;stroke:#BF69A2;stroke-width:8.711147e-02;stroke-opacity:0.5;}
	.st23{enable-background:new    ;}
	.st24{fill:#B1D3B3;}
	.st25{fill:#FFE2B8;}
	.st26{fill:#C29C9D;}
</style>
<g transform="translate(0, 10)">
	<g>
		<path class="st0" d="M118,173.1c208.8,0,208.8-25,417.5-25"/>
		<path class="st1" d="M118,320.1c208.8,0,208.8,79.6,417.5,79.6"/>
		<path class="st2" d="M118,354.8c208.8,0,208.8,98.5,417.5,98.5"/>
		<path class="st3" d="M118,369.6c208.8,0,208.8,118.2,417.5,118.2"/>
		<path class="st4" d="M118,371.4c208.8,0,208.8,129.2,417.5,129.2"/>
		<path class="st5" d="M118,372.3c208.8,0,208.8,139.6,417.5,139.6"/>
		<path class="st5" d="M118,372.4c208.8,0,208.8,149.6,417.5,149.6"/>
		<path class="st6" d="M118,481.5c208.8,0,208.8-56.5,417.5-56.5"/>
		<path class="st7" d="M118,429.7c208.8,0,208.8-108.3,417.5-108.3"/>
		<path class="st8" d="M118,490.8c208.8,0,208.8-18.8,417.5-18.8"/>
		<path class="st9" d="M118,496.8c208.8,0,208.8,4.8,417.5,4.8"/>
		<path class="st10" d="M118,496.2c208.8,0,208.8-6.8,417.5-6.8"/>
		<path class="st11" d="M539.5,144.4c208.8,0,208.8,25,417.5,25"/>
		<path class="st12" d="M539.5,317.8c208.8,0,208.8,89.4,417.5,89.4"/>
		<path class="st13" d="M539.5,394.4c208.8,0,208.8-87,417.5-87"/>
		<path class="st14" d="M539.5,419.7c208.8,0,208.8,48.2,417.5,48.2"/>
		<path class="st15" d="M539.5,468.5c208.8,0,208.8,17.4,417.5,17.4"/>
		<path class="st16" d="M539.5,449.8c208.8,0,208.8-116.4,417.5-116.4"/>
		<path class="st17" d="M539.5,489.3c208.8,0,208.8,5.5,417.5,5.5"/>
		<path class="st18" d="M539.5,487.8c208.8,0,208.8-143.1,417.5-143.1"/>
		<path class="st19" d="M539.5,500.1c208.8,0,208.8-154.2,417.5-154.2"/>
		<path class="st20" d="M539.5,501.1c208.8,0,208.8-5,417.5-5"/>
		<path class="st21" d="M539.5,511.9c208.8,0,208.8-15,417.5-15"/>
		<path class="st22" d="M539.5,522c208.8,0,208.8-25,417.5-25"/>
	</g>
	<g>
		<g>
			<g>
				<g class="st23">
					<path d="M915.9,422.4h1.1v3.2h3.8v-3.2h1.1v7.6h-1.1v-3.5H917v3.5h-1.1V422.4z"/>
					<path d="M928.6,427.3c0,1.6-0.9,2.9-2.7,2.9c-1.6,0-2.6-1.2-2.6-2.9c0-1.7,1-2.9,2.7-2.9C927.6,424.3,928.6,425.5,928.6,427.3z
						 M924.4,427.3c0,1.2,0.6,2,1.5,2c1,0,1.5-0.8,1.5-2c0-1.2-0.5-2.1-1.5-2.1C925,425.2,924.4,426,924.4,427.3z"/>
					<path d="M930.4,428.5c0.2,0.6,0.6,0.9,1.3,0.9c0.8,0,1.1-0.3,1.1-0.8c0-0.5-0.3-0.7-1.3-1c-1.6-0.4-2-0.9-2-1.7
						c0-0.8,0.6-1.6,2.1-1.6c1.5,0,2.1,0.9,2.2,1.6h-1c-0.1-0.3-0.3-0.8-1.2-0.8c-0.7,0-1,0.3-1,0.7c0,0.4,0.2,0.6,1.2,0.8
						c1.7,0.4,2.1,1,2.1,1.8c0,1-0.8,1.7-2.2,1.7c-1.5,0-2.2-0.8-2.3-1.8H930.4z"/>
					<path d="M936.2,429.4v2.8h-1.1v-6.4c0-0.5,0-0.9,0-1.4h1c0,0.2,0,0.5,0,0.8c0.3-0.5,0.8-1,1.8-1c1.3,0,2.2,1.1,2.2,2.8
						c0,2-1.1,3.1-2.4,3.1C936.9,430.2,936.4,429.8,936.2,429.4z M939.1,427.2c0-1.2-0.5-1.9-1.4-1.9c-1.1,0-1.5,0.7-1.5,2
						c0,1.3,0.4,2,1.5,2C938.6,429.3,939.1,428.5,939.1,427.2z"/>
					<path d="M941.4,422h1.1v1.2h-1.1V422z M941.4,424.5h1.1v5.6h-1.1V424.5z"/>
					<path d="M943.4,424.5h0.9v-1.6h1.1v1.6h1.2v0.9h-1.2v3.2c0,0.5,0.1,0.8,0.6,0.8c0.1,0,0.3,0,0.5,0v0.8
						c-0.3,0.1-0.6,0.1-0.9,0.1c-0.9,0-1.3-0.5-1.3-1.4v-3.4h-0.9V424.5z"/>
					<path d="M952,428.8c0,0.5,0,1.1,0.1,1.3h-1c0-0.1-0.1-0.4-0.1-0.7c-0.2,0.4-0.6,0.8-1.7,0.8c-1.3,0-1.9-0.9-1.9-1.7
						c0-1.3,1-1.8,2.7-1.8c0.4,0,0.7,0,0.9,0v-0.5c0-0.5-0.2-1-1.1-1c-0.9,0-1,0.4-1.1,0.9h-1c0.1-0.8,0.6-1.7,2.2-1.7
						c1.4,0,2.2,0.6,2.2,1.9V428.8z M950.9,427.4c-0.2,0-0.6,0-0.9,0c-1.1,0-1.6,0.3-1.6,1c0,0.5,0.4,1,1,1c1.3,0,1.4-0.9,1.4-1.8
						V427.4z"/>
					<path d="M953.6,430.1V422h1.1v8.1H953.6z"/>
				</g>
			</g>
		</g>
		<g>
			<g>
				<g class="st23">
					<path d="M898.7,200.1v-7.6h1.5c1.1,1.8,3.3,5.4,3.7,6.3h0c-0.1-0.9-0.1-2.2-0.1-3.4v-2.8h1.1v7.6h-1.4c-1-1.6-3.4-5.6-3.8-6.5
						h0c0.1,0.8,0.1,2.2,0.1,3.6v2.9H898.7z"/>
					<path d="M911.6,197.3c0,1.6-0.9,2.9-2.7,2.9c-1.6,0-2.6-1.2-2.6-2.9c0-1.7,1-2.9,2.7-2.9C910.6,194.3,911.6,195.5,911.6,197.3z
						 M907.5,197.3c0,1.2,0.6,2,1.5,2c1,0,1.5-0.8,1.5-2c0-1.2-0.5-2.1-1.5-2.1C908,195.2,907.5,196,907.5,197.3z"/>
					<path d="M915.8,192.4h1.1v3.2h3.8v-3.2h1.1v7.6h-1.1v-3.5h-3.8v3.5h-1.1V192.4z"/>
					<path d="M928.6,197.3c0,1.6-0.9,2.9-2.7,2.9c-1.6,0-2.6-1.2-2.6-2.9c0-1.7,1-2.9,2.7-2.9C927.5,194.3,928.6,195.5,928.6,197.3z
						 M924.4,197.3c0,1.2,0.6,2,1.5,2c1,0,1.5-0.8,1.5-2c0-1.2-0.5-2.1-1.5-2.1C924.9,195.2,924.4,196,924.4,197.3z"/>
					<path d="M930.4,198.5c0.2,0.6,0.6,0.9,1.3,0.9c0.8,0,1.1-0.3,1.1-0.8c0-0.5-0.3-0.7-1.3-1c-1.6-0.4-2-0.9-2-1.7
						c0-0.8,0.6-1.6,2.1-1.6c1.5,0,2.1,0.9,2.2,1.6h-1c-0.1-0.3-0.3-0.8-1.2-0.8c-0.7,0-1,0.3-1,0.7c0,0.4,0.2,0.6,1.2,0.8
						c1.7,0.4,2.1,1,2.1,1.8c0,1-0.8,1.7-2.2,1.7c-1.5,0-2.2-0.8-2.3-1.8H930.4z"/>
					<path d="M936.1,199.4v2.8h-1.1v-6.4c0-0.5,0-0.9,0-1.4h1c0,0.2,0,0.5,0,0.8c0.3-0.5,0.8-1,1.8-1c1.3,0,2.2,1.1,2.2,2.8
						c0,2-1.1,3.1-2.4,3.1C936.9,200.2,936.4,199.8,936.1,199.4z M939.1,197.2c0-1.2-0.5-1.9-1.4-1.9c-1.1,0-1.5,0.7-1.5,2
						c0,1.3,0.4,2,1.5,2C938.5,199.3,939.1,198.5,939.1,197.2z"/>
					<path d="M941.4,192h1.1v1.2h-1.1V192z M941.4,194.5h1.1v5.6h-1.1V194.5z"/>
					<path d="M943.4,194.5h0.9v-1.6h1.1v1.6h1.2v0.9h-1.2v3.2c0,0.5,0.1,0.8,0.6,0.8c0.1,0,0.3,0,0.5,0v0.8
						c-0.3,0.1-0.6,0.1-0.9,0.1c-0.9,0-1.3-0.5-1.3-1.4v-3.4h-0.9V194.5z"/>
					<path d="M951.9,198.8c0,0.5,0,1.1,0.1,1.3h-1c0-0.1-0.1-0.4-0.1-0.7c-0.2,0.4-0.6,0.8-1.7,0.8c-1.3,0-1.9-0.9-1.9-1.7
						c0-1.3,1-1.8,2.7-1.8c0.4,0,0.7,0,0.9,0v-0.5c0-0.5-0.2-1-1.1-1c-0.9,0-1,0.4-1.1,0.9h-1c0.1-0.8,0.6-1.7,2.2-1.7
						c1.4,0,2.2,0.6,2.2,1.9V198.8z M950.9,197.4c-0.2,0-0.6,0-0.9,0c-1.1,0-1.6,0.3-1.6,1c0,0.5,0.4,1,1,1c1.3,0,1.4-0.9,1.4-1.8
						V197.4z"/>
					<path d="M953.6,200.1V192h1.1v8.1H953.6z"/>
				</g>
			</g>
		</g>
		<g>
			<rect x="535.5" y="486.9" width="4" height="3"/>
			<g>
				<g class="st23">
					<path d="M506.6,489.6l-0.8,2.2h-1.1l2.7-7.6h1.4l2.8,7.6h-1.2l-0.8-2.2H506.6z M509.3,488.7c-0.7-1.9-1.1-3-1.3-3.6h0
						c-0.2,0.7-0.6,1.9-1.2,3.6H509.3z"/>
					<path d="M513.2,490.2c0.2,0.6,0.6,0.9,1.3,0.9c0.8,0,1.1-0.3,1.1-0.8c0-0.5-0.3-0.7-1.3-1c-1.6-0.4-2-0.9-2-1.7
						c0-0.8,0.6-1.6,2.1-1.6c1.5,0,2.1,0.9,2.2,1.6h-1c-0.1-0.3-0.3-0.8-1.2-0.8c-0.7,0-1,0.3-1,0.7c0,0.4,0.2,0.6,1.2,0.8
						c1.7,0.4,2.1,1,2.1,1.8c0,1-0.8,1.7-2.2,1.7c-1.5,0-2.2-0.8-2.3-1.8H513.2z"/>
					<path d="M517.9,483.8h1.1v1.2h-1.1V483.8z M517.9,486.2h1.1v5.6h-1.1V486.2z"/>
					<path d="M524.8,490.6c0,0.5,0,1.1,0.1,1.3h-1c0-0.1-0.1-0.4-0.1-0.7c-0.2,0.4-0.6,0.8-1.7,0.8c-1.3,0-1.9-0.9-1.9-1.7
						c0-1.3,1-1.8,2.7-1.8c0.4,0,0.7,0,0.9,0V488c0-0.5-0.2-1-1.1-1c-0.9,0-1,0.4-1.1,0.9h-1c0.1-0.8,0.6-1.7,2.2-1.7
						c1.4,0,2.2,0.6,2.2,1.9V490.6z M523.8,489.1c-0.2,0-0.6,0-0.9,0c-1.1,0-1.6,0.3-1.6,1c0,0.5,0.4,1,1,1c1.3,0,1.4-0.9,1.4-1.8
						V489.1z"/>
					<path d="M526.5,487.7c0-0.5,0-1,0-1.4h1c0,0.2,0,0.7,0,0.9c0.2-0.5,0.7-1,1.7-1c1.1,0,1.9,0.7,1.9,2.1v3.6h-1.1v-3.5
						c0-0.8-0.3-1.4-1.1-1.4c-1,0-1.4,0.7-1.4,1.8v3h-1.1V487.7z"/>
				</g>
			</g>
		</g>
		<g>
			<rect x="535.5" y="439.4" width="4" height="37.5"/>
			<g>
				<g class="st23">
					<path d="M506,454h3c1.7,0,2.4,0.9,2.4,1.9c0,0.9-0.5,1.5-1.1,1.7c0.5,0.2,1.3,0.7,1.3,1.8c0,1.4-1.1,2.2-2.6,2.2H506V454z
						 M508.9,457.1c1,0,1.5-0.4,1.5-1.1c0-0.7-0.5-1.1-1.3-1.1h-1.8v2.2H508.9z M507.1,460.7h1.8c0.9,0,1.6-0.4,1.6-1.3
						c0-0.8-0.5-1.3-1.7-1.3h-1.7V460.7z"/>
					<path d="M513,461.6v-8.1h1.1v8.1H513z"/>
					<path d="M520,460.4c0,0.5,0,1.1,0.1,1.3h-1c0-0.1-0.1-0.4-0.1-0.7c-0.2,0.4-0.6,0.8-1.7,0.8c-1.3,0-1.9-0.9-1.9-1.7
						c0-1.3,1-1.8,2.7-1.8c0.4,0,0.7,0,0.9,0v-0.5c0-0.5-0.2-1-1.1-1c-0.9,0-1,0.4-1.1,0.9h-1c0.1-0.8,0.6-1.7,2.2-1.7
						c1.4,0,2.2,0.6,2.2,1.9V460.4z M518.9,458.9c-0.2,0-0.6,0-0.9,0c-1.1,0-1.6,0.3-1.6,1c0,0.5,0.4,1,1,1c1.3,0,1.4-0.9,1.4-1.8
						V458.9z"/>
					<path d="M526.1,459.9c-0.2,1-0.9,1.9-2.4,1.9c-1.6,0-2.5-1.1-2.5-2.9c0-1.6,0.9-3,2.6-3c1.7,0,2.2,1.2,2.3,1.9H525
						c-0.1-0.5-0.5-1-1.2-1c-0.9,0-1.5,0.8-1.5,2c0,1.3,0.5,2.1,1.4,2.1c0.7,0,1.1-0.4,1.3-1H526.1z"/>
					<path d="M528.3,458.6c0.5-0.6,1.6-1.8,2.4-2.6h1.3l-2.1,2.2l2.3,3.4h-1.3l-1.8-2.7l-0.8,0.8v1.9h-1.1v-8.1h1.1V458.6z"/>
				</g>
			</g>
		</g>
		<g>
			<rect x="535.5" y="511.8" width="4" height="0.1"/>
			<g>
				<g class="st23">
					<path d="M489.4,507.7h1.1v3.2h3.8v-3.2h1.1v7.6h-1.1v-3.5h-3.8v3.5h-1.1V507.7z"/>
					<path d="M501.5,514.1c0,0.5,0,1.1,0.1,1.3h-1c0-0.1-0.1-0.4-0.1-0.7c-0.2,0.4-0.6,0.8-1.7,0.8c-1.3,0-1.9-0.9-1.9-1.7
						c0-1.3,1-1.8,2.7-1.8c0.4,0,0.7,0,0.9,0v-0.5c0-0.5-0.2-1-1.1-1c-0.9,0-1,0.4-1.1,0.9h-1c0.1-0.8,0.6-1.7,2.2-1.7
						c1.4,0,2.2,0.6,2.2,1.9V514.1z M500.4,512.7c-0.2,0-0.6,0-0.9,0c-1.1,0-1.6,0.3-1.6,1c0,0.5,0.4,1,1,1c1.3,0,1.4-0.9,1.4-1.8
						V512.7z"/>
					<path d="M503.7,509.8c0.7,2.6,1,4,1.1,4.6h0c0.1-0.5,0.5-1.8,1.2-4.6h1c0.8,3.1,1.1,4,1.2,4.5h0c0.1-0.6,0.3-1.4,1.2-4.5h1.1
						l-1.7,5.6h-1.2c-0.5-2.1-1-3.8-1.1-4.4h0c-0.1,0.6-0.6,2.2-1.2,4.4h-1.2l-1.6-5.6H503.7z"/>
					<path d="M515.9,514.1c0,0.5,0,1.1,0.1,1.3h-1c0-0.1-0.1-0.4-0.1-0.7c-0.2,0.4-0.6,0.8-1.7,0.8c-1.3,0-1.9-0.9-1.9-1.7
						c0-1.3,1-1.8,2.7-1.8c0.4,0,0.7,0,0.9,0v-0.5c0-0.5-0.2-1-1.1-1c-0.9,0-1,0.4-1.1,0.9h-1c0.1-0.8,0.6-1.7,2.2-1.7
						c1.4,0,2.2,0.6,2.2,1.9V514.1z M514.8,512.7c-0.2,0-0.6,0-0.9,0c-1.1,0-1.6,0.3-1.6,1c0,0.5,0.4,1,1,1c1.3,0,1.4-0.9,1.4-1.8
						V512.7z"/>
					<path d="M517.5,507.3h1.1v1.2h-1.1V507.3z M517.5,509.8h1.1v5.6h-1.1V509.8z"/>
					<path d="M520.2,507.3h1.1v1.2h-1.1V507.3z M520.2,509.8h1.1v5.6h-1.1V509.8z"/>
					<path d="M527.1,514.1c0,0.5,0,1.1,0.1,1.3h-1c0-0.1-0.1-0.4-0.1-0.7c-0.2,0.4-0.6,0.8-1.7,0.8c-1.3,0-1.9-0.9-1.9-1.7
						c0-1.3,1-1.8,2.7-1.8c0.4,0,0.7,0,0.9,0v-0.5c0-0.5-0.2-1-1.1-1c-0.9,0-1,0.4-1.1,0.9h-1c0.1-0.8,0.6-1.7,2.2-1.7
						c1.4,0,2.2,0.6,2.2,1.9V514.1z M526.1,512.7c-0.2,0-0.6,0-0.9,0c-1.1,0-1.6,0.3-1.6,1c0,0.5,0.4,1,1,1c1.3,0,1.4-0.9,1.4-1.8
						V512.7z"/>
					<path d="M528.7,511.2c0-0.5,0-1,0-1.4h1c0,0.2,0,0.7,0,0.9c0.2-0.5,0.7-1,1.7-1c1.1,0,1.9,0.7,1.9,2.1v3.6h-1.1v-3.5
						c0-0.8-0.3-1.4-1.1-1.4c-1,0-1.4,0.7-1.4,1.8v3h-1.1V511.2z"/>
				</g>
			</g>
		</g>
		<g>
			<rect x="535.5" y="378.8" width="4" height="50.6"/>
			<g>
				<g class="st23">
					<path d="M492.1,400h1.1v3.2h3.8V400h1.1v7.6h-1.1v-3.5h-3.8v3.5h-1.1V400z"/>
					<path d="M500,399.5h1.1v1.2H500V399.5z M500,402h1.1v5.6H500V402z"/>
					<path d="M503.3,406c0.2,0.6,0.6,0.9,1.3,0.9c0.8,0,1.1-0.3,1.1-0.8c0-0.5-0.3-0.7-1.3-1c-1.6-0.4-2-0.9-2-1.7
						c0-0.8,0.6-1.6,2.1-1.6c1.5,0,2.1,0.9,2.2,1.6h-1c-0.1-0.3-0.3-0.8-1.2-0.8c-0.7,0-1,0.3-1,0.7c0,0.4,0.2,0.6,1.2,0.8
						c1.7,0.4,2.1,1,2.1,1.8c0,1-0.8,1.7-2.2,1.7c-1.5,0-2.2-0.8-2.3-1.8H503.3z"/>
					<path d="M509.1,406.9v2.8H508v-6.4c0-0.5,0-0.9,0-1.4h1c0,0.2,0,0.5,0,0.8c0.3-0.5,0.8-1,1.8-1c1.3,0,2.2,1.1,2.2,2.8
						c0,2-1.1,3.1-2.4,3.1C509.8,407.7,509.3,407.4,509.1,406.9z M512,404.7c0-1.2-0.5-1.9-1.4-1.9c-1.1,0-1.5,0.7-1.5,2
						c0,1.3,0.4,2,1.5,2C511.5,406.8,512,406,512,404.7z"/>
					<path d="M518.6,406.3c0,0.5,0,1.1,0.1,1.3h-1c0-0.1-0.1-0.4-0.1-0.7c-0.2,0.4-0.6,0.8-1.7,0.8c-1.3,0-1.9-0.9-1.9-1.7
						c0-1.3,1-1.8,2.7-1.8c0.4,0,0.7,0,0.9,0v-0.5c0-0.5-0.2-1-1.1-1c-0.9,0-1,0.4-1.1,0.9h-1c0.1-0.8,0.6-1.7,2.2-1.7
						c1.4,0,2.2,0.6,2.2,1.9V406.3z M517.5,404.9c-0.2,0-0.6,0-0.9,0c-1.1,0-1.6,0.3-1.6,1c0,0.5,0.4,1,1,1c1.3,0,1.4-0.9,1.4-1.8
						V404.9z"/>
					<path d="M520.2,403.4c0-0.5,0-1,0-1.4h1c0,0.2,0,0.7,0,0.9c0.2-0.5,0.7-1,1.7-1c1.1,0,1.9,0.7,1.9,2.1v3.6h-1.1v-3.5
						c0-0.8-0.3-1.4-1.1-1.4c-1,0-1.4,0.7-1.4,1.8v3h-1.1V403.4z"/>
					<path d="M526.5,399.5h1.1v1.2h-1.1V399.5z M526.5,402h1.1v5.6h-1.1V402z"/>
					<path d="M533.6,405.9c-0.2,1-0.9,1.9-2.4,1.9c-1.6,0-2.5-1.1-2.5-2.9c0-1.6,0.9-3,2.6-3c1.7,0,2.2,1.2,2.3,1.9h-1.1
						c-0.1-0.5-0.5-1-1.2-1c-0.9,0-1.5,0.8-1.5,2c0,1.3,0.5,2.1,1.4,2.1c0.7,0,1.1-0.4,1.3-1H533.6z"/>
				</g>
			</g>
		</g>
		<g>
			<rect x="535.5" y="521.9" width="4" height="0.1"/>
			<g>
				<g class="st23">
					<path d="M457.7,525.5v-7.6h1.5c1.1,1.8,3.3,5.4,3.7,6.3h0c-0.1-0.9-0.1-2.2-0.1-3.4v-2.8h1.1v7.6h-1.4c-1-1.6-3.4-5.6-3.8-6.5
						h0c0.1,0.8,0.1,2.2,0.1,3.6v2.9H457.7z"/>
					<path d="M470,524.2c0,0.5,0,1.1,0.1,1.3h-1c0-0.1-0.1-0.4-0.1-0.7c-0.2,0.4-0.6,0.8-1.7,0.8c-1.3,0-1.9-0.9-1.9-1.7
						c0-1.3,1-1.8,2.7-1.8c0.4,0,0.7,0,0.9,0v-0.5c0-0.5-0.2-1-1.1-1c-0.9,0-1,0.4-1.1,0.9h-1c0.1-0.8,0.6-1.7,2.2-1.7
						c1.4,0,2.2,0.6,2.2,1.9V524.2z M468.9,522.8c-0.2,0-0.6,0-0.9,0c-1.1,0-1.6,0.3-1.6,1c0,0.5,0.4,1,1,1c1.3,0,1.4-0.9,1.4-1.8
						V522.8z"/>
					<path d="M470.9,519.9h0.9v-1.6h1.1v1.6h1.2v0.9h-1.2v3.2c0,0.5,0.1,0.8,0.6,0.8c0.1,0,0.3,0,0.5,0v0.8
						c-0.3,0.1-0.6,0.1-0.9,0.1c-0.9,0-1.3-0.5-1.3-1.4v-3.4h-0.9V519.9z"/>
					<path d="M475.2,517.4h1.1v1.2h-1.1V517.4z M475.2,519.9h1.1v5.6h-1.1V519.9z"/>
					<path d="M478.3,519.9c0.7,2.2,1.2,3.9,1.4,4.6h0c0.1-0.7,0.7-2.4,1.5-4.6h1.1l-2,5.6h-1.2l-1.9-5.6H478.3z"/>
					<path d="M484,522.9c0,1.1,0.5,1.8,1.5,1.8c0.8,0,1.1-0.4,1.3-0.8h1.1c-0.2,0.7-0.8,1.7-2.4,1.7c-1.8,0-2.5-1.4-2.5-2.9
						c0-1.7,0.9-3,2.6-3c1.8,0,2.4,1.4,2.4,2.7c0,0.2,0,0.3,0,0.5H484z M486.8,522.1c0-0.9-0.4-1.6-1.4-1.6c-0.9,0-1.3,0.7-1.4,1.6
						H486.8z"/>
					<path d="M493.1,523.3l-0.8,2.2h-1.1l2.7-7.6h1.4l2.8,7.6h-1.2l-0.8-2.2H493.1z M495.9,522.3c-0.7-1.9-1.1-3-1.3-3.6h0
						c-0.2,0.7-0.6,1.9-1.2,3.6H495.9z"/>
					<path d="M499.2,521.3c0-0.5,0-1,0-1.4h1c0,0.2,0,0.6,0,0.8c0.3-0.5,0.7-1,1.6-1c0.8,0,1.3,0.4,1.5,1c0.3-0.5,0.8-1,1.8-1
						c0.9,0,1.8,0.5,1.8,2.1v3.7h-1.1v-3.5c0-0.6-0.2-1.3-1.1-1.3c-0.9,0-1.2,0.6-1.2,1.6v3.2h-1.1v-3.5c0-0.7-0.2-1.3-1-1.3
						c-0.8,0-1.3,0.7-1.3,1.7v3.1h-1.1V521.3z"/>
					<path d="M509.2,522.9c0,1.1,0.5,1.8,1.5,1.8c0.8,0,1.1-0.4,1.3-0.8h1.1c-0.2,0.7-0.8,1.7-2.4,1.7c-1.8,0-2.5-1.4-2.5-2.9
						c0-1.7,0.9-3,2.6-3c1.8,0,2.4,1.4,2.4,2.7c0,0.2,0,0.3,0,0.5H509.2z M512,522.1c0-0.9-0.4-1.6-1.4-1.6c-0.9,0-1.3,0.7-1.4,1.6
						H512z"/>
					<path d="M514.3,521.4c0-0.7,0-1.2,0-1.5h1.1c0,0.2,0,0.6,0,1.1c0.3-0.7,0.9-1.2,1.9-1.2v1.1c-1.1,0-1.9,0.6-1.9,2v2.7h-1.1
						V521.4z"/>
					<path d="M518.3,517.4h1.1v1.2h-1.1V517.4z M518.3,519.9h1.1v5.6h-1.1V519.9z"/>
					<path d="M525.5,523.7c-0.2,1-0.9,1.9-2.4,1.9c-1.6,0-2.5-1.1-2.5-2.9c0-1.6,0.9-3,2.6-3c1.7,0,2.2,1.2,2.3,1.9h-1.1
						c-0.1-0.5-0.5-1-1.2-1c-0.9,0-1.5,0.8-1.5,2c0,1.3,0.5,2.1,1.4,2.1c0.7,0,1.1-0.4,1.3-1H525.5z"/>
					<path d="M530.9,524.2c0,0.5,0,1.1,0.1,1.3h-1c0-0.1-0.1-0.4-0.1-0.7c-0.2,0.4-0.6,0.8-1.7,0.8c-1.3,0-1.9-0.9-1.9-1.7
						c0-1.3,1-1.8,2.7-1.8c0.4,0,0.7,0,0.9,0v-0.5c0-0.5-0.2-1-1.1-1c-0.9,0-1,0.4-1.1,0.9h-1c0.1-0.8,0.6-1.7,2.2-1.7
						c1.4,0,2.2,0.6,2.2,1.9V524.2z M529.8,522.8c-0.2,0-0.6,0-0.9,0c-1.1,0-1.6,0.3-1.6,1c0,0.5,0.4,1,1,1c1.3,0,1.4-0.9,1.4-1.8
						V522.8z"/>
					<path d="M532.5,521.3c0-0.5,0-1,0-1.4h1c0,0.2,0,0.7,0,0.9c0.2-0.5,0.7-1,1.7-1c1.1,0,1.9,0.7,1.9,2.1v3.6h-1.1V522
						c0-0.8-0.3-1.4-1.1-1.4c-1,0-1.4,0.7-1.4,1.8v3h-1.1V521.3z"/>
				</g>
			</g>
		</g>
		<g>
			<rect x="535.5" y="499.8" width="4" height="2"/>
			<g>
				<g class="st23">
					<path d="M489.9,496.7v4.6c0,1.7,0.9,2.2,1.9,2.2c1.1,0,1.9-0.5,1.9-2.2v-4.6h1.1v4.5c0,2.5-1.4,3.2-3,3.2c-1.6,0-3-0.8-3-3.1
						v-4.6H489.9z"/>
					<path d="M496.5,500.1c0-0.5,0-1,0-1.4h1c0,0.2,0,0.7,0,0.9c0.2-0.5,0.7-1,1.7-1c1.1,0,1.9,0.7,1.9,2.1v3.6h-1.1v-3.5
						c0-0.8-0.3-1.4-1.1-1.4c-1,0-1.4,0.7-1.4,1.8v3h-1.1V500.1z"/>
					<path d="M503.9,501.3c0.5-0.6,1.6-1.8,2.4-2.6h1.3l-2.1,2.2l2.3,3.4h-1.3l-1.8-2.7l-0.8,0.8v1.9h-1.1v-8.1h1.1V501.3z"/>
					<path d="M508.4,500.1c0-0.5,0-1,0-1.4h1c0,0.2,0,0.7,0,0.9c0.2-0.5,0.7-1,1.7-1c1.1,0,1.9,0.7,1.9,2.1v3.6H512v-3.5
						c0-0.8-0.3-1.4-1.1-1.4c-1,0-1.4,0.7-1.4,1.8v3h-1.1V500.1z"/>
					<path d="M519.6,501.5c0,1.6-0.9,2.9-2.7,2.9c-1.6,0-2.6-1.2-2.6-2.9c0-1.7,1-2.9,2.7-2.9C518.6,498.6,519.6,499.8,519.6,501.5z
						 M515.4,501.5c0,1.2,0.6,2,1.5,2c1,0,1.5-0.8,1.5-2c0-1.2-0.5-2.1-1.5-2.1C516,499.5,515.4,500.3,515.4,501.5z"/>
					<path d="M521.4,498.7c0.7,2.6,1,4,1.1,4.6h0c0.1-0.5,0.5-1.8,1.2-4.6h1c0.8,3.1,1.1,4,1.2,4.5h0c0.1-0.6,0.3-1.4,1.2-4.5h1.1
						l-1.7,5.6h-1.2c-0.5-2.1-1-3.8-1.1-4.4h0c-0.1,0.6-0.6,2.2-1.2,4.4h-1.2l-1.6-5.6H521.4z"/>
					<path d="M529.3,500.1c0-0.5,0-1,0-1.4h1c0,0.2,0,0.7,0,0.9c0.2-0.5,0.7-1,1.7-1c1.1,0,1.9,0.7,1.9,2.1v3.6h-1.1v-3.5
						c0-0.8-0.3-1.4-1.1-1.4c-1,0-1.4,0.7-1.4,1.8v3h-1.1V500.1z"/>
				</g>
			</g>
		</g>
		<g>
			<rect x="535.5" y="22" class="st24" width="4" height="346.8"/>
			<g>
				<g class="st23">
					<path d="M506.2,198.9l-2-7.6h1.2c0.6,2.7,1.3,5.6,1.5,6.4h0c0.2-1.1,1.2-4.5,1.7-6.4h1.1c0.4,1.7,1.4,5.4,1.6,6.4h0
						c0.2-1.4,1.3-4.9,1.6-6.4h1.1l-2.2,7.6h-1.2c-0.5-1.7-1.4-5.2-1.6-6.2h0c-0.2,1.2-1.2,4.4-1.6,6.2H506.2z"/>
					<path d="M516.1,190.8v3.3c0.3-0.5,0.8-0.9,1.7-0.9c0.9,0,1.9,0.5,1.9,2.2v3.6h-1.1v-3.4c0-0.9-0.4-1.4-1.2-1.4
						c-1,0-1.4,0.7-1.4,1.8v3h-1.1v-8.1H516.1z"/>
					<path d="M521.4,190.8h1.1v1.2h-1.1V190.8z M521.4,193.3h1.1v5.6h-1.1V193.3z"/>
					<path d="M523.4,193.3h0.9v-1.6h1.1v1.6h1.2v0.9h-1.2v3.2c0,0.5,0.1,0.8,0.6,0.8c0.1,0,0.3,0,0.5,0v0.8
						c-0.3,0.1-0.6,0.1-0.9,0.1c-0.9,0-1.3-0.5-1.3-1.4v-3.4h-0.9V193.3z"/>
					<path d="M528.3,196.3c0,1.1,0.5,1.8,1.5,1.8c0.8,0,1.1-0.4,1.3-0.8h1.1c-0.2,0.7-0.8,1.7-2.4,1.7c-1.8,0-2.5-1.4-2.5-2.9
						c0-1.7,0.9-3,2.6-3c1.8,0,2.4,1.4,2.4,2.7c0,0.2,0,0.3,0,0.5H528.3z M531.2,195.6c0-0.9-0.4-1.6-1.4-1.6
						c-0.9,0-1.3,0.7-1.4,1.6H531.2z"/>
				</g>
			</g>
		</g>
		<g>
			<rect x="114" y="382.4" class="st25" width="4" height="114.6"/>
			<g>
				<g class="st23">
					<path d="M125,435.6h5v1h-3.9v2.4h3.6v1h-3.6v3.4H125V435.6z"/>
					<path d="M131.8,440.6c0,1.1,0.5,1.8,1.5,1.8c0.8,0,1.1-0.4,1.3-0.8h1.1c-0.2,0.7-0.8,1.7-2.4,1.7c-1.8,0-2.5-1.4-2.5-2.9
						c0-1.7,0.9-3,2.6-3c1.8,0,2.4,1.4,2.4,2.7c0,0.2,0,0.3,0,0.5H131.8z M134.6,439.9c0-0.9-0.4-1.6-1.4-1.6
						c-0.9,0-1.3,0.7-1.4,1.6H134.6z"/>
					<path d="M136.9,439.1c0-0.5,0-1,0-1.4h1c0,0.2,0,0.6,0,0.8c0.3-0.5,0.7-1,1.6-1c0.8,0,1.3,0.4,1.5,1c0.3-0.5,0.8-1,1.8-1
						c0.9,0,1.8,0.5,1.8,2.1v3.7h-1.1v-3.5c0-0.6-0.2-1.3-1.1-1.3c-0.9,0-1.2,0.6-1.2,1.6v3.2h-1.1v-3.5c0-0.7-0.2-1.3-1-1.3
						c-0.8,0-1.3,0.7-1.3,1.7v3.1h-1.1V439.1z"/>
					<path d="M150.5,442c0,0.5,0,1.1,0.1,1.3h-1c0-0.1-0.1-0.4-0.1-0.7c-0.2,0.4-0.6,0.8-1.7,0.8c-1.3,0-1.9-0.9-1.9-1.7
						c0-1.3,1-1.8,2.7-1.8c0.4,0,0.7,0,0.9,0v-0.5c0-0.5-0.2-1-1.1-1c-0.9,0-1,0.4-1.1,0.9h-1c0.1-0.8,0.6-1.7,2.2-1.7
						c1.4,0,2.2,0.6,2.2,1.9V442z M149.5,440.5c-0.2,0-0.6,0-0.9,0c-1.1,0-1.6,0.3-1.6,1c0,0.5,0.4,1,1,1c1.3,0,1.4-0.9,1.4-1.8
						V440.5z"/>
					<path d="M152.1,443.2v-8.1h1.1v8.1H152.1z"/>
					<path d="M155.5,440.6c0,1.1,0.5,1.8,1.5,1.8c0.8,0,1.1-0.4,1.3-0.8h1.1c-0.2,0.7-0.8,1.7-2.4,1.7c-1.8,0-2.5-1.4-2.5-2.9
						c0-1.7,0.9-3,2.6-3c1.8,0,2.4,1.4,2.4,2.7c0,0.2,0,0.3,0,0.5H155.5z M158.3,439.9c0-0.9-0.4-1.6-1.4-1.6
						c-0.9,0-1.3,0.7-1.4,1.6H158.3z"/>
				</g>
			</g>
		</g>
		<g>
			<rect x="114" y="47" class="st26" width="4" height="325.4"/>
			<g>
				<g class="st23">
					<path d="M131.5,210c0-1.4,0-2.8,0-3.7h0c-0.3,1.3-1.5,4.4-2.3,6.8h-1c-0.6-2-1.8-5.5-2.2-6.9h0c0.1,0.9,0.1,2.6,0.1,3.9v3H125
						v-7.6h1.7c0.8,2.3,1.8,5.3,2.1,6.3h0c0.2-0.8,1.4-4,2.2-6.3h1.6v7.6h-1.1V210z"/>
					<path d="M138.6,212c0,0.5,0,1.1,0.1,1.3h-1c0-0.1-0.1-0.4-0.1-0.7c-0.2,0.4-0.6,0.8-1.7,0.8c-1.3,0-1.9-0.9-1.9-1.7
						c0-1.3,1-1.8,2.7-1.8c0.4,0,0.7,0,0.9,0v-0.5c0-0.5-0.2-1-1.1-1c-0.9,0-1,0.4-1.1,0.9h-1c0.1-0.8,0.6-1.7,2.2-1.7
						c1.4,0,2.2,0.6,2.2,1.9V212z M137.6,210.5c-0.2,0-0.6,0-0.9,0c-1.1,0-1.6,0.3-1.6,1c0,0.5,0.4,1,1,1c1.3,0,1.4-0.9,1.4-1.8
						V210.5z"/>
					<path d="M140.3,213.2v-8.1h1.1v8.1H140.3z"/>
					<path d="M143.6,210.6c0,1.1,0.5,1.8,1.5,1.8c0.8,0,1.1-0.4,1.3-0.8h1.1c-0.2,0.7-0.8,1.7-2.4,1.7c-1.8,0-2.5-1.4-2.5-2.9
						c0-1.7,0.9-3,2.6-3c1.8,0,2.4,1.4,2.4,2.7c0,0.2,0,0.3,0,0.5H143.6z M146.5,209.9c0-0.9-0.4-1.6-1.4-1.6
						c-0.9,0-1.3,0.7-1.4,1.6H146.5z"/>
				</g>
			</g>
		</g>
	</g>
</g>
</svg>
